<?xml version="1.0" encoding="iso-8859-1"?>
<!-- Generator: Adobe Illustrator 19.0.0, SVG Export Plug-In . SVG Version: 6.00 Build 0)  -->
<svg version="1.1" id="Layer_1" xmlns="http://www.w3.org/2000/svg" xmlns:xlink="http://www.w3.org/1999/xlink" x="0px" y="0px"
	 viewBox="0 0 458.651 458.651" style="enable-background:new 0 0 458.651 458.651;" xml:space="preserve">
<g>
	<g>
		<path d="M450.083,212.856L218.028,50.125c-6.145-4.311-14.177-4.838-20.831-1.376c-6.657,3.463-10.834,10.343-10.834,17.846
			v92.014L31.665,50.125c-6.144-4.309-14.175-4.84-20.831-1.376C4.176,52.212,0,59.092,0,66.595v325.462
			c0,7.503,4.176,14.384,10.834,17.846c2.921,1.519,6.105,2.27,9.28,2.27c4.06,0,8.104-1.228,11.552-3.646l154.698-108.484v92.014
			c0,7.503,4.176,14.384,10.834,17.846c2.921,1.519,6.106,2.27,9.281,2.27c4.06,0,8.103-1.228,11.551-3.646l232.055-162.731
			c5.369-3.765,8.566-9.912,8.566-16.47C458.649,222.768,455.452,216.621,450.083,212.856z"/>
	</g>
</g>
</svg>
