<svg xmlns="http://www.w3.org/2000/svg" xmlns:xlink="http://www.w3.org/1999/xlink" viewBox="0 0 202.55 202.55"><defs><style>.cls-1{fill:#f5f5f5;}.cls-2{fill:url(#Dégradé_sans_nom_7);}.cls-3{fill:url(#Nouvelle_nuance_de_dégradé_1_4);}</style><linearGradient id="Dégradé_sans_nom_7" x1="118.36" y1="63.92" x2="124.58" y2="71.45" gradientUnits="userSpaceOnUse"><stop offset="0" stop-color="#43c6ac"/><stop offset="0.84" stop-color="#191654"/></linearGradient><linearGradient id="Nouvelle_nuance_de_dégradé_1_4" x1="53.04" y1="31.86" x2="115.38" y2="129.38" gradientUnits="userSpaceOnUse"><stop offset="0" stop-color="#43c6ac"/><stop offset="1" stop-color="#191654"/></linearGradient></defs><g id="Calque_2" data-name="Calque 2"><g id="Calque_1-2" data-name="Calque 1"><rect class="cls-1" width="202.55" height="202.55" rx="19.32"/><path class="cls-2" d="M120.69,61.91a4.88,4.88,0,0,0,.1,9.76,4.88,4.88,0,1,0-.1-9.76Z"/><path class="cls-3" d="M167.68,89.19,136.5,63.3c-1.2-1.07-1.76-1.23-1.5-2.74,2-11.53-2.74-21.73-12.8-27.63-7.94-4.65-16.67-6.4-25.73-6.47-16.5-.13-33,0-49.51,0-.49,0-1,0-1.63.07.16.57.24,1,.37,1.36A67.24,67.24,0,0,0,69.87,61.29c4.72,3.47,9.81,6.42,14.77,9.55a2.4,2.4,0,0,1,.62.5l-.06,0c-.37.37-.77.71-1.15,1.06A55.73,55.73,0,0,0,72.79,87.78,74.36,74.36,0,0,0,67.91,99c-.56,1.74-1.09,3.48-1.57,5.24-.74,2.69-1.6,5.37-2.1,8.11a111.29,111.29,0,0,0-2,17.84c-.08,4.85-.14,9.71,0,14.56.08,3.61.36,7.22.74,10.81.6,5.53,1.35,11.05,2.06,16.57a3.93,3.93,0,0,0,.34.89,17.19,17.19,0,0,0,1.53-.85c1.82-1.3,3.66-2.59,5.42-4,4.12-3.22,8.32-6.37,12.27-9.8,3.69-3.18,7.2-6.6,10.62-10.08a89.85,89.85,0,0,0,6.8-7.79,87,87,0,0,0,5.13-7.59,48.07,48.07,0,0,0,3.46-6.44,68.14,68.14,0,0,0,2.55-7.58,21.22,21.22,0,0,0,1-4.78,81.26,81.26,0,0,0,0-8.69,11.19,11.19,0,0,0-2.63-7.18c-1.61-1.78-3.18-3.62-4.86-5.33-3.09-3.13-6.28-6.15-9.37-9.27-1.85-1.87-3.65-3.8-5.35-5.8s-3.37-4.3-5.06-6.45l-.08-.09h0c-.21-.34-.17-.75.17-1.3.44-.71.81-1.47,1.23-2.2,2.44-4.12,5.21-8,9.5-10.39,5.38-3,11.14-2.67,16.89-1.52,6.47,1.3,12.5,4,18.62,6.33.92.36,1,.86.7,1.74a34.47,34.47,0,0,1-7.34,12.26l-1.11,1.2c14.8,4,29.17,7.68,42.22,12a.13.13,0,0,0,.17-.07A.28.28,0,0,0,167.68,89.19Z"/></g></g></svg>