<?xml version="1.0" encoding="iso-8859-1"?>
<!-- Generator: Adobe Illustrator 17.1.0, SVG Export Plug-In . SVG Version: 6.00 Build 0)  -->
<!DOCTYPE svg PUBLIC "-//W3C//DTD SVG 1.1//EN" "http://www.w3.org/Graphics/SVG/1.1/DTD/svg11.dtd">
<svg version="1.1" id="Capa_1" xmlns="http://www.w3.org/2000/svg" xmlns:xlink="http://www.w3.org/1999/xlink" x="0px" y="0px"
	 viewBox="0 0 214.573 214.573" style="enable-background:new 0 0 214.573 214.573;" xml:space="preserve">
<path d="M82.098,154.462l4.386,2.002v42.412l-9.685-2.949c-18.921-5.761-35.922-17.68-47.872-33.561
	c-12.36-16.427-18.894-36.004-18.894-56.615c0-20.61,6.534-40.188,18.894-56.614c7.644-10.159,17.361-18.684,28.318-25.025L47.068,0
	l63.736,23.898L84.49,88.654L73.294,62.131c-13.939,9.93-22.537,26.151-22.537,43.62C50.757,126.652,63.059,145.772,82.098,154.462z
	 M185.646,49.137c-11.95-15.882-28.951-27.8-47.872-33.561l-9.685-2.948v42.411l4.386,2.002c19.038,8.688,31.34,27.809,31.34,48.71
	c0,18.015-9.144,34.7-23.858,44.531l-10.768-27.469l-27.895,63.864l63.864,27.896l-10.143-25.875
	c11.906-6.453,22.452-15.463,30.63-26.332c12.36-16.427,18.894-36.004,18.894-56.615C204.54,85.141,198.007,65.563,185.646,49.137z"
	/>
</svg>
