<svg xmlns="http://www.w3.org/2000/svg" viewBox="0 0 183.2 227.88"><defs><style>.cls-1{fill:#fff;}.cls-2{fill:#432918;}.cls-3{fill:#878787;}.cls-4{fill:#c6c6c6;}.cls-5{fill:#ef83b3;}.cls-6{fill:#e6332a;}</style></defs><g id="Calque_2" data-name="Calque 2"><g id="king_bunny" data-name="king bunny"><g id="Calque_6" data-name="Calque 6"><path class="cls-1" d="M127.48,112.88c3.22,0,3.22-5,0-5s-3.22,5,0,5Z"/><path class="cls-1" d="M135.74,104,133,104c-.86,0-1.75.07-2.61,0l.67.08a2,2,0,0,1-.5-.12l.59.25a1.37,1.37,0,0,1-.2-.13l.5.4-.23-.23.4.5a1.79,1.79,0,0,1-.22-.38l.25.6a21.37,21.37,0,0,1-.78-3.08l-.8-3.39A2.51,2.51,0,0,0,127,96.76a2.55,2.55,0,0,0-1.75,3.07l.87,3.7a12.43,12.43,0,0,0,1.11,3.66,3.77,3.77,0,0,0,2.37,1.7,10.87,10.87,0,0,0,2.28.12l3.84,0a2.5,2.5,0,0,0,0-5Z"/><path class="cls-1" d="M129.67,98.13l9.16-.35A2.53,2.53,0,0,0,141,94a28.21,28.21,0,0,0-6.21-7.94,2.5,2.5,0,1,0-3.54,3.53A27.81,27.81,0,0,1,134.45,93l-.11-.14c.06.09.13.17.19.25l.27.38c.24.34.48.68.7,1,.42.66.81,1.33,1.17,2l2.16-3.76-9.16.35a2.5,2.5,0,1,0,0,5Z"/><path class="cls-2" d="M122.62,61.94H119a2.51,2.51,0,0,0-2.5,2.5,2.54,2.54,0,0,0,.74,1.77,2.59,2.59,0,0,0,1.76.73h3.65a2.61,2.61,0,0,0,1.77-.73,2.51,2.51,0,0,0,0-3.54,2.64,2.64,0,0,0-1.77-.73Z"/><path class="cls-1" d="M130.64,106.08c3.22,0,3.22-5,0-5s-3.22,5,0,5Z"/><path class="cls-1" d="M129.18,100c-2.76,0-5.8-.33-8.48.42a9,9,0,0,0-5.45,4.26c-1.6,2.93-1.1,6,.35,8.87l-.76-1.79a5.32,5.32,0,0,1,.32,1l-.27-2a8.69,8.69,0,0,1-.06,2.22l.27-2a38.38,38.38,0,0,0-.59,4.65,17.6,17.6,0,0,0,.56,4.38c.45,1.94,1.28,3.76,1.57,5.74l-.27-2a9.18,9.18,0,0,1,0,1.89l.27-2a7.25,7.25,0,0,1-.37,1.44l.76-1.79a12.65,12.65,0,0,0-1.67,5.63,8.44,8.44,0,0,0,6,7.9,17.33,17.33,0,0,0,10-.29,29.15,29.15,0,0,0,7.44-3.73,21.38,21.38,0,0,0,3.78-2.87,9.16,9.16,0,0,0,2.31-5.64c.06-.68.09-1.35.17-2l-.26,2c.41-2.93,2-5.7,1.89-8.69a11,11,0,0,0-2.42-6.48c-.85-1.09-1.83-2-2.68-3.12l1.17,1.52a7,7,0,0,1-.73-1.28l.76,1.79a3.08,3.08,0,0,1-.17-.68l.27,2a2.28,2.28,0,0,1,0-.69l-.27,2,.09-.35-14.73-2c-.3,2.68,1.62,5.74,3.93,7a10.56,10.56,0,0,0,5.11,1.25l-2-.27a1,1,0,0,1,.54.15l-3.31-1.93.2.19-1.93-3.31.1.33-.26-2a22.39,22.39,0,0,1-.16,2.71l.26-2a9.86,9.86,0,0,1-.57,2.26l.76-1.79a7.15,7.15,0,0,1-.82,1.35L131,110.8a7.06,7.06,0,0,1-.67.67l1.52-1.17a5.39,5.39,0,0,1-1.06.63l1.8-.76a4.73,4.73,0,0,1-.9.22l2-.27a7.5,7.5,0,0,1-1.16,0l2,.26a47.76,47.76,0,0,0-6.31-.7,38.91,38.91,0,0,0-6.38.58c-1.74.26-3.64,2-4.49,3.45a7.51,7.51,0,0,0,2.69,10.26,8.73,8.73,0,0,0,5.78.75l.83-.11-2,.26a27.48,27.48,0,0,1,6.28,0l-2-.26a40.18,40.18,0,0,0,4.37.57,11.06,11.06,0,0,0,5.35-1.39,12.31,12.31,0,0,0,5.32-6.11,19.52,19.52,0,0,0,1.38-7.49,8.39,8.39,0,0,0-4-7.36c-1.69-1-3.28-1-5.18-1.2l2,.27-.25-.08,1.79.76-.22-.12,1.52,1.17-.16-.16L142,105l-.08-.19,1,3.78,0-.21a7.47,7.47,0,0,0-2.2-5.31,7.78,7.78,0,0,0-4.31-2.06,7.48,7.48,0,0,0-8.23,5.37,10.77,10.77,0,0,0,1.34,8.46,50.31,50.31,0,0,0,3.49,4.19l-1.18-1.52a6.24,6.24,0,0,1,.52.85l-.75-1.79a4.89,4.89,0,0,1,.28.92l-.27-2a2.58,2.58,0,0,1,0,.68l.27-2c-.24,1.41-.91,2.73-1.24,4.12a41.38,41.38,0,0,0-.82,6.07l.26-2-.11.35,1.93-3.31-.2.23,1.52-1.17a31.87,31.87,0,0,1-6.39,3.94l1.79-.76a15.47,15.47,0,0,1-3.47,1l2-.26a11.75,11.75,0,0,1-2.78,0l2,.27c-.35-.06-.7-.13-1-.22l1.79.75L127,123l1.52,1.17-.18-.19,1.93,3.31-.09-.23.27,2,0-.26-.27,2a3.49,3.49,0,0,1,.23-.84l-.75,1.79a15.71,15.71,0,0,0,1.54-4.11,17.71,17.71,0,0,0-.12-6.45c-.39-2.16-1.38-4.17-1.7-6.36l.27,2a9.64,9.64,0,0,1,0-2.34l-.27,2a32.51,32.51,0,0,0,.61-5,13.93,13.93,0,0,0-1.66-6.08l.76,1.79L129,107l.26,2,0-.28-.27,2,0-.24-.76,1.8a.94.94,0,0,1,.22-.39l-1.17,1.52.18-.16-1.52,1.18a1.54,1.54,0,0,1,.44-.23l-1.79.75a5.42,5.42,0,0,1,.8-.17l-2,.26c1.92-.16,3.9,0,5.82,0,3.93,0,7.68-3.46,7.5-7.5a7.63,7.63,0,0,0-7.5-7.5Z"/><path class="cls-1" d="M113.52,122.28a13.55,13.55,0,0,0-1-14.08,40,40,0,0,0-3.68-4.43c-.22-.24-.44-.47-.65-.71-.42-.49-.9-1.45.21.33a16,16,0,0,1-1.12-1.92l.76,1.79a10.28,10.28,0,0,1-.35-1.07L93.93,108a16.61,16.61,0,0,0,9.6,7.66,7.47,7.47,0,0,0,7.3-1.92c1.71-1.72,2.92-4.91,1.93-7.3s-2.37-4.66-4.89-5.85c-1.48-.7-3-1-4.52-1.64l1.79.75c-.17-.07-.34-.17-.51-.24-.42-.27-.32-.18.31.27a2.37,2.37,0,0,1,1,1c.88,1.19.06,0-.13-.34a12.35,12.35,0,0,0-3.12-3.77,8.42,8.42,0,0,0-9.25-.87,9.08,9.08,0,0,0-2.69,2.69c.07-.09,1.16-1.44.48-.74,1.23-1.27,1.12-.83.48-.5-.27.14-.54.26-.82.38l1.79-.75c-6.82,2.76-13.51,6-18.34,11.76a27.83,27.83,0,0,0-6.07,10.95,12.22,12.22,0,0,0,1.48,9.38c.84,1.41,1.71,2.8,2.66,4.14a31.27,31.27,0,0,0,8.6,8.78A19.69,19.69,0,0,0,95,144.31a26.76,26.76,0,0,0,11.11-4.95,28.37,28.37,0,0,0,5.13-4.33,18.93,18.93,0,0,0,3.85-7.09,30,30,0,0,0,1.14-7.41,9.17,9.17,0,0,0-2.56-6.6c-1.8-1.8-4-2.33-6.46-2.59a41.31,41.31,0,0,0-7.12-.19A9.2,9.2,0,0,0,93,114.63c-1.5,1.94-1.71,4-2,6.32l.26-2a12.63,12.63,0,0,1-.81,2.82l.76-1.79c-.68,1.48-.84.66,1.59-1.09l1.79-.75-.37.1,2-.27-.39,0,2,.27a14,14,0,0,1-1.94-.68l1.79.75c-.37-.16-1.65-.57-1.84-1,0,.08,1.33,1.07.64.39,1.23,1.2.78,1.1.42.33l.76,1.79a5.14,5.14,0,0,1-.25-1l.26,2a3,3,0,0,1,0-.67l-.27,2a2.5,2.5,0,0,1,.19-.66l-.76,1.79L97,123a4.16,4.16,0,0,1-1.44,1.56c-1.06.81-.47.36-.12.21l-1.79.76a4.7,4.7,0,0,1,.74-.18l-2,.27a4.93,4.93,0,0,1,.77,0l-2-.26a3.83,3.83,0,0,1,.74.19l-1.79-.75c.33.15,1,.63-.12-.21a2.57,2.57,0,0,1-1-1c-.46-.66-.56-.77-.32-.35l-.76-1.79.09.24a8.15,8.15,0,0,0,3.45,4.49,7.63,7.63,0,0,0,5.78.75c3.58-1.16,6.72-5.29,5.24-9.22a10.05,10.05,0,0,0-4.79-5.88,11.23,11.23,0,0,0-7.79-.87c-6,1.45-8.56,8.33-6.3,13.7a12.47,12.47,0,0,0,5,5.79A15.46,15.46,0,0,0,95.85,133a8.93,8.93,0,0,0,8.33-5.4,23.27,23.27,0,0,0,1.93-7.38l-.26,2a2.84,2.84,0,0,1,.16-.7l-.76,1.79-1.94,2-1.8.75.4-.08-2,.27a43.23,43.23,0,0,1,7.63.22l-2-.27a2.08,2.08,0,0,1,.6.18l-1.79-.76.25.17L101.92,123l.2.28-.75-1.8.11.32-.27-2a11.62,11.62,0,0,1-.22,3.11l.27-2a18.78,18.78,0,0,1-1.07,4.36l.76-1.8c-.22.5-.49,1-.74,1.44q-.64,1,.45-.51c-.18.21-.36.41-.56.61a16.32,16.32,0,0,1-1.22,1.13l-.65.52c.91-.7,1.14-.88.68-.54a31.28,31.28,0,0,1-5.67,3.32l1.79-.76a18.46,18.46,0,0,1-4,1.14l2-.27a13.67,13.67,0,0,1-3.26.06l2,.27a12.73,12.73,0,0,1-3-.77l1.79.76a13.91,13.91,0,0,1-1.76-.9c-.26-.15-.5-.33-.75-.49-1.17-.73,1.4,1.21.37.29a27,27,0,0,1-2.83-2.93c-.79-1,.88,1.2.36.47-.19-.26-.38-.51-.56-.77-.44-.62-.86-1.26-1.28-1.9A25.75,25.75,0,0,1,82,120.05l.76,1.79a3.21,3.21,0,0,1-.21-.75l.27,2a5,5,0,0,1,0-1.22l-.27,2a14.54,14.54,0,0,1,.85-2.59l-.76,1.79a34.38,34.38,0,0,1,2.57-4.44c-1.25,2-.44.58,0,.09.24-.28.49-.55.75-.82A26.19,26.19,0,0,1,88,116c.45-.38,1.74-1.23-.2.11.36-.25.7-.52,1.06-.77q1.08-.77,2.22-1.44a43.13,43.13,0,0,1,4.9-2.46l-1.79.76c1.56-.65,3.16-1.21,4.69-1.93a12.73,12.73,0,0,0,4.74-4.3l-6.47,3.71h.26l-2-.27a1.39,1.39,0,0,1,.45.14l-1.79-.75c-1.14-1-1.46-1.23-1-.7-.86-1.19-1.1-1.47-.7-.84a10.44,10.44,0,0,0,.58,1,11.87,11.87,0,0,0,3.56,3.8c1.67,1.15,3.65,1.48,5.5,2.2l-1.8-.76c.35.16,1,.64-.08-.2-.57-.49-.72-.61-.47-.36.42.43.15.09-.8-1l-.76-1.79.11.25,9.22-9.23a6,6,0,0,1-.71-.25l1.79.76c-.47-.2-.9-.45-1.35-.69-1.13-.58,1.29,1.21.31.27-.26-.26-.52-.57-.79-.82.77,1,.93,1.24.49.61-.13-.21-.26-.43-.38-.65a7.51,7.51,0,0,0-13.71,5.78A19.16,19.16,0,0,0,97.79,114c.68.76,1.38,1.51,2.08,2.27.48.59.33.38-.46-.61.15.21.3.43.44.65a12.19,12.19,0,0,1,.72,1.39l-.76-1.79a8.21,8.21,0,0,1,.51,1.82l-.27-2a5.78,5.78,0,0,1,0,1.44l.27-2a5.44,5.44,0,0,1-.32,1l.76-1.79-.17.33c-1.81,3.48-1,8.3,2.69,10.26,3.44,1.82,8.33,1,10.26-2.69Z"/><path class="cls-1" d="M96.51,110.46c-2.85.64-5.72,1.43-8.6,1.9l2-.27a5.83,5.83,0,0,1-1.18,0l2,.27a3.29,3.29,0,0,1-.7-.19l1.79.75a1.49,1.49,0,0,1-.3-.18L93,114a1.42,1.42,0,0,1-.24-.25L94,115.21a1.06,1.06,0,0,1-.18-.33l.76,1.79,0-.18.26,2a1.45,1.45,0,0,1,0-.36l-.27,2a1.45,1.45,0,0,1,.08-.36l-.75,1.79a2.53,2.53,0,0,1,.28-.51l-1.17,1.52a3.49,3.49,0,0,1,.43-.43l-1.52,1.18a3.06,3.06,0,0,1,.53-.29l-1.79.75a1.72,1.72,0,0,1,.39-.1l-2,.27a4,4,0,0,1,.77,0l-2-.27a5,5,0,0,1,1,.28l-1.8-.76A21.89,21.89,0,0,1,91.26,126l-1.52-1.18a37.6,37.6,0,0,1,6.59,6.51l-1.17-1.52a7.49,7.49,0,0,1,.63,1.05L95,129.11a4.07,4.07,0,0,1,.2.68l-.27-2a1.84,1.84,0,0,1,0,.47l.27-2,0,.23.75-1.79-.12.19,2.69-2.69-.16.09,1.8-.75-.19,0,2-.27c-1.23,0-2.47,0-3.7,0a26.78,26.78,0,0,1-3.47,0l2,.27a4.41,4.41,0,0,1-.71-.2l1.79.75a1.17,1.17,0,0,1-.28-.17l1.52,1.17-.12-.1,1.17,1.51a.64.64,0,0,1-.15-.25l.75,1.79,0-.15.26,2v-.16a7.81,7.81,0,0,0-2.2-5.31,7.51,7.51,0,0,0-10.6,0,7.67,7.67,0,0,0-2.2,5.31,8.53,8.53,0,0,0,4.16,7.25,10.73,10.73,0,0,0,5.34,1.34l6-.06c3.48-.06,6.41-1.64,7.8-5a9.48,9.48,0,0,0-.64-8.28,19.7,19.7,0,0,0-2.51-3.32q-.84-1-1.74-1.92a40,40,0,0,0-3.94-3.53,33.69,33.69,0,0,0-5.72-4,11.56,11.56,0,0,0-5.66-1.43,9.86,9.86,0,0,0-6.65,2.87,9.29,9.29,0,0,0-2.7,6.51,8.9,8.9,0,0,0,4.21,7.43c3.11,2,6.6,1.42,10,.67l6.59-1.48a7.5,7.5,0,0,0,1.79-13.71,8.15,8.15,0,0,0-5.78-.75Z"/><path class="cls-1" d="M130.88,113.33H128a8.42,8.42,0,0,0-5.31,2.2,8.28,8.28,0,0,0-2.19,5.3l.27,2a7.44,7.44,0,0,0,1.92,3.31l1.52,1.17a7.41,7.41,0,0,0,3.79,1h2.91a5.61,5.61,0,0,0,2.89-.64,5.73,5.73,0,0,0,2.42-1.55,8.34,8.34,0,0,0,2.19-5.31l-.26-2a7.55,7.55,0,0,0-1.93-3.31l-1.52-1.17a7.51,7.51,0,0,0-3.79-1Z"/></g></g><g id="baby_bunny" data-name="baby bunny"><g id="Calque_4" data-name="Calque 4"><path class="cls-3" d="M121.88,56c3.22,0,3.23-5,0-5s-3.22,5,0,5Z"/><path class="cls-3" d="M119.41,55.91c0,.52.06,1,.06,1.57,0,.27.09,2,.06.62,0,.37-.63,1.75,0,.61-.28.47-.23.45.16-.07.32-.2.64-.4,1-.59h2.66a4,4,0,0,1,2.28,2.23c-.34-.87.06,1.11,0,.14h-10a39,39,0,0,1,.5,7.7c0,.11-.07,1,0,.42s0,.28-.08.4a17.13,17.13,0,0,1-.49,1.87c-.15.47-.23.4,0,0,0,.05-.34.62-.34.62.41-.46.49-.56.24-.29s-.15.18.12-.05a3.91,3.91,0,0,1,1.5-.5l4.82,3.67a4.87,4.87,0,0,1-.23-.83c.08.63.1.65.07.06s0-.56-.05.06c.06-.29.12-.58.2-.86A14.44,14.44,0,0,1,122.4,71c-.39,1,.32-.67.41-.84l-9.32-2.53c-.1,1.13-.22,2.26-.36,3.38.13-1-.14.89-.17,1.07-.08.56-.18,1.12-.28,1.67-.42,2.31-.94,4.59-1.55,6.86a5,5,0,1,0,9.64,2.66,90.13,90.13,0,0,0,2.72-15.64,5,5,0,0,0-3.67-4.82c-2-.46-4.68.26-5.65,2.3-1.76,3.7-3.28,7.68-2,11.8A5.1,5.1,0,0,0,117,80.6c4.93-.12,7.76-4.58,8.62-9a34.11,34.11,0,0,0-.06-11.18,5.55,5.55,0,0,0-1.46-3.53,5,5,0,0,0-8.54,3.53,8.25,8.25,0,0,0,2.13,5.69,6.14,6.14,0,0,0,7.73.65c3.54-2.48,4.2-6.83,4-10.85-.15-2.61-2.19-5.13-5-5-2.58.11-5.16,2.2-5,5Z"/><path class="cls-3" d="M110.8,82a30,30,0,0,1,0,5.28l.18-1.32a13,13,0,0,1-.9,3.22l.5-1.2a22.15,22.15,0,0,0-1.33,3.47,27.55,27.55,0,0,0-.5,3.74,5,5,0,0,0,8.54,3.53,5.6,5.6,0,0,0,1.46-3.53c0-.49.09-1,.15-1.45l-.18,1.33a10.46,10.46,0,0,1,.72-2.57l-.51,1.2a34.38,34.38,0,0,0,1.3-3.22,20.27,20.27,0,0,0,.61-3.55,30.06,30.06,0,0,0,0-4.93,5.28,5.28,0,0,0-1.47-3.54A5.07,5.07,0,0,0,115.8,77c-2.59.12-5.15,2.2-5,5Z"/><path class="cls-3" d="M130,53.8a73,73,0,0,0,4.77-6.72,22.5,22.5,0,0,0,2-4.37c.21-.62.39-1.25.6-1.88.09-.27.2-.54.28-.82.21-.69-.51.89.1-.19,1.34-2.33,3-4.48,4.56-6.68l5.25-7.44c1.51-2.14.45-5.65-1.8-6.84a5.14,5.14,0,0,0-6.84,1.79l-5.1,7.24a65.4,65.4,0,0,0-4.7,6.89A25.61,25.61,0,0,0,127.43,39c-.2.63-.4,1.25-.62,1.87.32-.91,0,0-.12.2s-.28.51-.43.76a69.3,69.3,0,0,1-4.87,6.91c-1.59,2.09-.4,5.68,1.79,6.84,2.64,1.39,5.14.44,6.84-1.79Z"/><path class="cls-3" d="M143.55,27.67a8.92,8.92,0,0,0,7-4.37c.49-.76.86-1.58,1.28-2.38.23-.43.48-.86.75-1.28.07-.11.93-1.28.47-.7s.47-.53.57-.63a14.73,14.73,0,0,1,1.05-1c.18-.17.37-.33.56-.49.42-.35.38-.31-.14.1a4.19,4.19,0,0,1,1.07-.72c.37-.22.75-.43,1.13-.62l.66-.31c-.63.26-.68.29-.17.1a20.18,20.18,0,0,1,2.86-.69l-6.15-3.49.41-2.61.35-.47c1.21-1.2-.35.48.4-.27.37-.35.15-.06-.17.06-.55.2-1.13.44-1.65.68a7.41,7.41,0,0,0-3.42,3.15l9.14,1.2a2.85,2.85,0,0,1-.66,2.9c-.52.37-.53.4,0,.1-.55.23-.55.24,0,0l.4-.13c1.29-.45,2.56-1,3.81-1.51a33.41,33.41,0,0,0,5.44-3.06l-7.35-5.65c-.54,1.75-1.09,3.5-1.74,5.22,0,.14-.54,1.37-.31.83s-.31.66-.38.8c-.41.85-.86,1.68-1.36,2.5l9.14,1.19c-.4-1.13-.55-.31-.44,2.44a3.52,3.52,0,0,1-2.88,1.63l-4.82-3.67,1.16,3.1a14.85,14.85,0,0,1,1,2.79V19.75l.29-.72,1.79-1.79c-1.81,1.27-3.4,2.35-4.49,4.36a10.58,10.58,0,0,0-1.23,4.25c0,.49,0,1,0,1.44,0,.32,0,.64,0,1l0-.42a8.52,8.52,0,0,1-.26.86c.22-.5.22-.48,0,.05L156,30l-1.12,2.5c-.85,1.88-1.7,3.75-2.57,5.62A140.12,140.12,0,0,1,140.59,59c-1.5,2.15-.46,5.65,1.8,6.84a5.13,5.13,0,0,0,6.84-1.8c5.32-7.62,9.44-16,13.29-24.43.94-2.07,1.89-4.15,2.81-6.24a14.6,14.6,0,0,0,1.42-5.13,14,14,0,0,0,0-1.45c0-.65,0-.64-.07,0a5.6,5.6,0,0,1,.2-.7c-.28.63-.3.7,0,.21s.26-.41-.13.14a4.18,4.18,0,0,1,.53-.5c-.54.41-.57.47-.11.18a6,6,0,0,0,2.95-3.74c.48-1.81-.18-3.36-.8-5L168,13.86a5.17,5.17,0,0,0-4.82-3.67c-4.12.07-8,4.39-6.32,8.59A5.13,5.13,0,0,0,161,22.36,5,5,0,0,0,166,20a52,52,0,0,0,4.8-11.73A5,5,0,0,0,169,3a4.93,4.93,0,0,0-5.55-.39,34.36,34.36,0,0,1-3.69,2.22L159,5.2s-1.17.55-.58.28-.48.2-.6.24l-1,.37a12.16,12.16,0,0,0-5,2.63,7.48,7.48,0,0,0-1.91,6.83c.31,1.91,2.4,3.34,4.15,3.58a5,5,0,0,0,5-2.39c.62-1.2-1.75,1.53-.75.72.75-.62-.94.32,0,0A10.88,10.88,0,0,0,161,16.16c2.47-1.75,4-4.6,3.1-7.67C163.25,5.66,160.7,4.61,158,5a19.94,19.94,0,0,0-11.05,5.84,22.16,22.16,0,0,0-3.74,5c-.37.7-.69,1.42-1.1,2.1a6.65,6.65,0,0,1-.36.56c.46-.58.52-.67.17-.28s-.3.28.3-.23a2.44,2.44,0,0,1,1.37-.35c-2.59.27-5.13,2.11-5,5,.11,2.48,2.22,5.29,5,5Z"/><path class="cls-3" d="M135.31,70.41c.05.53,0,1,0,1.56s0,.52.05-.16c0,.19-.06.38-.1.57a20.2,20.2,0,0,1-.83,2.85c-.14.37-.28.74-.43,1.11-.09.22-.75,1.85-.25.63-.34.82-.7,1.64-1.11,2.44s-.9,1.51-1.37,2.26a16.2,16.2,0,0,0-1.43,3.21c-.66,1.87-1.27,3.76-1.9,5.64a5,5,0,0,0,3.49,6.15,5.12,5.12,0,0,0,6.15-3.49c.63-1.88,1.36-3.75,1.9-5.65.19-.52.16-.46-.11.16.1-.22.22-.44.34-.65.25-.43.54-.83.81-1.25a21.43,21.43,0,0,0,1.25-2.37c1.85-4,3.88-8.47,3.5-13-.22-2.6-2.14-5.13-5-5-2.52.12-5.23,2.21-5,5Z"/><path class="cls-3" d="M68.24,140a125.24,125.24,0,0,0-7.58,16l9.82,1.33a41.49,41.49,0,0,1-.27-6.4c0-1,.1-2,.21-3,0-.22,0-.45.08-.68-.07.57-.07.56,0,0s.15-.9.24-1.35c.87-4.5,4.25-10.15.19-14.05a6.35,6.35,0,0,0-8.78-.14c-1.52,1.42-2,3.74-2.43,5.69-.15.62-.3,1.25-.46,1.87a17.5,17.5,0,0,0-.67,2c.32-.74.36-.87.14-.39-.07.12-.13.25-.21.37-.47,1,.68-.58.06,0s-.16-.06.2-.08a3.72,3.72,0,0,1-.48.27c.77-.3.9-.37.39-.2l5.65,2.3c-.49-.9.26,1.06,0,.08.09.39.08,1.11.07.29,0-1,.1.2-.07.28a3.6,3.6,0,0,1,.12-.44c.11-.36,0-.2-.24.49a2.43,2.43,0,0,0,.38-.67c.22-.52-.72.81-.12.2.76-.77-.89.73-.06.06s-1,.31-.07.07l-4.87-8.36a51.19,51.19,0,0,0-9.42,15.17h9.64c-.08-.28-.14-.55-.21-.83-.13-.52-.05-.4,0,.06a17.59,17.59,0,0,1,0-1.92c0-.11.09-1,0-.4s.07-.28.09-.39a13,13,0,0,1,.56-1.84l-9.64-2.66a106.92,106.92,0,0,0-4.29,22.13c-.54,6.54.11,13.75,3.91,19.32s9.33,8.68,15.43,10.92c2.74,1,5.57,1.78,8.39,2.53,3.58,1,7.15,2,10.76,2.86,4.71,1.11,9.77.39,12.35-4.19A23.41,23.41,0,0,0,99,191.1c.29-1-.43.58,0,.05.78-1-.54.35.2-.33s-.91.41.1-.08a2.71,2.71,0,0,1-2.58,0c2.33,1.18,5.52.69,6.84-1.79,1.2-2.28.7-5.59-1.8-6.84-4.33-2.19-8.94-.17-11.3,3.87a20.21,20.21,0,0,0-1.65,4.39c-.09.29-.19.57-.28.85-.34,1.11.56-.87,0,.08-.2.3-.49.55.21-.18-.38.38-.3.35.26-.09-.5.28-.45.28.15,0-.92.34.12.08.19,0a3,3,0,0,1-1.19,0l.52.07L88,191l-1-.23c-1.79-.46-3.58-1-5.37-1.43-3-.81-6.07-1.58-9.07-2.46-1.27-.37-2.53-.77-3.78-1.21-.65-.23-1.3-.48-1.94-.74-.86-.33,0,0,.16.07a8.65,8.65,0,0,1-1.35-.62,27.9,27.9,0,0,1-3.2-1.8l-.89-.61c-1-.67.56.5,0,0s-1.09-.94-1.6-1.46c-.21-.21-.41-.43-.61-.66l-.24-.27c-.35-.42-.31-.37.1.16,0,0-1-1.54-1.06-1.6a15.82,15.82,0,0,1-.91-1.79c.5,1.13,0-.1-.07-.29-.13-.38-.25-.76-.36-1.15-.18-.64-.33-1.3-.45-2,0-.21-.33-1.54-.06-.27-.08-.39-.09-.82-.13-1.22a36,36,0,0,1-.06-4.53c.07-1.64.23-3.28.42-4.92a2.8,2.8,0,0,1,.08-.58c.07-.48.14-1,.22-1.44.15-1,.31-1.91.48-2.86a110.15,110.15,0,0,1,2.86-11.73,5,5,0,0,0-3.49-6.15,5.12,5.12,0,0,0-6.15,3.49,17.65,17.65,0,0,0-.38,10.64A5.05,5.05,0,0,0,55,157.05a5.31,5.31,0,0,0,4.82-3.67c.18-.45.18-.41,0,0l.35-.78c.27-.58.55-1.16.85-1.73q.82-1.6,1.8-3.15c.6-1,1.25-1.9,1.93-2.82.27-.38.29-.37,0,0,.22-.27.44-.55.67-.82.41-.5.84-1,1.26-1.45a5,5,0,0,0-4.86-8.36c-6.14,1.59-9,8.87-6,14.33a5.06,5.06,0,0,0,5.65,2.29c3.66-1.12,5.77-3.89,7-7.36a30.79,30.79,0,0,0,1-3.5c.15-.62.3-1.23.47-1.84.08-.28.21-.59.27-.88-.6,3-5.45,3.46-6.67,1L63,136.84c.11-.67.1-.72,0-.15-.17.38-.28.81-.41,1.2-.27.8-.52,1.6-.74,2.42a42.88,42.88,0,0,0-1,5.16,46,46,0,0,0-.26,11.84c.29,2.5,1.68,4.56,4.33,4.91s4.56-1.23,5.49-3.58c.23-.58.46-1.16.7-1.74l.18-.43c-.17.4-.19.44-.05.12s.25-.58.37-.86c.54-1.22,1.09-2.42,1.67-3.62q1.72-3.59,3.71-7a5,5,0,0,0-8.64-5Z"/><path class="cls-3" d="M97.29,176.57c-.56.08-.46.07.28,0l-.7.07c-.35,0-.7.06-1.05.07-.82,0-1.65,0-2.47,0-.35,0-.7-.06-1-.09-1.12-.08,1,.18-.07,0a15.54,15.54,0,0,1-2-.46,3.09,3.09,0,0,1-.43-.14q-.54-.19.51.24a6.94,6.94,0,0,0-.9-.48c-1-.62.62.67,0,0a2.37,2.37,0,0,1-.27-.28c-.25-.28-.13-.11.38.51,0-.13-.62-1.23-.23-.31s0-.22,0-.37c.09.87.13,1.1.11.7,0-.12,0-.25,0-.37-.15.91-.17,1.11,0,.6s.09-.32-.22.5L83.39,179c.13,0,.77.12.81.23s-1-.51-.55-.23l.38.2c.12.06.23.16.35.22.44.21-.43-.36-.44-.37a4.54,4.54,0,0,0,.8.78s-.61-.88-.35-.44c.07.12.16.24.24.36s.3.49.45.74a20.86,20.86,0,0,0,1.66,2.32,8.11,8.11,0,0,0,4.46,2.66,7,7,0,0,0,7.34-2.89c2.34-3.32.77-8.05-2.22-10.36a15.34,15.34,0,0,0-4.52-2.17c-.2-.07-1.3-.51-.49-.15s-.14-.09-.31-.19-.36-.18-.35-.21.84.74.48.37c-.08-.08-.7-.57-.67-.66s.64.91.37.48c-.09-.15-.2-.3-.29-.45s-.5-.72-.45-.84.39,1.07.24.57c0-.18-.12-.34-.17-.52a8.48,8.48,0,0,1-.26-1,4.72,4.72,0,0,0-.12-.69c.1.26.09,1,0,.29,0-.41,0-.81-.06-1.22,0-.88,0-1.75,0-2.63a5,5,0,0,0-5-5,5.1,5.1,0,0,0-5,5c-.1,3.76.08,7.63,2,11a11.6,11.6,0,0,0,4.24,4.25,19,19,0,0,0,2.79,1.18L90,180l.54.2q-1.05-.47-.54-.21c.13.07.26.13.38.21.47.3.33.19-.41-.35a3.31,3.31,0,0,1,.32.33c-.52-.71-.64-.86-.37-.43.44.79-.43-1.19-.15-.34.11.51.09.29-.08-.68,0,.52,0,.29.12-.7a2.78,2.78,0,0,1,1.39-1.86,3.19,3.19,0,0,1,2.45-.36c-.49-.15-.33-.06.49.25a4.64,4.64,0,0,1-.44-.26c.65.54.8.63.43.28s-.25-.28,0,.07c.54.72-.17-.3-.26-.45-.2-.32-.39-.66-.6-1a13.86,13.86,0,0,0-1.83-2.35,11.83,11.83,0,0,0-5.38-3,5.11,5.11,0,0,0-5.64,2.3,9.3,9.3,0,0,0-.07,8.44,10.08,10.08,0,0,0,4.91,4.75C89.85,187,95,187,100,186.21a5,5,0,0,0,3-2.3,5,5,0,0,0-1.8-6.84,5.81,5.81,0,0,0-3.85-.5Z"/><path class="cls-3" d="M81.93,150.27l-2.15-4.13c-2-3.91-8-2.79-9.14,1.19-.19.68-.44,1.33-.65,2s.39-.83,0,0c-.17.35-.33.69-.51,1-.29.57-.61,1.12-.94,1.66-.21.32-.42.64-.64.95-.08.12-.75,1-.29.42s-.32.36-.34.38l-.64.71c-.48.51-1,1-1.5,1.46l-.73.61c-.46.4.72-.5,0,0s-1.27.85-1.94,1.23l3.86-.5c.53.21.69.22.08,0s.56.57.17.14c-.12-.14-.59-.43-.61-.63,0,.37.48.71.07,0-.11-.18-.27-.81-.13-.2s0-.25-.07-.41c-.23-.77.15.18,0,.29s0-1,0-1.06L56,156.75c.1.34.18.68.27,1,.23.92,0-.87,0,.08a21.19,21.19,0,0,1,0,2.52c0,.18-.05.36-.06.55-.05.57,0-.4,0-.42-.15.2-.13.85-.18,1.1-.14.8-.3,1.6-.45,2.39-.67,3.54-1.33,7.37-.16,10.89,1.34,4,4.51,6.72,7.59,9.45a40.89,40.89,0,0,0,10,6.95,22.53,22.53,0,0,0,14.8,1.77c4.07-1,5-7.15,1.19-9.14A28.19,28.19,0,0,0,78,180.74c-1.62-.12-3.24,0-4.85-.14,1.13.09-.12-.07-.38-.12-.51-.17-.56-.18-.16,0s.35.15-.06-.06c-.76-.56.4.44,0,0q-.39-.41.18.33a3.07,3.07,0,0,1-.27-.46q-.27-.5.18.39l.08.65c-.15.67-.17.83-.09.49s0-.2-.26.54c.39-.74-.63.67-.22.26s-1.08.66-.14.15c.49-.26-1.1.28-.26.14l.43-.1c.38-.08.19,0-.58.07.16.09.73,0,.92,0s1.1-.05.26,0,0,0,.24.09,1.23.37.08,0a9.53,9.53,0,0,1,1.86,1,6.19,6.19,0,0,1,.79.55c-.91-.84,0,.08.17.2.28.26.55.54.8.82s.89,1.14.19.19l5.64-7.35c-1-.14-2-.28-3.06-.5-.47-.11-.92-.27-1.39-.38s-.51-.18.06.06l-.72-.37c-1-.47.46.57-.19-.1a5.44,5.44,0,0,1-.47-.49c.42.57.48.63.17.18-.52-1.11-.2,0-.06,0a5,5,0,0,1-.17-.64c.09.78.12.9.1.35-.14.79-.16.92,0,.37-.31.64-.37.78-.19.45.55-1.05-.62.52.06-.12s1.09-1.05,1.6-1.59a8,8,0,0,0,2.3-7.61,5,5,0,0,0-2.29-3,6,6,0,0,0-3.86-.5c1.15-.16-.32,0-.45,0-.37,0-.74,0-1.12,0a20,20,0,0,1-2.45-.14c.73.09.21,0-.22-.07s-.73-.15-1.09-.25a21.12,21.12,0,0,1-2.55-.84,4.91,4.91,0,0,0-4.86,1.29,5.09,5.09,0,0,0-1.29,4.86,19.47,19.47,0,0,0,2.56,6.56A10.75,10.75,0,0,0,71,180.73a14.51,14.51,0,0,0,6.73-1.38c1-.38,1.89-.79,2.86-1.12.51-.17,1-.3,1.54-.43.9-.24-.74,0-.13,0l.86,0v-10c-1.12,0,1.13-.07.07,0-.4-.13-.39-.13,0,0s.42.16,0,0l-.26-.17c.59.46.69.51.29.15l-.22-.24c-.28-.33-.29-.33,0,0s.26.32,0,0c-.09-.15-.18-.3-.26-.45-.38-.7,0-.34,0,.11a12.21,12.21,0,0,0-.56-1.95c-.25-1.06,0,.85-.06-.34,0-.35-.07-.71-.11-1.06-.07-.77-.14-1.54-.24-2.32a19.73,19.73,0,0,0-1.83-6.5,5,5,0,0,0-6.84-1.79c-5.59,3.52-4.58,10.07-2.37,15.29,1.3,3.08,5.78,3,7.85,1L84,164.11c1.81-1.72,3.84-3.41,5.08-5.62a8.1,8.1,0,0,0-.87-9.52,7,7,0,0,0-8.86-1.48,5,5,0,0,0-2.38,5,4.91,4.91,0,0,0,3.58,4.16c4.28.77,8.34.06,12.5-1l10.8-2.8a53.72,53.72,0,0,0,9.37-3,13.11,13.11,0,0,0,6.87-7.42l-9.83-1.33.16,2.41a5.12,5.12,0,0,0,5,5q10.78.31,21.55-.37c2.6-.17,5.12-2.18,5-5-.12-2.57-2.21-5.18-5-5q-10.77.68-21.55.37l5,5-.16-2.41a5,5,0,0,0-9.82-1.33c.45-1.18.18-.45,0-.16-.49,1,.06-.16.14-.09s-.52.55-.55.58a2.39,2.39,0,0,1-.23.22c-.28.24-.16.15.37-.28,0,.18-1.23.78-1.42.88l-.61.3c-1.06.51,1-.37-.08,0-2.57.89-5.23,1.51-7.86,2.19l-9.36,2.43c-1.55.4-3.1.79-4.68,1.08-.4.07-.61.06-.08,0-.4,0-.79.07-1.18.08s-.79,0-1.18,0c-1.06,0,.6.16-.54-.05l1.19,9.14a3.73,3.73,0,0,1-3.18-.08c.58.3-.12-.08-.28-.24-.41-.58-.51-.7-.32-.38s.11.18-.22-.48l-.12-.71c.11-.66.11-.8,0-.43s-.06.23.15-.35l-.18.31c-.87.84.51-.45,0,0s-1,1.06-1.55,1.57q-3.7,3.51-7.39,7l7.85,1c.56,1.31.15.31,0,0s-.21-.63-.3-.95-.15-.65-.23-1c-.27-1.05,0,1.1,0,0a3.6,3.6,0,0,0,0-.93l-.11.74a3.82,3.82,0,0,1,.14-.56c.09.15-.63,1.13-.1.31.21-.32.09-.16-.35.47-.65.45-.76.54-.31.24L71.1,160c.25.52.25.5,0-.05.09.26.18.52.25.79s.18.81.27,1.22c.26,1.15-.05-.76,0,.33,0,.57.11,1.13.16,1.69a22.74,22.74,0,0,0,1.06,5.8c1.68,4.35,5,7.91,10,8a5,5,0,0,0,5-5,5.11,5.11,0,0,0-5-5A15.84,15.84,0,0,0,76.75,169c-.89.36-1.77.75-2.67,1.09s-1.66.45-2.47.73l.52-.08a4.68,4.68,0,0,1-.65,0c-.55,0-.43,0,.37.06a4.67,4.67,0,0,1-.64-.18c.66.3.75.32.28.07s-.38-.24.21.19c-.16-.15-.32-.31-.46-.47.39.54.48.66.27.35s-.41-.68-.61-1c-.23-.49-.21-.42.07.24-.09-.22-.17-.44-.25-.67-.31-.89-.54-1.8-.77-2.72l-6.15,6.15A25.91,25.91,0,0,0,77,174l-6.15-3.49a3.38,3.38,0,0,1,0-1.58c.05-.14.51-1.07.19-.46s.13-.33.25-.31a3.08,3.08,0,0,0-.42.45A26.84,26.84,0,0,0,68.72,171a9.09,9.09,0,0,0-1.53,8.34c1.8,5.7,7.19,7.88,12.64,8.62,2.07.27,3.9,0,5.26-1.8,1.12-1.45,1.56-4,.39-5.55-2.59-3.52-6.31-6.73-10.76-7.51-4.65-.82-10.58.79-11.79,6a8.74,8.74,0,0,0,2.35,8.2,11.9,11.9,0,0,0,7.6,3.23c1.1.11,2.19.09,3.29.1l1.33,0c.22,0,2,.27.9.07a22.9,22.9,0,0,1,3,.72c.57.18,1.13.38,1.68.61-1-.42.67.36.83.45l1.2-9.14c-.26.06-2,.28-.79.19a16.29,16.29,0,0,1-1.71.06c-.15,0-1.7-.13-1,0s-.89-.18-1-.21c-.56-.13-1.12-.29-1.67-.47-.2-.07-1.87-.75-.84-.29a26.12,26.12,0,0,1-2.72-1.43c-.89-.54-1.74-1.14-2.59-1.75-.45-.35-.47-.36,0,0l-.69-.56-1.37-1.16c-1.59-1.39-3.21-2.79-4.68-4.32-.2-.21-1-1.35-.4-.42-.15-.22-.28-.44-.4-.66-.25-.5-.22-.42.07.24-.19-.12-.29-.92-.34-1.14-.29-1.27,0,.83,0-.19,0-.73-.27-2.15.1-2.81l-.08.61c0-.24.07-.48.11-.72.08-.49.17-1,.26-1.46.8-4.22,1.72-8.52.43-12.75a5,5,0,0,0-5.49-3.58c-2.62.35-4.07,2.39-4.33,4.91a11.3,11.3,0,0,0,3.46,9,9.19,9.19,0,0,0,5.62,2.77c2,.09,4-1.58,5.57-2.76A27.84,27.84,0,0,0,80.29,150l-9.14,1.2,2.15,4.12a5,5,0,0,0,6.84,1.8,5.11,5.11,0,0,0,1.79-6.84Z"/><path class="cls-3" d="M77.35,154.59a5,5,0,1,0-5-5,5.06,5.06,0,0,0,5,5Z"/><path class="cls-3" d="M79.21,153.47a5,5,0,1,0-5-5,5.05,5.05,0,0,0,5,5Z"/><path class="cls-3" d="M71.76,190.75a5,5,0,1,0-5-5,5.06,5.06,0,0,0,5,5Z"/><path class="cls-3" d="M136.86,146.82a21,21,0,0,1,1.79,3c0,.1.42.91.18.34s.09.25.12.36c.19.51.35,1,.49,1.56.06.26.13.52.18.79s.08.39.11.59l-.07-.53c.21.25.09,1.27.08,1.59s0,.53,0,.8c0,.83.1-.09,0-.15.16.15-.41,1.57-.45,1.73-.14.64.37-.64,0,0-.14.25-.26.51-.4.76-.28.51-.58,1-.9,1.48-.73,1.14-1.5,2.25-2.25,3.38l-4.69,7c-1.77,2.64,0,6.62,3,7.34a25.8,25.8,0,0,1,3,.89,4.9,4.9,0,0,0,.85.33c-.18,0-.86-.4-.19-.07.44.21.88.41,1.31.64a27.41,27.41,0,0,1,2.65,1.6l.74.53c.68.48-.16-.09-.14-.12l1.25,1.06a26.62,26.62,0,0,1,2.18,2.2c.09.09.92,1.13.94,1.12s-.6-.82-.12-.14c.18.24.35.49.52.74a26.32,26.32,0,0,1,1.59,2.66,6.66,6.66,0,0,0,.63,1.31l-.15-.36c0,.12.09.23.14.34.11.29.21.57.31.86A5.09,5.09,0,0,0,153.7,194a4.92,4.92,0,0,0,5-2.39l1.1-2.27a5.15,5.15,0,0,0-.79-6.06,5.25,5.25,0,0,0-6.06-.79l-2,.95c-2.24,1.06-2.94,4.12-2,6.24s3.57,3.82,5.9,2.89a13,13,0,0,0,6-4.73,23.85,23.85,0,0,0,2.67-5.55c1.7-4.45,3.36-8.92,4.76-13.47,1.49-4.82,2.41-10,1.11-15a23.42,23.42,0,0,0-7.12-11c-3.74-3.44-8-6.36-12-9.43-1.91-1.45-4.44-.48-6.06.78L140,137.43c-2.08,1.61-1.82,5.4,0,7.07,2.2,2,4.85,1.72,7.07,0l4.17-3.23-6.06.78,5,3.79,2.09,1.58c-.69-.53-.09-.06.23.19l1.08.88a34.21,34.21,0,0,1,3.7,3.52c.12.14.88,1,.48.54s.3.42.41.57a20.45,20.45,0,0,1,1.31,2.33c.27.53-.15-.32-.14-.32a2.52,2.52,0,0,1,.2.55c.13.41.24.81.33,1.23.06.23.09.45.14.68,0-.1-.05-.78,0-.2s.07,1.07.07,1.61,0,1.07-.08,1.61c0,.23,0,.46-.07.69,0-.1.14-.75,0-.18-.24,1-.4,2-.66,3-1.06,4-2.52,7.86-3.94,11.72L154,179.27l-.46,1.17c-.2.54.14-.35.15-.35a3.12,3.12,0,0,0-.3.66c-.19.38-.38.75-.6,1.12l-.28.45c-.56,1,.47-.46,0,0-.15.15-.81.67-.85.85,0-.09.79-.49.33-.28-.27.12-1,.49.11,0L156,192l2-.94-6.84-6.84-1.1,2.28,9.14,1.19a32.11,32.11,0,0,0-22.45-20.57l3,7.35,5.11-7.61c1.71-2.57,3.54-5.09,4.35-8.12,1.56-5.83-.26-12.18-3.67-17-1.51-2.13-4.44-3.34-6.84-1.79-2.12,1.36-3.41,4.56-1.8,6.84Z"/><path class="cls-3" d="M152.48,146.61a12.83,12.83,0,0,0-3.31-7.85,5,5,0,0,0-5.46-1,5.13,5.13,0,0,0-3.08,4.57,8.65,8.65,0,0,0,2.84,6.69,27.44,27.44,0,0,0,2.65,2.16L146,151l.6.51c.29.26.58.53.85.81s.71.77,1.05,1.16c.74.85-.38-.63.17.24s1,1.53,1.42,2.35c.1.21.89,1.76.32.6a8.68,8.68,0,0,1,.41,1.11,21.21,21.21,0,0,1,.81,3c0,.2.3,1.82.17.77.06.55.11,1.1.14,1.65a28.28,28.28,0,0,1,0,3.32c0,.55-.06,1.1-.12,1.66,0,.31-.07.63-.11.94.07-.47.07-.52,0-.15a19.44,19.44,0,0,0-.61,2.88c-.13.36-.06.22.19-.41a5.3,5.3,0,0,1-.33.57q.72-.85.18-.3a2.76,2.76,0,0,1,1.86-.91,2.8,2.8,0,0,1,1.93.29q.77.58.15,0c-.34-.42-.79-.79-1.17-1.18l-2.35-2.34-1.17-1.18-.67-.67c-.49-.52-.45-.44.14.24l.68,2.53-.11.81-1.28,2.21c.5-.6-.57.21-.17.14a3.72,3.72,0,0,0,.86-.4,12.16,12.16,0,0,0,1.69-1,18.22,18.22,0,0,0,4.08-4,6.2,6.2,0,0,0,.94-6.29,28.35,28.35,0,0,0-3-4.63c-1.47-2.16-4.46-3.33-6.84-1.8-2.15,1.39-3.37,4.53-1.79,6.84l1.4,2.07.57.82.42.62c.41.66.32.21-.27-1.34l.68-2.52c-.16.37-.92,1.17-.22.48-.38.37-.73.77-1.11,1.14-.06.06-.57.52-.11.12s-.16.1-.29.19a12,12,0,0,1-1.56.88c-3.83,1.82-5.19,6.24-2.21,9.57,1.65,1.84,3.52,3.54,5.27,5.3a10.59,10.59,0,0,0,3.9,2.72,6.79,6.79,0,0,0,5.33-.52c2.42-1.29,3.79-4,4.32-6.63a41.48,41.48,0,0,0,.91-8.17,29.64,29.64,0,0,0-3.64-14.72,23.26,23.26,0,0,0-5-6.15c-.61-.52-1.27-1-1.9-1.48,1,.82-.24-.2-.51-.45l-.51-.48c-.49-.51-.28-.35,0,.09-.47-.66,0,.19.09.34-.32-.87,0,1.09.08.07l-8.53,3.53c.39.44.11.26,0-.07.05.12.6,1.11.3.46s0,.21.08.34c.08.3.14,1.18,0,.05.22,2.6,2.15,5.13,5,5,2.53-.12,5.23-2.21,5-5Z"/><path class="cls-3" d="M72.5,190.37a5,5,0,1,0-5-5,5.05,5.05,0,0,0,5,5Z"/><path class="cls-3" d="M28,82.61c6,6.36,12.14,12.66,18.12,19.08.66.7,1.32,1.42,1.94,2.16.29.34.58.68.85,1-.65-.83.44.63.54.78,1.14,1.69,2.1,3.45,3.37,5a17.6,17.6,0,0,0,4.22,3.61l1,.65c1,.7-.5-.56.16.11l.66.68c-.45-.62-.54-.7-.26-.25-.27-.73-.33-.84-.16-.32a5,5,0,0,0,9.64-2.66,10.84,10.84,0,0,0-4.32-5.71c-.63-.47-1.29-.89-1.94-1.32-.13-.09-1.2-.93-.58-.39s-.47-.46-.57-.57c-.33-.34-.67-.89-.21-.2-.29-.44-.58-.87-.86-1.32-.5-.8-1-1.61-1.49-2.39a47.07,47.07,0,0,0-4.29-5.36c-6.11-6.69-12.49-13.16-18.73-19.73A5,5,0,0,0,28,82.61Z"/><path class="cls-4" d="M143.21,44.05v6.53a2.5,2.5,0,1,0,5,0V44.05a2.5,2.5,0,1,0-5,0Z"/><path class="cls-4" d="M142.81,47.8a9,9,0,0,1-1.65,5.3c-1.18,1.64-3,2.75-4.22,4.33a67.14,67.14,0,0,0-6.83,11.21,102.47,102.47,0,0,0-9,25c-.69,3.14,4.13,4.48,4.82,1.33A97.86,97.86,0,0,1,135,70c1-2,2.15-3.89,3.32-5.77a22.84,22.84,0,0,1,3.69-4.93,18,18,0,0,0,4.16-4.88,14.32,14.32,0,0,0,1.6-6.6c0-3.22-5-3.22-5,0Z"/><path class="cls-4" d="M133.1,68.42a5,5,0,0,1,0-1l-.09.67a7,7,0,0,1,.23-1c.05-.15.11-.3.17-.45s0-.11-.1.22a1.47,1.47,0,0,1,.1-.22c.28-.64.61-1.26.92-1.89l2-3.9A2.5,2.5,0,0,0,132,58.36L129.68,63c-.84,1.69-1.73,3.5-1.58,5.45a2.55,2.55,0,0,0,2.5,2.5,2.52,2.52,0,0,0,2.5-2.5Z"/><path class="cls-4" d="M134.4,61.12c3.22,0,3.23-5,0-5s-3.22,5,0,5Z"/><path class="cls-4" d="M136.65,58.28l2.82-5.61c.43-.86.86-1.73,1.3-2.59.17-.33.42-.68.56-1,.35-.87.92.38-.8-.4l-1.15-2.82a35.77,35.77,0,0,1-4.58,9.22l4.66,1.26a5.48,5.48,0,0,1,.73-1.57l1-2,2.09-4.16,2.09-4.17a34,34,0,0,1,2-4c.71-1,1.71-1.93,2.48-2.94s1.61-2.25,2.37-3.41l5.11-7.79L153,23.77q-4.11,9.57-8.53,19a2.57,2.57,0,0,0,.89,3.42,2.52,2.52,0,0,0,3.42-.9q4.43-9.42,8.54-19a2.58,2.58,0,0,0-.9-3.42,2.55,2.55,0,0,0-3.42.89l-5.24,8a34.89,34.89,0,0,1-2.39,3.38,20,20,0,0,0-2.75,3.52c-1.48,2.8-2.84,5.67-4.26,8.5l-2.2,4.39a13.23,13.23,0,0,0-1.74,4.75c-.24,2.68,3.39,3.11,4.66,1.27a40.27,40.27,0,0,0,5.08-10.42,2.51,2.51,0,0,0-1.15-2.83c-3-1.34-5.28.63-6.6,3.23s-2.74,5.46-4.12,8.2,2.87,5.4,4.32,2.52Z"/><path class="cls-5" d="M126.36,187.63h1.25a1.8,1.8,0,0,0,1-.21,1.82,1.82,0,0,0,.8-.52,1.85,1.85,0,0,0,.52-.8,1.89,1.89,0,0,0,.21-1l-.09-.66a2.5,2.5,0,0,0-.64-1.1l-.51-.39a2.54,2.54,0,0,0-1.26-.35h-1.25a2.83,2.83,0,0,0-1.77.74,1.83,1.83,0,0,0-.51.8,1.88,1.88,0,0,0-.22,1l.09.67a2.5,2.5,0,0,0,.64,1.1l.51.39a2.43,2.43,0,0,0,1.26.34Z"/><path class="cls-5" d="M124.41,183.61c-3.89,0-7.78,0-11.67,0a2.52,2.52,0,0,0-2.41,3.16l.23.69a2.5,2.5,0,0,0,4.82-1.33l-.22-.68-2.42,3.16c3.89,0,7.78,0,11.67,0a2.52,2.52,0,0,0,2.5-2.5,2.55,2.55,0,0,0-2.5-2.5Z"/><path class="cls-5" d="M119.53,182.31c-8.62.64-18.36,3.68-21.75,12.54-1.79,4.69,2,9.34,4.87,12.68a6.91,6.91,0,0,1,1.3,1.78c.53,1.28.62,2.37,1.86,3.24a12.31,12.31,0,0,0,6.77,1.87c3.21,0,3.22-5,0-5a9.47,9.47,0,0,1-2.48-.36,10.37,10.37,0,0,1-1-.36l-.5-.26c.37.44.45.41.26-.09-.09-1.58-1.72-3.24-2.69-4.35a24.14,24.14,0,0,1-3-4.28,5.58,5.58,0,0,1-.91-2.11,3.81,3.81,0,0,1,.59-1.86c3.11-6.12,10.4-8,16.71-8.44a2.56,2.56,0,0,0,2.5-2.5,2.51,2.51,0,0,0-2.5-2.5Z"/><path class="cls-5" d="M112.57,208.91c.52-2.54-.09-5.41-2.66-6.58a8.24,8.24,0,0,0-1.07-.43c-.44-.15.08.12-.34-.14s-.1-.16,0,.05c0-.07-.35-.69-.2-.32a20.1,20.1,0,0,1-.86-3.5l-3.08,3.07c-.54-.37-.65-.41-.34-.12a.41.41,0,0,1-.18-.28c.09.36.07,0,.1.46,0,.67,0,1.35,0,2a37.37,37.37,0,0,0,.69,4.59l4.82-1.32a11.05,11.05,0,0,1,0-7.25c.78-2.54,1.93-4.94,2.54-7.53a2.53,2.53,0,0,0-3.67-2.82,10.87,10.87,0,0,0-2.25,1.4,2.92,2.92,0,0,0-.52,3.54,2.52,2.52,0,0,0,3.42.9,2.56,2.56,0,0,0,.89-3.42l-.07-.17.25,1.93.07-.18-.65,1.1c-.27.14-.24.12.08,0l.39-.22.91-.52-3.67-2.82c-.66,2.78-1.95,5.36-2.71,8.11a15.75,15.75,0,0,0,.16,9.32,2.5,2.5,0,0,0,4.82-1.32,30.37,30.37,0,0,1-.54-5.13,5.19,5.19,0,0,0-3.26-5c-1.9-.77-3.44,1.42-3.08,3.08.51,2.33.89,5,3,6.47a6.79,6.79,0,0,0,1.47.75c.24.09.49.16.72.26-.39-.16.42.13,0,0,.41.15-.17.15,0-.07,0-.17,0-.13,0,.12l.06.22c-.11-.48,0,.18,0,.27,0,.53.08-.28,0,.27a2.57,2.57,0,0,0,1.75,3.08,2.52,2.52,0,0,0,3.07-1.75Z"/><path class="cls-5" d="M110.64,192.44a58.3,58.3,0,0,0,10.93-1.32c3.07-.68,6.36-2.06,9.55-1.61a5.64,5.64,0,0,1,4.84,4.83,37.82,37.82,0,0,1-.33,10.83,2.57,2.57,0,0,0,1.75,3.08,3.14,3.14,0,0,0,3.5-1.41c.5-.77.63-1.65,1.31-2.31,1.35-1.3,3.25-1.62,4.4-3.23,1.44-2,.72-4.17.06-6.29l-1.16-3.73a17.43,17.43,0,0,0-1.24-3.51c-1.16-2-3.94-3.31-6-4.22a26.4,26.4,0,0,0-6.13-1.9,49.22,49.22,0,0,0-13.66-.19,2.5,2.5,0,0,0,0,5,50.2,50.2,0,0,0,9.17-.29c2.62-.33,5.53-1.23,8.15-.54,2.32.61,3,2.79,4.32,4.55a16,16,0,0,0,3.17,3c.6.48,1.37,1,1,1.76a2.53,2.53,0,0,0,1.75,3.08,2.56,2.56,0,0,0,3.07-1.75,5.27,5.27,0,0,0-.59-4.71,15.17,15.17,0,0,0-3.42-3.22,16.14,16.14,0,0,1-2.5-3.46,9.6,9.6,0,0,0-3.44-3.26c-3.11-1.61-6.56-1.23-9.89-.7a50.37,50.37,0,0,1-10.83.55v5c7-.72,14.24-.81,20.35,3.09.6.39,1,.56,1.26,1.2.4,1,.63,2,.94,3l.94,3c.14.43.3.87.41,1.31s.05.59.21.19c-.17.44-.19.24-.07.16-.32.2-.62.4-.94.58a16.93,16.93,0,0,0-1.84,1.07,8.61,8.61,0,0,0-2,2,9.84,9.84,0,0,0-.61,1c-.14.31-.28.63-.41,1-.25.57-.15.49.3-.25l1.92-.26-.24,0,1.74,3.07a44.62,44.62,0,0,0,.36-13.25,10.48,10.48,0,0,0-6.37-8c-3.75-1.53-7.78-.6-11.54.37a55.33,55.33,0,0,1-12.26,1.79c-3.22.09-3.23,5.09,0,5Z"/><path class="cls-5" d="M132.69,195.11a110,110,0,0,0-10.85-3c-2-.47-4-.84-5.9.12a4.59,4.59,0,0,0-2,2,9.13,9.13,0,0,0-.49,1.26s-.24.59-.1.35.33-.39,0-.12a2.47,2.47,0,0,0-.52,2.73,2.5,2.5,0,0,0,2.29,1.53c3.06,0,6,.79,9,.85a37.27,37.27,0,0,0,4.6-.3c1.52-.16,3.59,0,4.82-1,1.75-1.35,1.24-3.79-.28-5.07a12,12,0,0,0-3.8-2.14,19.75,19.75,0,0,0-7.72-.81,2.56,2.56,0,0,0-2.5,2.5,2.51,2.51,0,0,0,2.5,2.5,26.19,26.19,0,0,1,2.66,0c.4,0,.8,0,1.2.08l.25,0,.65.11c.38.08.77.18,1.14.29.21.06.41.14.61.21s-.12-.08.24.1a12.33,12.33,0,0,1,1.12.63c.08,0,.34.18.12.07.19.21.25.24.16.1a2,2,0,0,1-.24-.69l.34-1.26-.12.17.89-.9c.56-.15.61-.19.14-.12l-.46,0-.94.1-2.08.21a25.64,25.64,0,0,1-4.11.13c-2.74-.16-5.44-.82-8.23-.81l1.76,4.27a4.44,4.44,0,0,0,1.34-2.21c0-.15.09-.3.14-.45s.1-.29,0,0c-.24.19-.29.16,0,.07-.22.09-.19.08.1,0-.28,0-.24,0,.13,0a3.6,3.6,0,0,1,.86.09c.77.2,1.56.37,2.34.55a96.35,96.35,0,0,1,9.58,2.65,2.5,2.5,0,0,0,1.33-4.82Z"/><path class="cls-5" d="M123.3,204.9a46.82,46.82,0,0,1-6.27-.21,2.5,2.5,0,0,0-1.77,4.26,2.82,2.82,0,0,0,1.77.74,46.82,46.82,0,0,0,6.27.21,2.63,2.63,0,0,0,1.76-.74,2.49,2.49,0,0,0,.74-1.76,2.53,2.53,0,0,0-2.5-2.5Z"/><path class="cls-5" d="M121.21,205.07l3.61,0a2.53,2.53,0,0,0,2.41-3.16l-.47-2.12-3.08,3.08a11.08,11.08,0,0,0,5.08.43,10.4,10.4,0,0,0,2.05-.5,5.34,5.34,0,0,0,1.36-.59c.27-.23,0,0-.1,0l-.9-.9c.83-1.05,1-1.58.37-1.56h-.15a3.46,3.46,0,0,0-1.11,0l-2.69,0-5.38,0c-3.59,0-7.17,0-10.76,0a2.54,2.54,0,0,0-2.41,1.84,3.62,3.62,0,0,0,.08,2.41l1.14-2.82q-2.54,1.95-5.25,3.65l3.77,2.16v-.26l-.34,1.26a1.81,1.81,0,0,1-.71.58h.3a5.32,5.32,0,0,0,1.71.18l2.93.31,6.11.65a44.72,44.72,0,0,1,5.43.66c1.94.45,3.65,1.32,5.68,1.4a2.52,2.52,0,0,0,2.41-3.17,5.52,5.52,0,0,0-3-3.27c-1.22-.55-2.67-.63-3.75-1.43-1.6-1.17-3.74.42-3.77,2.16v.78c0,3.22,5,3.22,5,0v-.78L123,208.23a8.93,8.93,0,0,0,3,1.26,5.89,5.89,0,0,1,1.09.31c.35.17.58.63.4.14l2.41-3.16a11.23,11.23,0,0,1-3.08-.86,18.19,18.19,0,0,0-3.26-.69c-2.48-.32-5-.53-7.46-.8l-7.33-.77c-2.42-.25-4.79.58-5,3.33a2.51,2.51,0,0,0,3.76,2.16,63.16,63.16,0,0,0,5.25-3.66c.79-.61,1.6-1.73,1.15-2.82l-.08.25-2.41,1.83c3.51,0,7,0,10.52,0l5.13,0a36.58,36.58,0,0,0,5.34-.19,4.22,4.22,0,0,0,3.51-2.89,3.51,3.51,0,0,0-2.22-4.28c-1.75-.64-3,.17-4.65.71A6.31,6.31,0,0,1,125,198c-1.9-.63-3.46,1.31-3.07,3.07l.47,2.12,2.41-3.17-3.61,0c-3.22,0-3.23,5,0,5Z"/><path class="cls-5" d="M115.15,212.08c.58.16,1.15.34,1.72.55l.39.16c.36.13-.34-.17,0,0l.77.37c1.08.54,2,1.25,3.08,1.85a7.72,7.72,0,0,0,7.94-.08,2.55,2.55,0,0,0,.89-3.42c-.88-1.69-2.7-2.21-4.45-2.42s-3.31-.34-5-.51a2.52,2.52,0,0,0-2.5,2.5,2.57,2.57,0,0,0,2.5,2.5l4.13.42.47,0c.08,0,.52.07.1,0s.1,0,.15,0l.31.07a1.62,1.62,0,0,0,.3.09c0,.06-.49-.28-.17-.06s-.32-.28-.1-.08-.32-.51-.09-.08l.89-3.42a2.53,2.53,0,0,1-.66.37c.64-.18-.19,0-.31.06l-.37.07q.52-.06.09,0h-.57c-.29,0-.26,0,.09,0l-.37-.08c-.13,0-.83-.35-.33-.09a14.09,14.09,0,0,1-1.35-.8,21.53,21.53,0,0,0-6.26-2.86,2.5,2.5,0,0,0-1.32,4.82Z"/></g><path d="M172.35,152.79c-2.46-9.08-14.24-19.81-23-22.81.93-1.82,2.27-3.72,2.15-5.84l-.14.1c-.25-3.81-.49-7.53-.73-11.26l.29-.15a6.88,6.88,0,0,1-.27-2l-.07,0c-.9-6.88-6.82-11.2-12-14.81,3.89-10.34,6-21.18,11.68-30.62a83.35,83.35,0,0,0,8.22-14.52c5.17-13.64,32.44-49,3.35-50.9-31,7.31-58.91,65.6-54.48,95.36-6.34-5.74-3.57-5.81-12.08-4.09C88.6,90,84,96.64,78.66,98.73,72.9,85.15,38.87,27.33,21.77,41.29,17.9,48.94,9.88,53.65,7.56,62.2c-4.59,14-10.71,28-5.66,42.88.68,3.64,1.22,7.76,5.55,8.82,8.21,5.75,1-12.37,18.66-31C37,94,47.19,105.53,57.26,117.44c2.21,2.94,4.31,5.55,8.41,5.21-.72,2.5-5.66,6.25-8.28,7.61C45.65,137,43.3,151.55,42.87,164c-2.42,29.84,26.05,41.87,51.69,40.78,2.25-.2,3.08,2.07,4.29,3.51,2.65,4.59,10.47,8.87,7.42.23l2.49-1.07c-.34-.56-.59-1-.83-1.41l0,0c-5.83-9.86.85-10-1.75-14.89-6.8-2.74-7.27,7.06-5.52,11.31-14.17-14.54,33.13-28.2,40-17.85-1.5,3.19-2,16.85,1.48,18,3-2.45,2.89-6.32,3.81-9.77,3.55,6.49-4.54,12-9.2,15.24-1.59-5.74,3.11-9.69-.26-15.41-2.24-7.09-10.86-4.43-16.51-4.89-4.14-1.55-5.7,1.56-9.08,2-2.34,4.77-4.71,12.56.81,15.41.16,2.59-1.68,5.23.71,7.33,5.66,12,20.41,13,24.21-1.13,6,1.74,8.37-5.4,12.22-8.25,6.15-4.58,13.15-8.85,17.75-15.08,8.82-10.25,1.27-10.88,4.92-14.9C176.33,168,174.8,159.14,172.35,152.79ZM107.87,206c-1.25,1-1.26,1-3.06.05C105.82,204.34,106.85,205.47,107.87,206Zm25.59-7.43c0,.55-.06,1.11-.1,2-1.71-1.41-3.3-2.69-5.52-2.7l3.15,2.47c-2,1-6.72-.8-4.9,3.1,1.33,2.65,6,3.11,4.16,6.72-.76,2.19-4.11,5-6.1,5.07-11.57-1.32-9.07-13.63,1.18-14.89l0-.45a9.46,9.46,0,0,0-3.56.13c-2.72-3.39-3.5-3.37-8.21.22-1.51-3.76,1-6,4.39-6.8,3.13-.26,7.45-3.24,10-.51C131.08,195.46,134.47,191.22,133.46,198.61Zm10-89.72c4.55,13.45-1.7,27.35-17.06,27.78-3-.48-2.48-3.74-6.85-1.89-.7-1.26-1.23-2.23-1.8-3.24,6-8.31-5.85-18.77-.39-26.53C123.27,96.74,141.4,97.81,143.42,108.89Zm-2.21-38.47c-2.54,6.69-4.16,13.72-7.42,20.14-.83,1.64-1.32,3.11.3,4.71l-4.45-1.33c4-8,5.09-18.1,11.58-24.46A3.56,3.56,0,0,1,141.21,70.42Zm-.68-13c-2.78,8.18-9.7,14.45-11.67,23.2-1.36,5.19-4.52,7.18-3,13.64-1.34,1.37-2.64.77-4.09.32,7.37-24.8,15-52.4,34.71-70.31C152.12,35.82,147.65,47.41,140.53,57.43Zm4.19,4.9,11.95-22.69C156.27,44,148.1,59.49,144.72,62.33ZM113,95.25C107.89,68.5,127.41,39.47,142.93,19c6.28-6.54,12.75-13,22-14.07,12,1.48-4.21,26.93-6.92,32.87.2-6.93,9.51-17.43.59-22.13-4.54-1.5-18.3,18.11-21.16,22.54C127.33,56.8,119.1,77,115.37,97.89c-1.14,0-1.76,2.6-4.13,1.12C112.72,98,113.45,97.06,113,95.25ZM77.26,106.51c9.59-7.71,26.29-17.08,32.39-.59,3.61,12.81,8.5,28.18-7.43,34.32-10.43,6.34-25.49,2.43-29-9.94C68.87,122.47,69.7,112.15,77.26,106.51ZM25.6,73.79c-3.23,6-9.07,10.3-11.9,16.27-3,5.3-4.17,11.06-6.24,16.7C1.26,85,12.55,60.78,26.63,44.4c7.53-.6,12.17,6.26,17.21,10.77,14.1,12.9,21.89,30.25,32.46,46.17l-4.36,1.57C63.19,94.38,52,69,40.92,68,39.49,55.75,29.59,70.68,25.6,73.79ZM64.75,118C52.53,105.71,43.16,89.65,28.62,79.8l2.23-3.1c12.47,11.42,23.4,24,34.7,36.6C65.3,114.78,65,116.31,64.75,118ZM33.88,73.84,37,71.23c12,3.39,22,27.14,32.26,35.71L67,109.69A142.57,142.57,0,0,0,33.88,73.84Zm93.88,96.58c-4.79,6.41-12.11,9-19.92,9.41-.62-2-2.2-3.09-4.21-3.83-3.86-5.3-18.3-6.56-12.54-15.64,9.31-9.36,26.93-5.18,39-10.75,1.84.86,5.1,1.81,6.36,3.58C134.9,159.83,132.56,165.58,127.76,170.42Zm38.11-.22c-5.94,11.21-1.18,14.87-14,22.84-1.29-11.22-11.5-15.6-21-18.59l7-10-.06.06c5.81-11.66,4.07-16.64-8.82-19.69-4.79.46-9.66,2.93-14.6,2.69-6,2.61-13.22-1.41-19.24,2.71-18.75,13.13-5.17,22.43,8.13,32.12l-6.92,4.5c-1.42,4.21-3.61,7.43-3,12.25-2.93-.5-6.1,1-9.1-.79-14.1-.76-31.65-6.49-35.48-21.88-1.51-15-1.8-34.43,13.63-42.36,2-1.3,5.42-5.29,6.57-1,7.33,19.67,35.29,20.22,46.46,4,3.12.59,1.23,5.21,6.21,4.47,9.09.92,18.4.3,24.33-7.78C159.39,139,174,155.27,165.87,170.2Z"/><path d="M182.25,227.34l.95.19-.07.35-.95-.25Z"/><path class="cls-3" d="M26.63,44.4c7.53-.6,12.17,6.26,17.21,10.77,14.1,12.9,21.89,30.25,32.46,46.17l-4.36,1.57C63.19,94.38,52,69,40.92,68c-1.14-16.79-24.55,18.07-27.22,22-3,5.3-4.17,11.06-6.24,16.7C1.26,85,12.55,60.78,26.63,44.4Z"/><path class="cls-6" d="M130.13,149.61c1.84.86,5.1,1.81,6.36,3.58-2.87,14-13.7,26.59-28.65,26.64-.62-2-2.2-3.09-4.21-3.83-3.86-5.3-18.3-6.56-12.54-15.64C100.4,151,118,155.18,130.13,149.61Z"/><path class="cls-4" d="M33.88,73.84,37,71.23c12,3.39,22,27.14,32.26,35.71L67,109.69A142.57,142.57,0,0,0,33.88,73.84Z"/><path class="cls-1" d="M107.9,206c-1.28,1.06-1.28,1.06-3.09.07C105.79,204.17,107.17,205.78,107.9,206Z"/><path d="M105.12,120.54c-1.15,11.19-14.35,11.81-16.29.36C87.63,112.35,105.42,111.85,105.12,120.54Z"/><path d="M130.43,112.87c11.65-.59,9.1,17.34-1.14,16.17C117.51,127.11,120.12,113.51,130.43,112.87Zm-.05,6.2c-1.44-.22-2.41,1.84-.79,2.18C130.79,121,130.82,120.13,130.38,119.07Z"/><path d="M117.67,195.91c1.07.24,1,.66-.09.41Z"/><path class="cls-1" d="M130.38,119.07c.44,1.06.41,1.89-.79,2.18C128,120.91,128.94,118.85,130.38,119.07Z"/></g></g></svg>