<svg xmlns="http://www.w3.org/2000/svg" viewBox="0 0 163.06 237.26"><defs><style>.cls-1{fill:#706f6f;}.cls-2{fill:#fff;}.cls-3{fill:#575756;}.cls-4{fill:#b2b2b2;}.cls-5{fill:#c6c6c6;}.cls-6{fill:#7d4e24;}</style></defs><g id="Calque_2" data-name="Calque 2"><g id="Calque_1-2" data-name="Calque 1"><g id="Calque_5" data-name="Calque 5"><path class="cls-1" d="M94.49,169.85c3.22,0,3.22-5,0-5s-3.22,5,0,5Z"/><path class="cls-1" d="M100.94,167.5a12.94,12.94,0,0,0,8.84-3.66,12.51,12.51,0,0,0,0-17.68,12.51,12.51,0,0,0-17.68,0,12.51,12.51,0,0,0,0,17.68,13,13,0,0,0,8.84,3.66Z"/><path class="cls-1" d="M100,156.78c-2.13,3.18-4.14,6.48-6.43,9.54l1.18-1.51a11.66,11.66,0,0,1-1.93,2l12.54,3.31a4.2,4.2,0,0,1-.17-.7l.27,2c-.09-.84,0-1.68-.09-2.52a11.08,11.08,0,0,0-1.44-5.21,10,10,0,0,0-3.66-3.64,9.71,9.71,0,0,0-6.78-.84,7.07,7.07,0,0,0-3.9,2.69A7.92,7.92,0,0,0,88,166.42a17.74,17.74,0,0,0,.54,4.28l-.27-2a5.22,5.22,0,0,1,0,1l.27-2a2.88,2.88,0,0,1-.17.64l.75-1.79a6.42,6.42,0,0,1-.53.86l1.17-1.52a77.36,77.36,0,0,1-9.45,10c-2.93,2.63-2.87,8,0,10.61a7.68,7.68,0,0,0,10.61,0,82.75,82.75,0,0,0,7-7.11,38.81,38.81,0,0,0,4-5,10,10,0,0,0,1.37-5,27.64,27.64,0,0,0-.57-4l.27,2a5.33,5.33,0,0,1,0-1l-5.5,7.24.26-.06-2,.27H96l-2-.27a1.38,1.38,0,0,1,.49.14L92.74,173l.22.13-1.51-1.17a3.18,3.18,0,0,1,.58.58L90.86,171a3.1,3.1,0,0,1,.29.5l-.76-1.8a4.07,4.07,0,0,1,.25.82l-.27-2c.21,1.88,0,3.7.56,5.56a7.61,7.61,0,0,0,5.24,5.24,7.5,7.5,0,0,0,7.3-1.93c2.19-1.72,3.67-4.28,5.2-6.57l4.32-6.47A7.5,7.5,0,0,0,100,156.78Z"/><path class="cls-1" d="M88.45,172.46c-1.47,1.42-3,2.81-4.4,4.27a24.57,24.57,0,0,0-1.8,2,22.28,22.28,0,0,0-2.62,3.77,5.5,5.5,0,0,0-.89,2.78,5.63,5.63,0,0,0,.13,3,8.31,8.31,0,0,0,3.45,4.49,7.51,7.51,0,0,0,10.26-2.69A13.5,13.5,0,0,1,93.89,188l-1.17,1.51a31.17,31.17,0,0,1,2.87-3.1l3.46-3.35a5.54,5.54,0,0,0,1.55-2.41,7.7,7.7,0,0,0-1.55-8.19,7.55,7.55,0,0,0-5.3-2.2l-2,.27a7.46,7.46,0,0,0-3.3,1.93Z"/><path class="cls-1" d="M63.43,221.31a9.84,9.84,0,0,0-.18,3.57c.09.65.21,1.26.33,1.9l-.27-2v.29l.26-2-.08.28.76-1.8-.2.27,1.17-1.52-.26.21,1.52-1.17a10.94,10.94,0,0,1-1.66,1l1.79-.76a10.51,10.51,0,0,1-2.21.62l2-.27c-1.08.13-2.16.07-3.25.14a21.22,21.22,0,0,0-4.61.81,44.79,44.79,0,0,1-6.46,1.49l2-.27a12.32,12.32,0,0,1-2.71.19l2,.27a2.69,2.69,0,0,1-.68-.16l1.79.75a3.28,3.28,0,0,1-.76-.46l1.52,1.18a3.42,3.42,0,0,1-.42-.43L56,224.92a8.28,8.28,0,0,1-.92-1.61l.76,1.79c-.08-.19-.16-.38-.23-.57a8.2,8.2,0,0,0-3.45-4.48,7.68,7.68,0,0,0-5.78-.76,7.6,7.6,0,0,0-4.48,3.45c-.88,1.67-1.49,3.94-.76,5.78a15.61,15.61,0,0,0,3.49,5.91A10.45,10.45,0,0,0,53,237.2a53.28,53.28,0,0,0,6.65-1.09c1.7-.41,3.35-1.06,5.08-1.31l-2,.27c1.15-.11,2.31,0,3.46-.16a17.79,17.79,0,0,0,6.18-1.66A11,11,0,0,0,77,229.4c1.54-2.35,1.39-4.9.84-7.51l.27,2,0-.29-.27,2,.06-.28a8,8,0,0,0-.76-5.78,7.63,7.63,0,0,0-4.48-3.45c-3.71-.85-8.42,1.12-9.22,5.24Z"/><path class="cls-1" d="M59.3,224a14.78,14.78,0,0,0-.41-7.61c-.69-2-1.65-3.79-2.46-5.7l.76,1.79a13.53,13.53,0,0,1-.81-2.86l.27,2a13.43,13.43,0,0,1,0-3.47l-.26,2a13.9,13.9,0,0,1,.37-1.7l-11,4.48c3.81,1.92,9.7,2.82,13.57.49a9,9,0,0,0,4.51-7.72,8.61,8.61,0,0,0-6.19-8.15c-2.89-.93-7.13.57-8.47,3.45-.33.66-.12.42.64-.72,1.14-.78,1.37-1,.7-.67l1.79-.76a2.23,2.23,0,0,1-.62.14l2-.27h-.32l2,.27L55,199v14.46c4.86-1,9.74-2.15,14.65-2.88l-2,.27c2.32-.3,4.63,0,7-.28a11.83,11.83,0,0,0,8.55-5.3l-13-7.57a78.51,78.51,0,0,0-4.13,7.18c-.59,1.16-1.15,2.34-1.67,3.53-.26.59-.5,1.19-.77,1.76-.15.31-.8,1.23,0,.23a2.2,2.2,0,0,1,.84-.79c.59-.39.64-.44.16-.16l1.79-.75a4.56,4.56,0,0,1-1,.28l2-.26a42.76,42.76,0,0,1-6.77-.43l-7.34-.61c-3.92-.33-7.68,3.68-7.5,7.5.19,4.34,3.3,7.15,7.5,7.5l9.06.75c4.06.34,7.82.64,11.26-2,2.79-2.15,3.73-5.52,5.24-8.55a79,79,0,0,1,4.33-7.59A7.57,7.57,0,0,0,80.47,195a7.69,7.69,0,0,0-10.26,2.69A4.42,4.42,0,0,1,71.89,196a3.87,3.87,0,0,1-.64.33l1.79-.75a7,7,0,0,1-1.42.36l2-.27c-1.68.15-3.35-.11-5,0a63.45,63.45,0,0,0-6.85,1.11L51,199c-3.08.61-5.65,4.13-5.51,7.23a8.79,8.79,0,0,0,1,3.78A7.46,7.46,0,0,0,51,213.43a10.52,10.52,0,0,0,7.19-.9,9.36,9.36,0,0,0,3.9-3.93l-8.47,3.45.23.07-3.31-1.93L49.7,209,49,207.23l.08.23-.26-2a1.35,1.35,0,0,1,0,.53l.27-2-.07.27.76-1.8q3.59-2.81,1.83-1.9l1.79-.76a2.45,2.45,0,0,1-.66.16l2-.26a16.19,16.19,0,0,1-3.19-.09l2,.27a8.38,8.38,0,0,1-1.63-.45l1.79.76-.38-.19c-4.29-2.17-9.64-.4-11,4.48a20.21,20.21,0,0,0-.29,9.59c.51,2.54,1.8,4.84,2.83,7.2l-.76-1.79a12.46,12.46,0,0,1,.82,2.62l-.27-2a7.12,7.12,0,0,1,0,1.53l.27-2-.06.39a8.17,8.17,0,0,0,.75,5.78,7.64,7.64,0,0,0,4.49,3.44c3.61.83,8.54-1.09,9.22-5.23Z"/><path class="cls-1" d="M46.08,168.29c-1.68-4-3.14-9.12-7.48-10.95A8,8,0,0,0,28,161.61a11.15,11.15,0,0,0-.11,8.1,8.3,8.3,0,0,0,2.69,3.9,7.14,7.14,0,0,0,4.54,1.61c3.19-.14,6.5-2.21,7.23-5.51a14.47,14.47,0,0,0-1.25-9.59c-.77-1.67-1.75-3.21-2.47-4.9l.76,1.79c-.59-1.45-1.08-2.93-1.58-4.41a34.5,34.5,0,0,1-1.44-4.38v4l.08-.22-1.93,3.31a7.06,7.06,0,0,1,1-1L34,155.49a8.76,8.76,0,0,1,2-1.15l-1.79.75a9.77,9.77,0,0,1,1.84-.48l-2,.27c3.07-.37,6.17-.63,9.25-.95l-5.3-12.8A32,32,0,0,0,32.83,148a17.2,17.2,0,0,0-1.55,11.43c.82,3.84,5.53,6.43,9.23,5.24a7.68,7.68,0,0,0,5.23-9.23,7.62,7.62,0,0,1-.14-.81l.27,2a9.47,9.47,0,0,1,.05-2.06l-.27,2a11.66,11.66,0,0,1,.72-2.4l-.76,1.79a17.84,17.84,0,0,1,2-3.18l-1.17,1.52c.69-.88,1.42-1.71,2.16-2.54a7.62,7.62,0,0,0,1.55-8.2c-1.06-2.51-3.93-4.91-6.86-4.61s-6.05.58-9.06.93a17.3,17.3,0,0,0-6.51,1.84,12.34,12.34,0,0,0-5,4.5,8.52,8.52,0,0,0-.8,6.16c.17.71.45,1.4.68,2.09L24,158.5A51.44,51.44,0,0,0,26.2,164c.61,1.25,1.35,2.43,1.92,3.69l-.75-1.79a9,9,0,0,1,.58,1.89l-.26-2a6.53,6.53,0,0,1,0,1.53l.27-2-.09.39H42.33a7.42,7.42,0,0,1-.36-1.22l.27,2a6.72,6.72,0,0,1-.05-1.27l-.27,2a3.72,3.72,0,0,1,.14-.74l-.75,1.8.17-.27-2.69,2.7.22-.13-3.78,1h.23l-2-.26.24.09-1.79-.76.24.16-1.52-1.17.22.22-1.18-1.52a25.12,25.12,0,0,1,2.52,5.31l-.76-1.8.18.41a8.27,8.27,0,0,0,3.44,4.48,7.68,7.68,0,0,0,5.78.76,7.54,7.54,0,0,0,4.48-3.45c.88-1.65,1.52-4,.76-5.78Z"/><path class="cls-1" d="M94.92,142.9a13.7,13.7,0,0,0-4.82-.14,10.06,10.06,0,0,0-2.1.51c-.45.16-.9.36-1.34.55l-.49.22c.15-.06.14-.06,0,0s-.89.19-.5.14c-.34,0-.7,0-1.05.09A7.83,7.83,0,0,0,82,145c-.27.13-.54.28-.82.4.21-.07.17-.06-.11.05l-.49.18a12.71,12.71,0,0,1-2,.46c-1.44.21-1.93,1.88-1.75,3.08a3.08,3.08,0,0,0,1.95,2.21,15.92,15.92,0,0,0,2,.5,5.22,5.22,0,0,1,.56.18s.47.19.25.09l.25.13.42.21c.65.34,1.27.72,1.89,1.09,1.45.85,3.3,2.1,5,1.38a3,3,0,0,0,1.77-2.54A14.55,14.55,0,0,0,91,151c0-.22,0-.45,0-.68s.08-.73-.07-.07l-.64,1.11.1-.11-1.11.64.13,0H88.08c.39.05.77.14,1.15.21a2.5,2.5,0,0,0,1.33-4.82,12.65,12.65,0,0,0-1.81-.3,2.71,2.71,0,0,0-2.52,1.67,4.8,4.8,0,0,0-.22,2c0,.28,0,.55,0,.82s0,.18,0,0c-.08.38,0,.37.1,0l.9-.9-.14.09,1.26-.34c.06,0,.69.25.41.12L88,150c-.36-.18-.71-.38-1.06-.58-.7-.41-1.38-.84-2.1-1.22a15.56,15.56,0,0,0-2.44-1.07,6.65,6.65,0,0,0-1.15-.28l-.49-.09-.18-.05a1.7,1.7,0,0,1,1.07,1.1l-1.74,3.07a13.94,13.94,0,0,0,3.81-1.19c.31-.14.61-.35.93-.46-.37.13.32,0,.4-.05-.4.06.55,0,.64,0A11.63,11.63,0,0,0,87,149c1.47-.31,2.2-.95,3.53-1.25.09,0,.89-.16.53-.11.31,0,.63,0,.94-.06s.63,0,1,0,.36,0,.14,0l.53.1a2.5,2.5,0,1,0,1.33-4.82Z"/><path class="cls-1" d="M98.84,143.21a5,5,0,0,1-1.16,0l.67.09a5.09,5.09,0,0,1-1.23-.34l.59.25a5.46,5.46,0,0,1-1-.58l.5.39a2.66,2.66,0,0,1-.35-.32l.39.51a.41.41,0,0,1-.05-.09l.25.59v0l.09.67v-.06l-.09.67v0l-.25.6,0,0-.4.5,0,0-.51.39.07,0-.6.25h0l-.67.09h0l-.67-.08h0l-.59-.26,0,0-.89-.89v0a2.56,2.56,0,0,0,1.5,1.14,1.86,1.86,0,0,0,1,0,1.8,1.8,0,0,0,.93-.3,2.46,2.46,0,0,0,1.15-1.49,2.6,2.6,0,0,0-.25-1.93,2.65,2.65,0,0,0-3.6-.93,2.74,2.74,0,0,0-1.22,1.57,2.67,2.67,0,0,0,.25,2.07,4.24,4.24,0,0,0,1.3,1.3,4.93,4.93,0,0,0,.64.41,7,7,0,0,0,1.92.72,6.67,6.67,0,0,0,2.09.15,1.88,1.88,0,0,0,1-.21,1.85,1.85,0,0,0,.8-.52,2.54,2.54,0,0,0,.74-1.77,2.58,2.58,0,0,0-.74-1.77,2.4,2.4,0,0,0-1.76-.73Z"/><path class="cls-1" d="M68.39,145.51a3.9,3.9,0,0,0-1.78-1.81,4.24,4.24,0,0,0-1.42-.43,2.22,2.22,0,0,0-.6-.06c-.14,0-.12,0,.06,0a1.51,1.51,0,0,1,.85.41l.64,1.11v.12c0-.17,0-.34,0-.51a8.19,8.19,0,0,0-.21-1.3A7.81,7.81,0,0,0,65,141a2.53,2.53,0,0,0-3.42-.9A4.09,4.09,0,0,0,60,141.72c-.13.24-.22.5-.33.76s0,0,0-.1a2,2,0,0,0-.16.33c0-.18.31-.28,0-.08.15-.11.27-.18.43-.28-.23.13-.17,0,.07,0-.28,0-.56,0-.84,0-.69-.06-1.36-.17-2.06-.19-3-.09-6.19.58-7.89,3.23a2.53,2.53,0,0,0,.9,3.42,2.56,2.56,0,0,0,3.42-.9c.16-.23.15-.23,0,0a3.83,3.83,0,0,1,.29-.28c-.44.39.21-.08.34-.15-.51.28.24-.07.38-.11l.61-.14c.29,0,.27-.05,0,0l.54-.05a9.93,9.93,0,0,1,1.09,0,17.7,17.7,0,0,1,1.93.13,5.3,5.3,0,0,0,4-.81A4.33,4.33,0,0,0,64,144.91c.11-.26.22-.51.32-.77s.1-.22,0,.1a3.07,3.07,0,0,1,.17-.31,1.33,1.33,0,0,1-.41.44l-3.42-.9a4.83,4.83,0,0,1,.26.45c-.07-.21-.06-.17,0,.11a4.1,4.1,0,0,1,.14.5c.06.3.07.33,0,.1a3.82,3.82,0,0,0,.84,2.56,3.43,3.43,0,0,0,2.35,1c.58.05.2,0-.13-.15.24.15.23.14,0,0s-.21-.24-.08,0a2.5,2.5,0,0,0,3.42.89,2.57,2.57,0,0,0,.9-3.42Z"/><path class="cls-1" d="M36,179.66c1.32.55,2,2.27,2.28,3.53a56.35,56.35,0,0,1,.93,6.6c.54,4.07.81,8.82,3,12.38a2.54,2.54,0,0,0,4.32,0,.92.92,0,0,1,.88-.27,2.53,2.53,0,0,0,3.08-3.08,17.07,17.07,0,0,1-.7-3.61,10.55,10.55,0,0,1,.67-3.63,26.92,26.92,0,0,0,1.18-7.67,16.44,16.44,0,0,0-1.38-7.33,12.24,12.24,0,0,0-5.14-5c-1.56-.88-3.89.22-3.76,2.16.22,3.36.61,6.71,1.15,10,.26,1.59.56,3.17.9,4.75.14.61.33,1.23.41,1.85,0,.16-.06.69,0,.6l4.18,1.1A59.24,59.24,0,0,1,46.41,182c-.25-3.27.17-6.83-1.11-9.91a2.56,2.56,0,0,0-2.08-1.79,2.47,2.47,0,0,0-2.49,1.19,7.84,7.84,0,0,0-.67,4.79,2.53,2.53,0,0,0,3.08,1.75A2.57,2.57,0,0,0,44.88,175a1.81,1.81,0,0,1,.17-.94l-4.57-.59c1.22,2.93.73,6.43,1,9.54a68.29,68.29,0,0,0,1.77,10.45,2.52,2.52,0,0,0,4.18,1.1c2.59-2.64,1-6.56.37-9.68a91.83,91.83,0,0,1-1.4-11.09l-3.76,2.16a6.87,6.87,0,0,1,3.56,3.78,16.69,16.69,0,0,1,.36,6.49c-.24,2.23-1.12,4.27-1.53,6.45a17.15,17.15,0,0,0,.68,7.49l3.07-3.07a6.15,6.15,0,0,0-6.53,2.57h4.32c-1.15-1.84-1.43-4.06-1.78-6.17q-.6-3.53-1-7.07c-.53-4.8-1.58-9.54-6.47-11.58a2.52,2.52,0,0,0-3.07,1.75A2.56,2.56,0,0,0,36,179.66Z"/><path class="cls-1" d="M80.72,192c-.13.44-.32.86-.48,1.29a3.93,3.93,0,0,0-.19.67,4.89,4.89,0,0,0-.13,1.27,4.6,4.6,0,0,0,.18,1.17,4.93,4.93,0,0,0,.49,1.1,4.74,4.74,0,0,0,1.68,1.65,2.52,2.52,0,0,0,3.67-1.49c.3-1.09.55-2.19.74-3.3a1.89,1.89,0,0,0,0-1,1.86,1.86,0,0,0-.3-.93,2.48,2.48,0,0,0-3.42-.89A2.46,2.46,0,0,0,81.86,193c-.19,1.11-.44,2.21-.74,3.3l3.67-1.49-.27-.18.51.39a2.16,2.16,0,0,1-.37-.37l.39.51a2.55,2.55,0,0,1-.3-.5l.25.6a3,3,0,0,1-.16-.56l.09.66a2.57,2.57,0,0,1,0-.62l-.09.66a15.76,15.76,0,0,1,.69-2.11,2.5,2.5,0,0,0-1.74-3.07,2.5,2.5,0,0,0-1.93.25,2.71,2.71,0,0,0-1.15,1.5Z"/><path class="cls-1" d="M66.47,195.83a28.93,28.93,0,0,0-.61-6.94c-.09-.51-.17-1-.25-1.54,0-.16,0-.31-.07-.47,0,.27,0,.26,0,0s-.05-.48-.07-.71a15.26,15.26,0,0,1,0-3.31,2.51,2.51,0,0,0-2.5-2.5,2.58,2.58,0,0,0-2.5,2.5,24.1,24.1,0,0,0,.45,6.93c.09.51.17,1,.26,1.53.05.32.09.63.14.95-.06-.44,0,.16,0,.28a18.42,18.42,0,0,1,.08,3.32,2.5,2.5,0,0,0,2.5,2.5,2.57,2.57,0,0,0,2.5-2.5Z"/><path class="cls-1" d="M79.05,183.59c3.21,0,3.22-5,0-5s-3.23,5,0,5Z"/><path class="cls-1" d="M91.48,177.81c3.22,0,3.22-5,0-5s-3.22,5,0,5Z"/><path class="cls-1" d="M99.19,95.33c3.21,0,3.22-5,0-5s-3.23,5,0,5Z"/><path class="cls-2" d="M101.46,85.52c3.22,0,3.22-5,0-5s-3.22,5,0,5Z"/><path class="cls-2" d="M106.37,77.81c3.21,0,3.22-5,0-5s-3.23,5,0,5Z"/><path class="cls-2" d="M104.61,84.47c3.22,0,3.23-5,0-5s-3.22,5,0,5Z"/><path class="cls-2" d="M102.69,86.39c3.22,0,3.22-5,0-5s-3.22,5,0,5Z"/><path class="cls-2" d="M136,70.18a6.92,6.92,0,0,1,.76.28l-.6-.26a8.77,8.77,0,0,1,1.92,1.12l-.51-.39a8.41,8.41,0,0,1,1.52,1.52l-.39-.5,0,0a1.8,1.8,0,0,0,.64.7,1.94,1.94,0,0,0,.85.45,2.5,2.5,0,0,0,3.08-1.75,2.43,2.43,0,0,0-.26-1.92A12.28,12.28,0,0,0,141.82,68a13.85,13.85,0,0,0-1.52-1.23,10.83,10.83,0,0,0-3-1.42,2.5,2.5,0,0,0-3.07,1.74,2.5,2.5,0,0,0,.25,1.93A2.67,2.67,0,0,0,136,70.18Z"/><path class="cls-3" d="M104.93,78.8a13.93,13.93,0,0,0-.86,1.62,16.79,16.79,0,0,0-.83,2.28,2.6,2.6,0,0,0,.26,1.93A2.8,2.8,0,0,0,105,85.78,2.48,2.48,0,0,0,108.06,84a12.11,12.11,0,0,1,.54-1.57l-.26.59a12.39,12.39,0,0,1,.91-1.73,2,2,0,0,0,.3-.93,1.9,1.9,0,0,0,0-1,1.83,1.83,0,0,0-.44-.85,1.91,1.91,0,0,0-.71-.64,2.49,2.49,0,0,0-1.92-.25,2.65,2.65,0,0,0-1.5,1.15Z"/><path class="cls-3" d="M149.8,73.86h-8.41a2.5,2.5,0,0,0,0,5h8.41a2.5,2.5,0,0,0,0-5Z"/><path class="cls-3" d="M148.05,71.11l-.15,7.53a2.51,2.51,0,0,0,2.5,2.5,2.55,2.55,0,0,0,2.5-2.5l.15-7.53a2.52,2.52,0,0,0-2.5-2.5,2.55,2.55,0,0,0-2.5,2.5Z"/><path class="cls-3" d="M107.88,71.25l-.7,1a1.85,1.85,0,0,0-.29.93,1.89,1.89,0,0,0,0,1,2.8,2.8,0,0,0,1.15,1.49l.6.25A2.5,2.5,0,0,0,110,76l.59-.25a2.43,2.43,0,0,0,.9-.9l.7-1a1.9,1.9,0,0,0,.3-.93,1.86,1.86,0,0,0,0-1A1.78,1.78,0,0,0,112,71a1.9,1.9,0,0,0-.7-.65l-.6-.25a2.5,2.5,0,0,0-1.33,0l-.6.25a2.67,2.67,0,0,0-.9.9Z"/><path class="cls-1" d="M107.32,73.22a3.68,3.68,0,0,1-.13,2.52,3.75,3.75,0,0,1-.79,1.18,2.33,2.33,0,0,1-.39.36c-.45.33-1.07.3-.07.24l1.26.34-.17-.09.89.9-.08-.19.34,1.26a2.78,2.78,0,0,1,1.28-2.19l-3.76-2.16a6.05,6.05,0,0,1-1.62,3.16,43.8,43.8,0,0,0-3.22,4.21,76.64,76.64,0,0,0-5.07,10.48,2.58,2.58,0,0,0,.9,3.42,2.52,2.52,0,0,0,3.42-.9,64.92,64.92,0,0,1,5.51-11.15c2.06-3.06,4.85-5.27,5.08-9.22a2.52,2.52,0,0,0-3.76-2.16,7.94,7.94,0,0,0-3.59,5c-.27,1.33-.25,2.74.9,3.65a3.26,3.26,0,0,0,3.65.09,8.84,8.84,0,0,0,4.24-10.09c-.89-3.08-5.72-1.77-4.82,1.33Z"/><path class="cls-1" d="M108.5,70.07c-.37.73-.76,1.45-1.16,2.17l4.57,1.93c.08-.25.17-.5.26-.75s-.24.54-.06.14l.18-.39a10.13,10.13,0,0,1,.72-1.23l.25-.35c.25-.36-.29.34-.09.11s.33-.4.51-.6a10.63,10.63,0,0,1,1.1-1,6.4,6.4,0,0,0,1-.92,3.93,3.93,0,0,0,1-2.64,5,5,0,0,0-2.11-3.65,2.71,2.71,0,0,0-1.77-.73,2.94,2.94,0,0,0-1.77.73A4.17,4.17,0,0,0,110,67.3a2.57,2.57,0,0,0,1.45,1.62,2.39,2.39,0,0,0,2.22-.13,8,8,0,0,1,.8-.47l.42-.21c.44-.22-.55.21,0,0a9.36,9.36,0,0,1,1.88-.45l-.66.09.77-.07a2.5,2.5,0,0,0,0-5,11.56,11.56,0,0,0-5.77,1.8l3.67,1.5c0-.12-.07-.23-.1-.36l.09.67a2.09,2.09,0,0,1,0-.5l-.09.67.06-.24c.08-.39-.24.43-.09.2s-.38.38-.17.21.15-.15.23-.21h-3.54a6.85,6.85,0,0,1,.8.72c.31.3-.36-.52,0,0,.11.23.07.15-.11-.26a2,2,0,0,1,.05.24l-.09-.67a2.3,2.3,0,0,1,0,.37l.09-.67c-.06.25,0,.17.13-.24-.13.22-.07.15.18-.19a3.12,3.12,0,0,0-.37.36c-.24.2-.5.38-.74.59a10.85,10.85,0,0,0-1.49,1.54,14,14,0,0,0-2.5,4.62,2.5,2.5,0,0,0,4.56,1.92c.41-.71.8-1.44,1.17-2.17a2.5,2.5,0,1,0-4.32-2.52Z"/><path class="cls-1" d="M98,95.5c3.22,0,3.22-5,0-5s-3.22,5,0,5Z"/><path class="cls-1" d="M44,115.42l.27,2.2a2.5,2.5,0,0,0,4.91.66,10.2,10.2,0,0,0-.33-6A33.84,33.84,0,0,1,47.06,107c-.33-2.08.23-4.1-.55-6.14a8.58,8.58,0,0,0-4-4.55,2.53,2.53,0,0,0-3.67,2.82,13.27,13.27,0,0,0,1.87,4.69,2.52,2.52,0,0,0,4.66-1.27,17.94,17.94,0,0,0-1.48-8,16.12,16.12,0,0,0-1.78-3.16c-.68-.93-1.84-1.86-2.23-3-1.06-3-5.59-1.83-4.82,1.33l1.45,5.88a2.48,2.48,0,0,0,2.74,1.79A2.54,2.54,0,0,0,41.42,95c.45-4.57-2.25-9.14-4.49-12.93a64,64,0,0,0-8-10.72c-2.19-2.37-5.72,1.17-3.54,3.53a57.78,57.78,0,0,1,7,9.33c1.88,3.14,4.4,7,4,10.79l4.91-.67-1.45-5.88-4.82,1.33c.85,2.39,2.87,4,4,6.22a12.89,12.89,0,0,1,1.3,6.55L45,101.25a9.34,9.34,0,0,1-1.37-3.49L40,100.58c3.07,1.63,1.69,5.26,2.32,8.08.59,2.6,2.81,5.57,2,8.29l4.91.67-.27-2.2a2.59,2.59,0,0,0-2.5-2.5,2.51,2.51,0,0,0-2.5,2.5Z"/><path class="cls-1" d="M28.76,70.44a40.83,40.83,0,0,0-9-16.33,2.52,2.52,0,0,0-4.18,1.1c-.73,2.65.24,5,1.33,7.44s2.17,4.57,3.33,6.82c1,2,4,1.38,4.57-.6,1.41-4.81-2.12-8.3-4.57-12a41.92,41.92,0,0,1-5.44-11.54c-.91-3.08-5.74-1.77-4.82,1.33A47,47,0,0,0,15,58c1.05,1.71,2.28,3.27,3.46,4.9,1,1.35,2.06,2.91,1.55,4.65l4.57-.6q-1.42-2.73-2.73-5.52C21.18,60,20,58.15,20.42,56.54l-4.18,1.1a35.41,35.41,0,0,1,7.7,14.13c.87,3.09,5.69,1.78,4.82-1.33Z"/><path class="cls-1" d="M18.66,55.29a11.48,11.48,0,0,0-.33-5.55c-.46-1.57-1.13-3.06-1.57-4.64a43.42,43.42,0,0,0-4.41-9.66A2.5,2.5,0,1,0,8,38a35.74,35.74,0,0,1,3.83,8.17c.68,2.49,2.42,5.55,2,7.83A2.55,2.55,0,0,0,15.59,57a2.52,2.52,0,0,0,3.07-1.74Z"/><path class="cls-1" d="M12.64,45.23a75.94,75.94,0,0,1-.44-24.58,2.58,2.58,0,0,0-1.74-3.07,2.52,2.52,0,0,0-3.08,1.74,83.23,83.23,0,0,0,.44,27.23A2.52,2.52,0,0,0,10.9,48.3a2.55,2.55,0,0,0,1.74-3.07Z"/><path class="cls-1" d="M8.54,33.94A35.52,35.52,0,0,0,7.86,22.5c-.58-3.2-1.25-6.52-.79-9.78a12.06,12.06,0,0,1,.62-2.45c.17-.44.47-1.39.87-1.64.62-.37,2.36.16,3.14.53,2.82,1.37,4.44,4.32,5.56,7.12l3.67-2.83A17.18,17.18,0,0,0,10.72,12,2.51,2.51,0,0,0,9,15.1a9.19,9.19,0,0,1,.25,3.09l4.91-.66a5.86,5.86,0,0,1,.34-3.67c.72-1.63,2-2.7,1.39-4.67A4.17,4.17,0,0,0,12,6.41a7.4,7.4,0,0,0-2.42.44c-.15.05-.71.22-.76.25-.37.26-.38-.37.1.13C7.13,5.39,4.12,7.3,4.71,9.66A31.49,31.49,0,0,1,5.58,19.8a2.5,2.5,0,0,0,5,0,36.24,36.24,0,0,0-1-11.46L5.36,10.77a4.52,4.52,0,0,0,3.75,1.3,11.55,11.55,0,0,0,2.16-.53,2.94,2.94,0,0,1,.51-.13l-.6-1.73a5,5,0,0,1-.29.45,11.12,11.12,0,0,0-1.57,8.73c.64,2.89,4.71,2,4.91-.67a13.74,13.74,0,0,0-.43-4.42l-1.75,3.08a11.22,11.22,0,0,1,6.36.92,2.55,2.55,0,0,0,2.78-.19A2.46,2.46,0,0,0,22.08,15C20.51,11,18.39,7.16,14.57,5A10.68,10.68,0,0,0,8.73,3.59,6,6,0,0,0,3.61,7.18c-1.9,3.88-1.87,8.19-1.29,12.38s2,8.69,1.4,13.05a2.58,2.58,0,0,0,1.74,3.08,2.52,2.52,0,0,0,3.08-1.75Z"/><path class="cls-1" d="M15.8,15.29c-.59,4.51,2.55,8.15,5.31,11.29a15.67,15.67,0,0,1,3,4.49c.69,1.72,1.2,3.51,2,5.18s2.28,4,4.29,4.18c1.33.15,2.23-.64,3.14-1.49a9.22,9.22,0,0,0,2.06-2.26c1.38-2.6-1.32-4.62-3.15-6a11.13,11.13,0,0,1-3.36-3.47c-2-3.44-2.85-7.43-5.89-10.2a2.5,2.5,0,0,0-3.53,3.53A107.84,107.84,0,0,1,31,35c1.75,2.69,6.08.18,4.31-2.52A114,114,0,0,0,23.18,17l-3.53,3.53c2.3,2.11,3.15,5.31,4.5,8.06a15.07,15.07,0,0,0,2.91,4.16,19.39,19.39,0,0,0,2.24,1.8c.33.24.67.48,1,.73l.55.49c.37.45.4.32.08-.38l.34-1.26c.08-.17,0,.05-.09.14a4.84,4.84,0,0,0-.74.69c-.41.38-.81.78-1.24,1.14l1.1-.65-.24.09h1.33c.37.09.45.35.17,0-.1-.14-.23-.25-.33-.38A8,8,0,0,1,30.55,34a19.24,19.24,0,0,1-.95-2.35,22.76,22.76,0,0,0-2.72-5.85c-2.24-3.14-6.65-6.22-6.08-10.53a2.52,2.52,0,0,0-2.5-2.5,2.56,2.56,0,0,0-2.5,2.5Z"/><path class="cls-1" d="M30.12,38.82c1.55,3.86,3.13,7.69,5.69,11,1.22,1.59,2.6,3.06,3.68,4.75a38.69,38.69,0,0,1,2.76,5.59q2.66,6.22,5.3,12.45c1.64,3.84,3.6,7.7,4.69,11.75.61,2.3.83,4.69,1.5,7a27.33,27.33,0,0,0,3,6.67l1.5-3.68-1.15.31,3.08,3.08c1.78-9-.86-18.54-3.87-27a151.64,151.64,0,0,0-10.94-24,49.05,49.05,0,0,0-8.59-11.4c-2.33-2.22-5.87,1.31-3.53,3.54,5.72,5.46,9.24,12.72,12.59,19.77a115.67,115.67,0,0,1,8.63,23.53c1.08,4.7,1.83,9.48.89,14.27a2.52,2.52,0,0,0,3.07,3.07l1.15-.3A2.53,2.53,0,0,0,61,95.49a22.6,22.6,0,0,1-2.42-5.26C58,88.17,57.76,86,57.28,84c-1-4.17-3-8.12-4.64-12l-5.11-12c-.84-2-1.62-3.94-2.59-5.83a29.44,29.44,0,0,0-3.55-5.24,34.88,34.88,0,0,1-3.73-5.3,60.57,60.57,0,0,1-2.72-6,2.6,2.6,0,0,0-3.08-1.75,2.52,2.52,0,0,0-1.74,3.08Z"/><path class="cls-1" d="M47.87,120.37c3.22,0,3.23-5,0-5s-3.22,5,0,5Z"/><path class="cls-4" d="M29.46,62.88a10.63,10.63,0,0,0,1.39,5.28,2.57,2.57,0,0,0,1.49,1.15,2.5,2.5,0,0,0,3.08-1.75,2.63,2.63,0,0,0-.26-1.92c-.15-.27-.28-.55-.41-.83l.26.59a8,8,0,0,1-.57-2.05l.09.67a8.72,8.72,0,0,1-.07-1.14,2.59,2.59,0,0,0-.73-1.77A2.57,2.57,0,0,0,32,60.38a2.53,2.53,0,0,0-1.77.73,2.59,2.59,0,0,0-.73,1.77Z"/><path class="cls-4" d="M33.69,65.38c3.22,0,3.22-5,0-5s-3.22,5,0,5Z"/><path class="cls-5" d="M28.81,60.26a26.32,26.32,0,0,0,2.29,9,2.53,2.53,0,0,0,2.83,1.15c3.84-.88,3.93-5.91,1.5-8.27-1.16-1.13-2.75-1.69-3.88-2.83a5.24,5.24,0,0,1-1.47-3.77l-4.26,1.77,3.88,3.53,1.85,1.69c.25.23.59.71.92.84.81.32-.72.94.36-.79L36.76,62c-4.22-4.33-9.21-8.54-12.06-13.95-2.63-5-3.29-10.83-3.68-16.4a2.56,2.56,0,0,0-2.5-2.5,2.53,2.53,0,0,0-2.5,2.5c.44,6.36,1.28,12.79,4.17,18.55,3,6,8.43,10.61,13,15.34a2.53,2.53,0,0,0,3.93-.51c1.49-2.4-.34-4.54-2.07-6.11l-5.73-5.22a2.53,2.53,0,0,0-4.27,1.77,10.32,10.32,0,0,0,3.49,7.82c.95.81,2.09,1.31,3.06,2.07.44.36.49.49.52.66,0-.28.17,0-.06.1.15-.1.26-.55.51-.6l2.82,1.15a19.25,19.25,0,0,1-1.61-6.45,2.56,2.56,0,0,0-2.5-2.5,2.52,2.52,0,0,0-2.5,2.5Z"/><path class="cls-5" d="M20.6,31.36a19.27,19.27,0,0,0-1-7.38,2.51,2.51,0,0,0-4.91.66,20.93,20.93,0,0,0,6,15.35,2.53,2.53,0,0,0,3.93-.51,6,6,0,0,0,0-5.63c-.64-1.38-1.88-2.48-2.19-4a2.48,2.48,0,0,0-2.74-1.79,2.53,2.53,0,0,0-2.17,2.46,10,10,0,0,0,2.69,7c1.49,1.8,3.5,3.13,4.85,5,1.46,2.06,2.28,4.54,3.39,6.79,1.19,2.42,2.55,4.75,3.9,7.08A179.1,179.1,0,0,1,45.73,84.81a177.52,177.52,0,0,1,5.25,17c.8,3.12,5.62,1.8,4.82-1.33A180.51,180.51,0,0,0,45.48,71.05Q42.3,64,38.5,57.19c-1.35-2.4-2.77-4.76-4.11-7.17S32.08,45.4,31,43a21.37,21.37,0,0,0-4.9-6.61c-1.7-1.6-3.8-3.36-3.6-5.91l-4.91.66a9.85,9.85,0,0,0,1.69,3.51c.31.46,1.37,1.65,1,2.27l3.93-.51a15.88,15.88,0,0,1-4.54-11.81l-4.91.67a15.54,15.54,0,0,1,.82,6.05c-.18,3.21,4.82,3.2,5,0Z"/><path class="cls-5" d="M49.33,100.55c-.31,3.77-.27,7.38,1.61,10.76.79,1.42,1.6,2.6,1.65,4.27a38.92,38.92,0,0,0,.2,5.81L57,119a2.44,2.44,0,0,1-.59-.87A2.54,2.54,0,0,0,54,116.26a2.12,2.12,0,0,1-1-.12l1.83,2.41a32.91,32.91,0,0,0-1.45-13.22c-1-3-5.82-1.75-4.82,1.33a29.2,29.2,0,0,1,1.27,11.89A2.53,2.53,0,0,0,51.63,121a6,6,0,0,0,2.34.3l-2.41-1.84a8.23,8.23,0,0,0,1.87,3.07,2.54,2.54,0,0,0,3,.39,2.59,2.59,0,0,0,1.15-2.82c-.3-1.7.09-3.49-.06-5.21a12.36,12.36,0,0,0-1.77-5.16,10.73,10.73,0,0,1-1.55-3.88,23.74,23.74,0,0,1,.1-5.26,2.5,2.5,0,0,0-5,0Z"/><path class="cls-5" d="M53.58,104.91a16.6,16.6,0,0,0-4.72-12.62c-1.62-1.67-4.08-.29-4.27,1.76a7.55,7.55,0,0,0,3.69,7c2,1.21,4.06-.78,3.67-2.82a31.92,31.92,0,0,0-6.64-14.06c-1.11-1.38-3.92-.69-4.18,1.1a8.62,8.62,0,0,0,1.95,7.06c1.2,1.45,3.77.62,4.18-1.1,1.07-4.54-1.59-8.37-3.93-12l-3.69-5.71c-.62-1-1.23-1.9-1.84-2.86-.39-.61-1.17-1.5-1-2.26l-4.18,1.1a18.55,18.55,0,0,1,6.71,10.62l4.57-1.92L38.66,67.13a2.52,2.52,0,0,0-3.42-.9,2.56,2.56,0,0,0-.9,3.42l5.28,11.08c1.26,2.66,5.16.72,4.57-1.93A22.81,22.81,0,0,0,36.2,66c-1.43-1.14-3.63-.86-4.18,1.1-.66,2.35.34,4.38,1.59,6.32s2.55,3.95,3.82,5.92S39.87,83,41,84.88c.89,1.49,1.87,3.25,1.45,5l4.18-1.1a3,3,0,0,1-.66-2.2l-4.18,1.1a27,27,0,0,1,5.35,11.86l3.67-2.83a2.63,2.63,0,0,1-1.21-2.7l-4.27,1.77a11.69,11.69,0,0,1,3.26,9.09,2.5,2.5,0,0,0,5,0Z"/><path class="cls-5" d="M39.57,64.73q-1.76-5.22-3.63-10.39a21.53,21.53,0,0,0-1.88-4.72A4.36,4.36,0,0,0,31.83,48c-.24-.08-.49-.14-.73-.21s-.46-.29-.29-.09c-1.37-1.58-4.44-.36-4.26,1.77a15.49,15.49,0,0,0,1.69,6c.91,1.78,4.27,1.56,4.57-.59.41-2.93-1.47-5.52-2.89-8s-2.94-4.76-4.58-7a2.58,2.58,0,0,0-3.42-.9,2.53,2.53,0,0,0-.9,3.42c1.38,1.92,2.69,3.88,3.91,5.89.61,1,1.2,2,1.76,3.07.29.51.57,1,.84,1.55.1.19.38,1.17.46.62l4.57-.6a9.2,9.2,0,0,1-1-3.47l-4.27,1.77a4.35,4.35,0,0,0,1.91,1.2,2.27,2.27,0,0,0,.73.21c.55,0,.16.23,0-.26.42,1.29,1,2.78,1.52,4.15q1.69,4.74,3.3,9.51c1,3,5.85,1.74,4.83-1.33Z"/><path class="cls-5" d="M94.55,95.11C93.47,90,97.83,85.4,100,81.22a54.1,54.1,0,0,0,2.63-6.63,14.59,14.59,0,0,1,3-5.57c2.25-2.3-1.28-5.84-3.54-3.53-3.79,3.87-4.33,9.4-6.87,14-3,5.36-6.91,10.46-5.53,17,.66,3.15,5.48,1.82,4.82-1.33Z"/><path class="cls-5" d="M106.13,67.74a23.22,23.22,0,0,1,5.36-5.11,2.54,2.54,0,0,0,0-4.31c-1.72-1.27-4.38-2.82-6.28-1-1.38,1.34-.88,3.38-1.41,5.05a21.34,21.34,0,0,1-2.59,4.7,35.79,35.79,0,0,0-2.78,5.13c-3,6.93-3.9,14.79-8.19,21.12-1.81,2.68,2.52,5.18,4.32,2.53,3.77-5.58,5-12.27,7.22-18.53A39.27,39.27,0,0,1,106,68.92a26.68,26.68,0,0,0,2.39-4.47,11.14,11.14,0,0,0,.67-2.58c.1-.68.09-1.59.21-1.92l-.64,1.11-.14.08-1.26.34c-.26,0,.55.33.67.4.38.23.75.49,1.11.75V58.32a30.19,30.19,0,0,0-7.15,6.89,2.51,2.51,0,0,0,.89,3.42,2.56,2.56,0,0,0,3.42-.89Z"/><path class="cls-6" d="M79.49,162a10.93,10.93,0,0,1-.47,1.36l.26-.6a11.19,11.19,0,0,1-1.45,2.48l.39-.51a11.12,11.12,0,0,1-1.69,1.74,2.51,2.51,0,0,0,1.77,4.27l.67-.09a2.52,2.52,0,0,0,1.1-.65,13.2,13.2,0,0,0,4.24-6.67,2.5,2.5,0,0,0-1.75-3.08,2.52,2.52,0,0,0-1.92.26A2.56,2.56,0,0,0,79.49,162Z"/><path class="cls-6" d="M78.17,165.59a5.14,5.14,0,0,0-5,0,9.06,9.06,0,0,0-1.9,1.42c-.37.33-1,.95-1.23,1.1-1.21,1-2.42,1.91-2.87,3.48a4.33,4.33,0,0,0,1,4.34c2,2,5.39-.56,3.93-3a5.78,5.78,0,0,1-.41-1.61,6.49,6.49,0,0,0-.74-2.21,4.34,4.34,0,0,0-4.73-2.18,2.56,2.56,0,0,0-1.84,2.41,6,6,0,0,0,2.1,4.82c.51.52,1.1,1,1.59,1.5a3.42,3.42,0,0,1,.46.66c-.07-.18-.06-.12,0,.16a.33.33,0,0,1,0-.26,2.57,2.57,0,0,0,1.74,3.08c5.33,1.7,9.75-3.16,12.27-7.2A29.65,29.65,0,0,0,87,158c.1-1.8-1.68-2.61-3.17-2.41A6.77,6.77,0,0,0,79,159a7.07,7.07,0,0,0-.84,3.21,18.76,18.76,0,0,1,.1,2.36c-.19.64-1.27,1.32-1.75,1.81a29.24,29.24,0,0,0-2,2.28,34.35,34.35,0,0,0-3.61,5.48l4.57.6-1.27-3.85a2.56,2.56,0,0,0-3.08-1.75,2.53,2.53,0,0,0-1.74,3.08l1.27,3.85c.63,1.92,3.53,2.61,4.57.6A27.65,27.65,0,0,1,78,172.23c1.16-1.48,2.63-2.65,3.83-4.08a5.81,5.81,0,0,0,1.36-3.33c.09-.92-.12-1.83,0-2.74,0,.27,0-.21.06-.29.09-.38-.14.24,0-.12.08-.15.17-.3.26-.44s.1-.15,0,0l.18-.19c.06-.06.29-.26.09-.1a2.47,2.47,0,0,1,.44-.27c-.28.15.11,0,.24-.08a4.7,4.7,0,0,1,.63-.13L82,158a24.46,24.46,0,0,1-3.21,10.69,18,18,0,0,1-3.27,4.32,7.53,7.53,0,0,1-1.81,1.26,4.15,4.15,0,0,1-.68.22c-.07,0-.59.08-.32.06a1.77,1.77,0,0,1-1-.16l1.75,3.08A6,6,0,0,0,71.54,172c-.54-.56-1.16-1-1.69-1.6-.27-.29-.2-.38-.46-.65s0-.1,0,.05,0-.44,0-.48l-1.83,2.41H67l-.45-.26c.16,0,.17.22.19.26s.11.53.17.89a7.88,7.88,0,0,0,.91,2.8l3.93-3a.94.94,0,0,1,.18.76c.09-.28.09-.31,0-.07.13-.23.16-.27.08-.13.59-.5.84-.71,1.51-1.25s1.06-1.05,1.65-1.48c0,0,.68-.34.47-.27.65-.2.12,0,0,0,2.77,1.65,5.29-2.67,2.53-4.32Z"/><path class="cls-6" d="M56.92,173.19c-.31,0-.61,0-.92,0s-.3,0,0,0l-.44-.11-.43-.14c.25.11.24.1,0,0s-.55-.29-.81-.46c-.07,0-.8-.59-.46-.32-.26-.21-.5-.42-.74-.64-.48-.45-.93-.91-1.37-1.39a14.3,14.3,0,0,1-2.36-3q-.14-.24-.24-.48c.08.21.08.17,0-.11,0-.09-.24-1-.18-.57a3.72,3.72,0,0,1,0-1c-.08.6.29-.67.06-.17l-3.93.5c-.35-.4,0,0,0,0l-.08-.19.09.33a8.76,8.76,0,0,1,.18.89,9.14,9.14,0,0,0,.72,2.35,8.2,8.2,0,0,0,3.16,3.49,21.54,21.54,0,0,0,3.63,1.55l.38.15c-.49-.2-.14-.06-.05,0l.78.43c.07,0,.38.31.14.09s0,.06.1.12.32.45,0,0c.09.15.18.3.26.45a7.86,7.86,0,0,0,1.19,1.88,4.26,4.26,0,0,0,2.84,1.24,5.59,5.59,0,0,0,4.37-2,4.14,4.14,0,0,0-.06-5.74,5.94,5.94,0,0,0-5.07-1.4c-.43.05-.85.1-1.28.11l-.48,0H56l-.33-.07c-.14,0-.28-.1-.42-.13s.28.16-.12,0a10.28,10.28,0,0,1-1-.57l-.37-.27c.38.3-.19-.18-.21-.2-.3-.26-.58-.53-.85-.81-.55-.57-1.06-1.16-1.56-1.76a2.5,2.5,0,0,0-3.92,3,13.75,13.75,0,0,0,9,5.65,23.42,23.42,0,0,0,2.9.2c.06,0,.7,0,.46,0s.38.11.44.12c-.44-.06-.26-.13-.05,0s-.36-.33,0,0-.21-.42,0,0a3.07,3.07,0,0,0,.17.31c-.28-.43-.09-.14,0,.08.15.4,0-.29,0-.05,0,.06,0,.43,0,.44s.13-.59,0,0c-.09.35-.12.19,0,0-.1.15-.18.3-.29.45l4.57.59c0-.06-.16-.66-.13-.4s.07-.52,0,0a2.5,2.5,0,1,0-4.82-1.33,6,6,0,0,0,.15,3.08,2.52,2.52,0,0,0,2.08,1.79A2.58,2.58,0,0,0,64.26,178a5.58,5.58,0,0,0,.46-5.42,5.63,5.63,0,0,0-5-3.42c-.48,0-1,0-1.46,0l-.6,0c-.05,0-.79-.12-.28,0-.43-.08-.85-.17-1.27-.29-.23-.06-.46-.13-.68-.21s-.5-.19-.17-.05A10.14,10.14,0,0,1,53,167.21c.36.28-.16-.14-.23-.21s-.35-.32-.52-.48l-.48-.53c-.35-.37.13.21-.2-.24l-3.92,3a15.32,15.32,0,0,0,6,4.83,8.4,8.4,0,0,0,4,.39c.33,0,.66-.08,1-.09.06,0,.64,0,.34,0s.08,0,.12,0c.58.12,0,0,0,0l.09.05c.16.1.13.07-.08-.08,0,0,.17.31.07,0s-.24-.35-.24-.58L59,173c.13-.36.11-.4,0-.1,0,0,.25-.28,0,0,0,0-.4.33-.15.16s-.08,0-.11.05c-.42.23-.08,0,0,0-.06,0-.39.09-.4.11s.31,0,.39,0,.17,0-.06,0l.23.09c.24.21.38.43.16,0-.12-.22-.22-.45-.33-.68a6.06,6.06,0,0,0-1.21-1.64,10,10,0,0,0-3.3-1.92c-.45-.18-.91-.34-1.36-.51-.12,0-.87-.39-.36-.14-.25-.12-.49-.23-.73-.36s-.7-.5-.39-.23l-.33-.31s-.44-.48-.25-.26-.06-.08-.08-.11-.2-.32-.29-.48-.22-.49-.11-.22-.11-.35-.11-.34c-.16-.59-.21-1.2-.35-1.79a5.83,5.83,0,0,0-1.31-2.48,2.52,2.52,0,0,0-3.93.5,7.57,7.57,0,0,0-.19,6.08,17.06,17.06,0,0,0,3.41,5c2.29,2.54,5.37,5.29,9.07,4.85a2.57,2.57,0,0,0,2.5-2.5c-.06-1.22-1.11-2.67-2.5-2.5Z"/><path class="cls-2" d="M76,188.39a29.21,29.21,0,0,0-4.86.1,7,7,0,0,0-2.77.66,3.57,3.57,0,0,0-1.84,3.17,2.58,2.58,0,0,0,1.83,2.41c-.31-.15-.35-.17-.11,0a1,1,0,0,1-.41-.4,2.59,2.59,0,0,0,2.83,1.15A2.56,2.56,0,0,0,72.54,193c0-2.47-.89-4.69-1.62-7-.16-.51-.31-1-.42-1.56,0-.12-.15-1-.08-.38l-.09-.83a9,9,0,0,0-.39-2.05,6.79,6.79,0,0,0-.52-1.13l-.2-.32c-.2-.4-.16-.21.11.56l-4.91.67c1.28,4.21,6.81,4.72,10.49,4.94l-2.42-3.16a14.76,14.76,0,0,0-.18,6.1,2.5,2.5,0,0,0,3.07,1.74,2.57,2.57,0,0,0,1.75-3.07c0-.2,0-.32,0-.05,0-.2,0-.4,0-.6,0-.36,0-.72,0-1.08l0-.48c0-.2,0-.32,0-.05a9.49,9.49,0,0,1,.24-1.18,2.54,2.54,0,0,0-2.41-3.17c-.4,0-.79-.05-1.18-.09l-.71-.08c.26,0,.17,0,0,0-.78-.13-1.56-.28-2.33-.48-.28-.07-.55-.18-.83-.26s.52.28,0,0l-.38-.2-.14-.09c-.16-.1-.1-.05.17.15-.08,0-.25-.24-.3-.28-.22-.14.25.43,0,.06s.15.51,0,0a2.5,2.5,0,0,0-2.74-1.79,2.46,2.46,0,0,0-2.17,2.45,5.21,5.21,0,0,0,.78,2.29,3.72,3.72,0,0,1,.19.34c-.13-.29-.14-.3,0,0s.26,1,.08.34a18.6,18.6,0,0,1,.26,2.12c.1.53.23,1.05.38,1.57.32,1.07.72,2.12,1.06,3.19a15.37,15.37,0,0,1,.43,1.65c0,.14.05.28.07.42,0-.32,0-.33,0,0s0,.56,0,.85l4.66-1.26a4.61,4.61,0,0,0-2.47-1.87l1.84,2.41a1.49,1.49,0,0,1-.73,1.19c-.3.11-.32.12-.06,0,.61-.18-.6,0,.16,0,.56-.07,1.13-.12,1.69-.15a29.84,29.84,0,0,1,3.41,0,2.51,2.51,0,0,0,2.5-2.5,2.56,2.56,0,0,0-2.5-2.5Z"/><path class="cls-2" d="M57.19,180.7c.88-.12-.89.06-.87,0,.35.06.38.06.11,0s-.24-.07,0,0,.18.07,0-.05c.27.22.31.24.13.06A4.4,4.4,0,0,0,54,178.85a2.53,2.53,0,0,0-3.08,3.07c.1.51.2,1,.28,1.54a4.47,4.47,0,0,0,.08.5c0-.25,0,.42.06.51q.16,1.49.21,3c0,1,0,1.92,0,2.88,0,.48-.06,1-.1,1.44l-.09.84c0,.12,0,.24,0,.36,0-.27,0-.25,0,0a2.59,2.59,0,0,0,1.15,2.82,2.55,2.55,0,0,0,3-.39c.24-.24-.09.07-.17.12s-.53.24-.21.11-.15.09-.23,0,.26,0,.31,0c.45,0,.9,0,1.35,0A4.18,4.18,0,0,0,60.39,193a5.35,5.35,0,0,0-.25-3.91,12.15,12.15,0,0,1-.56-1.74c-.09-.35,0,.37,0,0,0-.14,0-.29,0-.44a8.06,8.06,0,0,1,.06-1,2.51,2.51,0,0,0-2.5-2.5,2.58,2.58,0,0,0-2.5,2.5,8.27,8.27,0,0,0,.39,3.69c.18.53.44,1,.6,1.58l0,.2c.07.31.07.27,0-.11a2.16,2.16,0,0,1,0,.36q.08-.56,0-.15a1.08,1.08,0,0,1,.29-.52q.45-.31.12-.12c.35-.14.44-.18.25-.13s-.09,0,.29,0a2.23,2.23,0,0,0-.63,0l-.64,0a4.45,4.45,0,0,0-3.4,1.22l4.18,2.43a40.37,40.37,0,0,0-.35-13.78l-3.07,3.08q.39.11-.18-.09c-.3-.24-.36-.27-.16-.08s.28.34.41.5a4.42,4.42,0,0,0,1.42,1.16,7.15,7.15,0,0,0,4.36.37,2.51,2.51,0,0,0,1.75-3.08,2.58,2.58,0,0,0-3.08-1.75Z"/></g><path d="M94,110.74c4.31,3.67,5,8.57,5.53,13.34s.06,9.51-3.86,13.53a15.61,15.61,0,0,0,1.89.4c4.23.22,7.9,2.09,11.2,4.42,5.09,3.51,7.6,10.49,7.63,16.59a6.11,6.11,0,0,1-.27,2.2c-2,4.57-3.71,9.36-7.12,13.2a6,6,0,0,0-1.41,2.08c-.94,3-3.38,4.91-5.43,7a132.58,132.58,0,0,0-9.27,11.1c-4.63,5.81-7.71,12.51-11.08,19-1.92,3.72-3.32,7.68-3.07,12a25.51,25.51,0,0,1-.56,4.66c-2.55-.88-3.21-1.74-3.32-3.79-.42-10.44,5.24-19.93,9.76-29a48.78,48.78,0,0,1,6-8.72c3-3.73,6-7.65,9.69-10.71,3.49-2.92,5.52-6.75,8-10.26,2-2.9,3.27-6.45,4.45-9.85.78-2.27-.19-4.62-1.24-6.73-1.35-2.75-3.69-4.59-6.13-6.32a2.5,2.5,0,0,0-1.29-.49,14.14,14.14,0,0,1-5.56-1.31c-1.17-.51-3,.36-4.49.75a11,11,0,0,0-2.17,1.15l-1.83-.76c-3.17,1.9-6,4.31-10.07,3.93a3,3,0,0,0-2.4.9c2,2.13,4.5,2.54,7.12,3.31,4,1.21,6.78,4.8,5.63,9.61-1.86,8-5.87,15.11-13.08,19.16-5.24,3.79-6.67,1-10.8-2.43a1.63,1.63,0,0,0-.68,2.12c1.21,4,2.92,7.91,2.39,12.25a7.52,7.52,0,0,0,.17,1.53c3.08-.7,5-4,8.79-2.91-.32-2.19-.6-4.11-.89-6a5.31,5.31,0,0,1-.27-1.92,2.79,2.79,0,0,1,1.22-1.62c.31-.15,1,.47,1.56.78a1,1,0,0,1,.27.48c1.47,4.4,2.34,8.82.65,13.66-3-.52-5.45,1.29-8.18,2-4.07,1.12-7.18-1-7.29-5.45-.42-4-.74-7.92-1.13-12.29a3.14,3.14,0,0,0-1.44,3.45c.31,2.85.72,5.68,1.14,8.52.73,4.87-2.35,6.29-6.41,5.9-1.69-.16-3.18-.55-4.84.31-1.33.69-3.09-.91-3-2.66s-1.15-3.28-.38-5.25A17.37,17.37,0,0,0,49,184.2a14.48,14.48,0,0,1,.23-4.45c.15-.79.91-1.46,1.47-2.3-2.8-.4-3.85-2.93-5.57-4.61-2.57-2.52-3.18-5.57-2.42-9.23a17.67,17.67,0,0,0,.51-6.53c-.27-1.69-.19-3.84,2.11-4.69.19-.07.3-.45.4-.7a5.23,5.23,0,0,1,4.15-3.41c2.54-.45,4.5-2.06,6.82-2.92a5.51,5.51,0,0,1,2.62-.37c2.82.43,5.61,1,8.47,1.57l-5.2-6.15c-3.53,3.08-9.57,7-14.22,3-2-1.53-4.18-3.69-7.44-2.5-1.07.39-2.52-.17-3.78-.41-5.35-1-9.57.79-13.07,4.88a7,7,0,0,0-1.22,6.56,98.52,98.52,0,0,0,6,16.73c1.8,3.59,4.88,6.07,7.8,8.67,1.45,1.3,3,2.49,4.51,3.72a3.2,3.2,0,0,1,1.34,3.38l-3-.33c3.55,15.78,6.72,31.43,4.75,47.65-3.8-.79-4.41-2.18-3.93-6.06a56.09,56.09,0,0,0-1.25-20.25,23.37,23.37,0,0,1-.68-4.14c-.28-5.35-1.85-10.41-3.25-15.52a5.49,5.49,0,0,1-.29-2.72c.46-1.74-.39-2.86-1.32-4-1.38-1.74-2.69-3.58-4-5.33-4.48-3.64-6.14-8.87-8-14-1-2.64-2-5.26-1.66-8.11s-.25-6.12,1.56-8.84c.36-.53.66-1.24,1.17-1.53,4.34-2.49,8.74-5.14,14-3.9a8.63,8.63,0,0,0,5.84-.71c-1.43-2.41-2.75-4.91-1.38-7.77a39,39,0,0,0,2.25-6.24,5.62,5.62,0,0,0-1.38-6,9.42,9.42,0,0,1-2.63-5.09c-.75-3.44-1.31-7.05-2.88-10.12a121.39,121.39,0,0,1-5.23-12.5c-2.89-5.15-5.74-10.34-9-15.27a7.43,7.43,0,0,0-3.29-4,3.7,3.7,0,0,1-1.62-1.85,13.59,13.59,0,0,0-4.19-5.51c-2.78-2.4-4.3-5.64-5.91-8.73C4.31,48,2.89,41.82,1.9,35.65-.47,30.72.49,25.44.14,20.28a33.61,33.61,0,0,1,.51-10c2-6.57,3.43-13.81,11.78-8.41,1.8.94,3.64,1.82,5.41,2.83,1.34.76,2.69,1.42,3.36,3.13,5.52,7.33,10.43,15.35,16.45,22.37,3,5.08,5.75,10.39,9.48,15A125.74,125.74,0,0,1,58.39,68c.8,2.18.79,4.78,2,6.65,2.85,4.44,2.5,9.52,3.29,14.31.42,2.52-.73,5.29-1.1,8a239.7,239.7,0,0,0-2.46,25.22,1.35,1.35,0,0,0,.68,1.17c.32-4.24,1.65-7.76,5.57-9.79,3.24-1.81,6.55-3.49,10.07-5.35a16.9,16.9,0,0,0-.57-2.83c-.77-2.13-.44-4.21,0-6.34.76-3.81,1.09-7.76,2.3-11.42C79,85,79.32,82.09,81.5,80.08a1.65,1.65,0,0,0,.46-.7c1.49-4.62,2.47-9.45,4.11-14,1.46-3.51,3.27-6.88,4.87-10.33,4.16-8.21,4.47-17.66,8.69-25.86a13.16,13.16,0,0,1,2.92-3.27,1.79,1.79,0,0,1,1.28-.37c2.88.22,6.08.16,8.36,2.21a12.37,12.37,0,0,0,5.17,2.61,4.6,4.6,0,0,1,1.79.68c13.13,11.27,26.25,22.61,37.95,35.39a17.32,17.32,0,0,1,5.22,12,36.87,36.87,0,0,0,.51,4.43,23.42,23.42,0,0,1-.74,9.65c-6.45,6.41-13.4,1.92-18-4.13-.4-.52-.77-1.33-1.27-1.43-1.86-.4-2.88-2-4.41-2.78-3-1.51-5.07-4-7.39-6.24a97.92,97.92,0,0,1-10.65-8.83,5.06,5.06,0,0,0-1.56,1c-2.41,3.07-5.16,5.9-6.87,9.5-3.35,5.64-7.5,10.89-10.69,16.65C98.79,101,96.51,105.77,94,110.74Zm-37.85,9.69a5.15,5.15,0,0,1,.22-1.05c.72-1.68.59-3-1.23-3.95a2.6,2.6,0,0,1-1.33-2.84,11.52,11.52,0,0,0,0-4.06c-1.16-4.65-1.06-9.42-1.54-14.14-.5-6.52-4.54-11.88-6.24-18.12a64.4,64.4,0,0,0-5.78-13c-2.63-4.81-4.7-9.88-7.74-14.54C27.41,40.38,22.61,32,17.55,23.54c-3,7.23,0,14.85,2.93,21.41,2.3,5,4.6,10,7,14.93C30.75,67.76,36.9,74,40.22,81.82c2.37,5.37,4.18,11,6.71,16.27s3.41,10.6,4.35,16.09a24,24,0,0,1,0,4.22c-1.7-.61-2.83-1.14-3-2.7-.49-4-2.86-7.68-2.57-11.91a4.69,4.69,0,0,0-.6-1.83c-2.14-6-5.54-11.54-8.34-17.23-1.22-3-2.27-6-5.07-8-2.15-3.2-4.21-6.58-6.39-9.79-1.11-1.67-2.94-3-2.58-5.35-1.2-2.84-2.84-5.67-4.22-8.46a104.74,104.74,0,0,1-7-16.45A18.77,18.77,0,0,1,10.64,32c-.26-4.59,1.34-8.93,2-13.41a2.84,2.84,0,0,1,2.64-2.48c1.47-.28,2.75.37,3.78,2.23,2.59,4.72,5.09,9.49,7.67,14.23.57,1,1.09,2.35,2,3,3.89,2.59,5.37,6.83,7.55,10.58s3.86,7.83,6.2,11.5c4.07,9,9.05,17.67,11.17,27.36,1.09,4.42,2,8.88,3,13.31,0,.14.26.23.72.61C59.83,90.45,60,81.56,56,73.54a6.14,6.14,0,0,1-.43-1.62c-.28-1.49-.62-2.86-2.33-3.48a3,3,0,0,1-1.45-1.6c-1.21-3-2.73-6-3.31-9.19C47.16,51.58,42.52,47.37,40,42c-2-4.29-5.25-7.65-7.92-11.43C26.92,23.83,21.49,17.3,17.26,10c-.84-1.46-1.6-2.69-3.35-3.05a3.19,3.19,0,0,1-1.52-.67c-1.56-1.49-3.3-1.33-5.12-.73a6,6,0,0,0-1.45,5.92c.35,1.84-.59,3.93-.52,5.8.31,4.72.56,9.47.76,14.18.93,7.27,3.48,14.1,6.26,20.8A36.7,36.7,0,0,0,18.7,62.3C21,65,22.94,68,25.45,70.67c7,8.9,11.59,19.62,15.37,30.22,2,5.1,4.58,10,4,15.81-.14,1.24.43,2.12,2,2a3.05,3.05,0,0,1,2.1.5c1,1,2.21.8,3.4.86S54.65,120.29,56.17,120.43Zm99.65-28.27a33.35,33.35,0,0,0,1.22-7.4c-.75-5.18-.43-11.32-4.43-15.23-5.93-6.25-12.27-12.29-18.34-18.33-2.66-4.21-6.9-6.75-10.43-10S117,33.89,112,32.34a1.69,1.69,0,0,1-.92-.61c-1.06-1.7-2.58-.91-4-.89a3.55,3.55,0,0,0-3.51,2.25C99.64,41.78,98.09,51.27,94.14,60c-2.58,6-4.82,12.12-7.43,18.09-1.73,3.81-3.95,7.41-4.44,11.71-1,6.27-1.74,12.18-2.26,18.65l5.77.69c-1.94-2.4-1.56-4.39-.88-6.53.85-2.82,1-5.85,1.69-8.73.6-2.44,1.25-4.86,1.84-7.3,1.48-8.07,5.35-15.45,8.78-22.83A50.1,50.1,0,0,1,100.69,58c.9-1.33,1.8-2.53,1.77-4.29,0-3.11,3.69-2.55,5.36-1.36,4.35,3.5,8.69,7,12.83,10.76,5.67,5.35,11.44,10.68,17.48,15.58a104.7,104.7,0,0,1,14.19,11.79A4.76,4.76,0,0,0,155.82,92.16ZM65.31,137.43a15.08,15.08,0,0,1,2.13,2.06c2.14,3.47,6,5.4,10.11,4,1.5-.72,3.6.23,5-.07,6.59-1.77,10.27-7.77,13.09-13.5a3.16,3.16,0,0,0,.32-1.36c.24-4,.56-9.48-2.44-12.44a11,11,0,0,0-6.92-2.53c-3.38.18-7-.55-10.17.89-2.49,1.2-4.94,2.5-7.33,3.91A9.44,9.44,0,0,0,64.91,130,11.65,11.65,0,0,1,65.31,137.43ZM91.5,97.1a193.17,193.17,0,0,0,12.28-25.22c1.08-2,4.55-10.44,7.5-7,.89,1,.53,1.93-.07,3-2.15,3.91-4.15,7.9-6.22,11.85-1.66,2.73-3.79,6.3-3.82,9.42,5.38-7.72,9.72-15.86,15.37-23.13.24-.3.13-.88.19-1.36l-10-7C100.39,70.59,94.3,83.15,91.5,97.1Zm-24.77,74c1.37,4.89,1.71,5.39,5.13,7.62a1.5,1.5,0,0,1,1-.91c3.43-.76,5.94-2.88,8.29-5.33,1.4-1.46,2.61-2.89,1.29-5.13,2.59-.81,3.41-2.65,3.67-4.92a12.21,12.21,0,0,0,.41-5.61l-4.51.4C81.17,163.61,73.31,170.2,66.73,171.05Zm-20.17-9.36c-1.39,4.09-1.64,7.19,2.86,9.15a3.7,3.7,0,0,1,1.42,1.24,16.31,16.31,0,0,0,6.59,5.32c4.27,2.11,9.7-4.18,3.93-6.37C57.8,169.89,54,169,51,166.56A47.39,47.39,0,0,1,46.56,161.69Zm12-23.73c2.3-5,2.69-6.13-.42-10.78-3-5.3-8.34-2.92-12.85-1.51-1.33,2.89-1.29,5.79-1,8.79a4.2,4.2,0,0,0,2.25,3.28,58.89,58.89,0,0,0,5.72,2.89C53.64,138.1,53.88,138,58.59,138Zm-6.46,56c2.62,1.26,5,.1,7.81-.7a27.93,27.93,0,0,1-1.24-5.36,31.84,31.84,0,0,1,.67-5.62L52.7,179Zm47.2-102c-.21-.27-.29-.42-.53-.25-.47.72-.92,1.45-1.38,2.18l.48.27Z"/><path class="cls-1" d="M155.82,92.16a4.76,4.76,0,0,1-3.5-1.64,104.7,104.7,0,0,0-14.19-11.79c-6-4.9-11.81-10.23-17.48-15.58-4.14-3.74-8.48-7.26-12.83-10.76-1.67-1.19-5.4-1.75-5.36,1.36,0,1.76-.87,3-1.77,4.29a50.1,50.1,0,0,0-3.48,5.67c-3.43,7.38-7.3,14.76-8.78,22.83-.59,2.44-1.24,4.86-1.84,7.3-.68,2.88-.84,5.91-1.69,8.73-.68,2.14-1.06,4.13.88,6.53L80,108.41c.52-6.47,1.27-12.38,2.26-18.65.49-4.3,2.71-7.9,4.44-11.71,2.61-6,4.85-12.1,7.43-18.09,4-8.69,5.5-18.18,9.39-26.87A3.55,3.55,0,0,1,107,30.84c1.43,0,2.95-.81,4,.89a1.69,1.69,0,0,0,.92.61c5,1.55,8.26,5.61,11.87,8.9s7.77,5.75,10.43,10c6.07,6,12.41,12.08,18.34,18.33,4,3.91,3.68,10,4.43,15.23A33.35,33.35,0,0,1,155.82,92.16Z"/><path class="cls-2" d="M65.31,137.43a11.65,11.65,0,0,0-.4-7.47,9.44,9.44,0,0,1,4.18-11.54c2.39-1.41,4.84-2.71,7.33-3.91,3.17-1.44,6.79-.71,10.17-.89a11,11,0,0,1,6.92,2.53c3,3,2.67,8.39,2.44,12.44a3.16,3.16,0,0,1-.32,1.36c-2.82,5.72-6.5,11.73-13.09,13.5-1.39.3-3.5-.65-5,.07-4.06,1.36-8-.56-10.11-4A15.08,15.08,0,0,0,65.31,137.43Zm16.13-4.3c-.15-2.82-1.06-4.27-3-4.51-2.31-.28-5,1.19-5.69,3.09a6.09,6.09,0,0,0,2.32,6.37C79.16,140.53,80.64,136.42,81.44,133.13Z"/><path class="cls-2" d="M58.59,138c-4.71,0-5,.14-6.31,2.67a58.89,58.89,0,0,1-5.72-2.89,4.2,4.2,0,0,1-2.25-3.28c-.28-3-.32-5.9,1-8.79,4.52-1.41,9.8-3.79,12.85,1.51C61.28,131.83,60.88,132.94,58.59,138Zm.24-5.58c.18-2.29-1.42-4-3-5.75a1.62,1.62,0,0,0-1.24-.44c-2.65.52-6.31.33-7.32,3.44-1,2.51.66,6,3.31,7.15,1.65.7,3.12.31,4.79-.2C58.25,135.7,58.83,135.33,58.83,132.38Z"/><path class="cls-2" d="M52.13,193.92,52.7,179l6.67,3.24a31.84,31.84,0,0,0-.67,5.62,27.93,27.93,0,0,0,1.24,5.36C57.14,194,54.75,195.18,52.13,193.92Z"/><path class="cls-2" d="M99.33,91.87l-1.43,2.2-.48-.27c.46-.73.91-1.46,1.38-2.18C99,91.45,99.12,91.6,99.33,91.87Z"/><path d="M81.44,133.13c-.8,3.29-2.28,7.4-6.37,5a6.09,6.09,0,0,1-2.32-6.37c.67-1.9,3.38-3.37,5.69-3.09C80.38,128.86,81.29,130.31,81.44,133.13Z"/><path d="M58.83,132.38c0,3-.58,3.32-3.45,4.2-1.67.51-3.14.9-4.79.2-2.65-1.14-4.3-4.64-3.31-7.15,1-3.11,4.67-2.92,7.32-3.44a1.62,1.62,0,0,1,1.24.44C57.41,128.35,59,130.09,58.83,132.38Z"/></g></g></svg>