<svg xmlns="http://www.w3.org/2000/svg" viewBox="0 0 214.65 256.21"><defs><style>.cls-1{fill:#fff;}.cls-2{fill:#706f6f;}.cls-3{fill:#b17f4a;}.cls-4{fill:#936037;}.cls-5{fill:#b2b2b2;}.cls-6{fill:#f9b233;}.cls-7{fill:#432918;}.cls-8{fill:#f39200;}</style></defs><g id="Calque_2" data-name="Calque 2"><g id="king_bunny" data-name="king bunny"><g id="Calque_6" data-name="Calque 6"><path class="cls-1" d="M106.57,133.07c3.22,0,3.22-5,0-5s-3.22,5,0,5Z"/><path class="cls-1" d="M129.37,99.81c3.22,0,3.22-5,0-5s-3.22,5,0,5Z"/><path class="cls-1" d="M91.92,111c3.22,0,3.22-5,0-5s-3.22,5,0,5Z"/><path class="cls-1" d="M85.2,113a37,37,0,0,0,4.08.05,2.63,2.63,0,0,0,1.77-.73,2.53,2.53,0,0,0,.73-1.77,2.57,2.57,0,0,0-.73-1.77,2.59,2.59,0,0,0-1.77-.73A37,37,0,0,1,85.2,108a2.5,2.5,0,0,0-1.77,4.27l.51.39a2.43,2.43,0,0,0,1.26.34Z"/><path class="cls-1" d="M124.42,120.25h-2.21a1.88,1.88,0,0,0-1,.22,2.16,2.16,0,0,0-1.32,1.32,1.86,1.86,0,0,0-.22,1l.09.66a2.48,2.48,0,0,0,.64,1.11l.51.39a2.43,2.43,0,0,0,1.26.34h2.21a1.88,1.88,0,0,0,1-.22,1.83,1.83,0,0,0,.8-.51,2.83,2.83,0,0,0,.74-1.77l-.09-.66a2.5,2.5,0,0,0-.65-1.11l-.5-.39a2.53,2.53,0,0,0-1.26-.34Z"/><path class="cls-1" d="M133.52,129.87a15.46,15.46,0,0,1-5.45,5.88c-1.25.89-2.54,1.77-3.87,2.54a5.13,5.13,0,0,1-3.68,1,3,3,0,0,1-1.81-2,23.4,23.4,0,0,1-1.26-4.51,43.76,43.76,0,0,1-.93-10.08,2.53,2.53,0,0,0-2.5-2.5,2.56,2.56,0,0,0-2.5,2.5l-1.31,11.4a2.52,2.52,0,0,0,2.5,2.5,2.55,2.55,0,0,0,2.5-2.5l1.31-11.4h-5a49.16,49.16,0,0,0,1.4,12.67c.88,3.58,2.29,7.66,6.27,8.71,4.15,1.09,7.88-1.55,11.11-3.78,3-2.09,5.94-4.51,7.54-7.89a2.56,2.56,0,0,0-.9-3.42,2.51,2.51,0,0,0-3.42.9Z"/><path class="cls-1" d="M117.16,118.35c0-1.63,1.26-1.9,2.59-1.71a47.15,47.15,0,0,1,7,1.59,37.89,37.89,0,0,1,6.27,2.36c1.41.72,2.78,1.54,3.05,3.18l3.08-3.07L124.31,117a2.5,2.5,0,0,0-1.93,4.57,127.88,127.88,0,0,0,18.5,6.75l-1.74-3.07-.09.2.64-1.1-.16.14,1.1-.64a3.49,3.49,0,0,1-1-.08,18.43,18.43,0,0,0-2-.09c-1.4,0-2.79.11-4.19.22a19.4,19.4,0,0,1-7.74-.43l-.66,4.91c2.64.15,5.27.4,7.89.8a5.71,5.71,0,0,0,1.39.24c-.08,0-.29-.53-.16-.15a2.48,2.48,0,0,0,.3.49,3.63,3.63,0,0,0,1.5,1.3,3.21,3.21,0,0,0,1,.28l.52.07c.31,0,.24,0-.22,0l-.9-.89.14.22-.35-1.27v.25l.34-1.26-.17.24.89-.9a10.14,10.14,0,0,1-3,1.27,6,6,0,0,1-3.07-.35c-2.5-.76-5-1.67-7.38-2.64-2-.78-4.2-1.51-5.63-3.12s-2.52-3.23-4.69-3.73a2.57,2.57,0,0,0-3.08,1.74,6.37,6.37,0,0,0,.07,3.1,6.45,6.45,0,0,1-.4,2.42,15.9,15.9,0,0,0-.72,5.43,13.3,13.3,0,0,0,4.39,9.23c1.32,1.12,3.78.88,4.18-1.11a11.91,11.91,0,0,0-.58-5.73l-1.51-5.53-4.57,1.93a21.4,21.4,0,0,1,3.52,11,2.52,2.52,0,0,0,4.66,1.26c1.22-2,.7-4.21.34-6.41a44.79,44.79,0,0,1-.55-6.94L115,131.34c1.34,1.48,1.31,3.82,1.46,5.7.2,2.44.5,6.29,2.86,7.7,5.51,3.3,7.08-10.44,7.33-13.44l-4.91.67c.88,3.05,1.83,6.25.86,9.39a2.53,2.53,0,0,0,3.08,3.08A15.3,15.3,0,0,0,133,140.3a42.87,42.87,0,0,0,6.23-6.75c1.17-1.63-.42-3.68-2.16-3.76-3.21-.14-6.38.72-9.5,1.39l-9.62,2.08,1.93,4.57L134.78,128c1.93-1.27,1.38-4.84-1.26-4.66a121,121,0,0,1-15.35.33l1.27,4.66a21.19,21.19,0,0,1,6.85-2.81l-1.93-4.57a17.21,17.21,0,0,1-4.23,1.27l2.82,3.67c1.2-1.64,3.4-3.64,2.63-5.86s-3.62-3.06-5.7-3.18l2.16,3.76a3.77,3.77,0,0,0-1.41-5.09,2.52,2.52,0,0,0-3.76,2.16c0,2,0,3.95,0,5.93l4.27-1.77a3.31,3.31,0,0,1-.7-2.2,2.53,2.53,0,0,0-3.76-2.16,4.81,4.81,0,0,0-2.32,5.94,2.58,2.58,0,0,0,3.07,1.75,2.51,2.51,0,0,0,1.75-3.08c-.13-.32-.39-.09,0-.29l-3.76-2.16a8.66,8.66,0,0,0,2.17,5.73c1.42,1.7,4.29.28,4.26-1.76s0-4,0-5.93l-3.76,2.15-.39-1.75a2.54,2.54,0,0,0,2.16,3.77,2.29,2.29,0,0,1,1.52.61l-.64-1.1.12.31v-1.33c.07-.3-.23.27-.25.3-.25.32-.48.65-.71,1l-1.28,1.76c-1.42,2,.91,4,2.82,3.67a22.06,22.06,0,0,0,5.42-1.77,2.49,2.49,0,0,0,1-3.12,2.53,2.53,0,0,0-3-1.45,25.56,25.56,0,0,0-8,3.31,2.52,2.52,0,0,0,1.26,4.66,121,121,0,0,0,15.35-.33l-1.26-4.66-14.95,9.86a2.51,2.51,0,0,0,1.93,4.57l9.14-2c2.85-.62,5.72-1.44,8.65-1.32L134.87,131a37.07,37.07,0,0,1-5.16,5.47,10.91,10.91,0,0,1-5.41,3.12l3.07,3.07c1.24-4,.26-8.13-.86-12.05-.81-2.82-4.68-2.07-4.91.66a32.51,32.51,0,0,1-.87,5.19c-.37,1.48-.73,3.5-1.68,4.74l.9-.9-.25.17,1.26-.34h-.3l1.26.34-.25-.17.9.9c-1.34-1.85-1.11-4.43-1.36-6.58a11.72,11.72,0,0,0-2.73-6.86c-1.46-1.62-4.29-.33-4.26,1.77a51.36,51.36,0,0,0,.43,6.19c.13,1,.29,2,.46,3a2.47,2.47,0,0,1,0,1.61l4.66,1.27a26.36,26.36,0,0,0-4.2-13.48c-1.51-2.33-5.35-.9-4.57,1.92l1.26,4.61c.32,1.18,1.08,2.76.83,4l4.18-1.11a8.38,8.38,0,0,1-3-6.42,15.5,15.5,0,0,1,.75-4,11.26,11.26,0,0,0,.41-2.64,9.93,9.93,0,0,0-.16-1.55l-.09-.41c-.14-.45-.14-.54,0-.26L112.14,124c.94.22,1.54,1.33,2.15,2.06a11.36,11.36,0,0,0,3.6,2.82,73.82,73.82,0,0,0,9.71,3.87,22.67,22.67,0,0,0,5.1,1.33,10.33,10.33,0,0,0,5.15-1.07c1.54-.68,3.3-1.51,3.3-3.46a3,3,0,0,0-1.37-2.5,8.26,8.26,0,0,0-2.16-.7l1.11.65c.11.09-.06,0-.14-.13a4.94,4.94,0,0,0-.3-.49,4.25,4.25,0,0,0-1.4-1.3,10.13,10.13,0,0,0-3.56-.88c-2.74-.39-5.49-.68-8.25-.83-2.93-.17-3.24,4-.67,4.91,3.39,1.12,6.91.77,10.4.51a26.76,26.76,0,0,1,4.82,0c2,.21,3.5-.19,4.33-2.2a2.52,2.52,0,0,0-1.75-3.07,120.75,120.75,0,0,1-17.31-6.25L123,121.85l14.88,3.67a2.54,2.54,0,0,0,3.07-3.08c-.44-2.74-2.69-4.75-5-6a44.14,44.14,0,0,0-9.12-3.42c-1.58-.43-3.17-.78-4.78-1a11.86,11.86,0,0,0-4.85-.24,6.72,6.72,0,0,0-5,6.62c.1,3.21,5.1,3.23,5,0Z"/><path class="cls-1" d="M94.47,133.47c-1.26-2-2.66-4-3.73-6.08a6.78,6.78,0,0,1-.56-4.85,7,7,0,0,1,2.43-3.85c1.68-1.3,3.88-1.82,5.9-2.36,2.75-.74,2.14-4.84-.66-4.91l-4-.1c-1.76,0-3.31,2.22-2.16,3.77a4.44,4.44,0,0,0,2.43,1.8,8.25,8.25,0,0,0,2.67,0c1.3,0,2.35,1,3.25,1.84a12.17,12.17,0,0,1,3.76,7.44,11.22,11.22,0,0,1-.52,4.53,4.4,4.4,0,0,1-.83,1.66,3.18,3.18,0,0,1-1.65.51c-3,.52-6.45,1.13-9.28-.18l-1.26,4.65a30.53,30.53,0,0,0,5-.73,16.28,16.28,0,0,0,4.58-1.54c1.92-1.17,1.74-3.63.31-5.12a6.28,6.28,0,0,0-4.24-1.87,5.81,5.81,0,0,0-2.11.3c-.69.25-1.55.35-.29.55.65-.12,1,.16,1,.83a.54.54,0,0,1-.14.46s-.08.08-.1,0,.66,0,.65,0a5,5,0,0,1,1.46.47c2.46,1.19,4.32,3.55,6.19,5.46a2.55,2.55,0,0,0,3,.4c4.53-3.14-2.36-8.49-5.39-9.53-2.12-.74-4-.06-6.19,0-1.35,0-1.46-.62-1.26-1.83l-3.68,1.49a31,31,0,0,0,11.11,4.33c1.23.22,2.83-.32,3.07-1.75a15.49,15.49,0,0,1,.66-2.49,2.55,2.55,0,0,0-1.15-2.83,11.93,11.93,0,0,0-6.39-2.2,12.09,12.09,0,0,0-3.23.31l-.49.13c-.48.15-.21-.11.12.14-.08-.06.76,1.85.7,1.1,0-.3.21-.14.08-.07l-1.27.34.27,0-1.26-.34a12.63,12.63,0,0,0,1.8,1.08,4.61,4.61,0,0,0,2.39.07,5.58,5.58,0,0,0,2-.91,10.66,10.66,0,0,0,1.06-.85c1.07-1-1.12,1-1.27-.86,0,.5.74,1.35,1,1.81l1,1.9a6.33,6.33,0,0,1,1.19,3.52l4.27-1.77a29.77,29.77,0,0,0-5-4.82,30.45,30.45,0,0,0-2.83-2c-.4-.24-.8-.54-1.21-.75.16.09-.21-.15-.18-.17s-.06,1.39,0,.77l-1.74,1.75.63-.08A2.52,2.52,0,0,0,96.21,119a2.56,2.56,0,0,0-3.07-1.75l-.63.09a2.39,2.39,0,0,0-1.75,1.75c-.47,3.44,2.11,4.73,4.6,6.38a26.42,26.42,0,0,1,5.85,5.42,2.47,2.47,0,0,0,2.73.52,2.56,2.56,0,0,0,1.53-2.29,10,10,0,0,0-1.51-5.37,45.76,45.76,0,0,0-2.54-4.61c-1.5-2.18-4-2-5.89-.4-.14.12-1.15,1-1.19.91-.27-.76,1,.88.25-.1a2.88,2.88,0,0,0-1.7-.8c-2.11-.3-3.82,1.69-4.38,3.55a3.81,3.81,0,0,0,2.87,4.8c1.69.38,3.3-.45,5-.33a7.32,7.32,0,0,1,3.87,1.52L99.1,125.5a15.34,15.34,0,0,0-.66,2.5l3.08-1.75a27,27,0,0,1-9.91-3.83,2.53,2.53,0,0,0-3.68,1.5,7.66,7.66,0,0,0,.85,5.72,6.11,6.11,0,0,0,5.4,2.44c1.62-.07,3.35-.75,4.84-.1a6.66,6.66,0,0,1,1.89,1.35c.32.3.63.63.93,1,.86,1-.08.23.26-.6l1.15-1.49-.17.12,3,.39a45.1,45.1,0,0,0-5.77-5.37c-2.11-1.51-5.13-2.65-7.71-1.72-3,1.08-4.27,4.94-1.7,7.18a3.62,3.62,0,0,0,2.43.92,7,7,0,0,0,1.92-.52.85.85,0,0,1,.7,0c1,.24-.49,0,.48.21.21.06.09.49,0-.12v-1.33l-.1.28.64-1.11c.82-.64.21-.22-.13-.1s-.63.22-.95.33c-.63.2-1.28.38-1.93.53a21.91,21.91,0,0,1-3.69.55,2.58,2.58,0,0,0-2.41,1.84A2.49,2.49,0,0,0,89,137.05a17.31,17.31,0,0,0,9.7,1.21,28.34,28.34,0,0,0,4.76-.8,6.42,6.42,0,0,0,3.84-3.45c2.94-6,1.41-13.15-3-18a14.61,14.61,0,0,0-3.92-3.17,7.38,7.38,0,0,0-3-.86,8.38,8.38,0,0,0-1.23.08,2.37,2.37,0,0,0-.54,0c-.31.12-.18-.36.46.5l-2.16,3.76,4,.1-.67-4.91a21.17,21.17,0,0,0-7.38,3.08,12,12,0,0,0-4.36,6.33,11.72,11.72,0,0,0,.27,7.38,46.88,46.88,0,0,0,4.44,7.7c1.72,2.71,6,.2,4.32-2.53Z"/></g><path class="cls-2" d="M198.86,47.62c3.22,0,3.22-5,0-5s-3.22,5,0,5Z"/><path class="cls-2" d="M195.07,45.19c.09,7.78-3,15.19-4,22.84l4.91-.67-.14-.61A2.53,2.53,0,0,0,192.74,65,2.55,2.55,0,0,0,191,68.08l.14.61a2.48,2.48,0,0,0,2.74,1.79A2.56,2.56,0,0,0,196,68c1-7.7,4.13-15,4-22.84,0-3.21-5-3.22-5,0Z"/><path class="cls-2" d="M191.45,66.62c3.22,0,3.23-5,0-5s-3.22,5,0,5Z"/><path class="cls-2" d="M200.5,49.67c3.22,0,3.23-5,0-5s-3.22,5,0,5Z"/><path class="cls-2" d="M203.85,48.15q-.16-6.63.18-13.26h-5a16,16,0,0,1-1.73,6.71L202,42.86c.07-5.19,1.94-10.18,1.81-15.39-.09-3.21-5-3.23-5,0,0,2.64-.12,5.29-.38,7.92-.12,1.21-.27,2.42-.46,3.63-.07.45-.11,1.66-.53,1.92l3.68,1.5c.07.34.17,0,.34-.31l.62-.84a18.84,18.84,0,0,0,1.25-1.94,32.61,32.61,0,0,0,1.87-4,43.62,43.62,0,0,0,2.74-8.83c.53-3.35.22-6.72.35-10.09a58.72,58.72,0,0,1,1.29-10.15c.68-3.14-4.11-4.48-4.82-1.33a27.29,27.29,0,0,0,1,15.47l3.08-3.07a5.6,5.6,0,0,0-5.87,1.46,5.91,5.91,0,0,0-1.38,2.7c-.09.42-.13.87-.24,1.28s.15.16-.21.49l4.18,1.1-1.18-3.42a8.64,8.64,0,0,0-1.55-3.28c-1.57-1.67-4.41-1.45-6.51-1.23a22.23,22.23,0,0,0-12.2,5.21c-3.54,3-6.39,7-9.2,10.67s-5.66,7.64-8.41,11.51c-2.93,4.12-5.67,8.37-7.22,13.23-1,3.07,3.85,4.39,4.82,1.33a38.64,38.64,0,0,1,5.33-10.05c2.26-3.29,4.61-6.52,7-9.74s4.92-6.54,7.59-9.65c2.39-2.78,5-5.32,8.52-6.57a17.11,17.11,0,0,1,5.88-1.05l.62,0c.26,0,.93.21.36-.15s0,.5.09.85l1.27,3.65a2.52,2.52,0,0,0,4.17,1.1A6.54,6.54,0,0,0,206.3,23c.18-.83.34-1.12,1.13-.83a2.51,2.51,0,0,0,3.07-3.07,22.54,22.54,0,0,1-1-12.82l-4.82-1.33a67.08,67.08,0,0,0-1.44,10.75c-.17,3.41.36,7-.36,10.36A46,46,0,0,1,200,34.76a21.53,21.53,0,0,1-2.29,4c-1.14,1.56-1.88,3-1.47,5a2.53,2.53,0,0,0,3.68,1.49c2.75-1.7,2.89-5.06,3.25-8a78.83,78.83,0,0,0,.59-9.83h-5c.13,5.2-1.74,10.19-1.81,15.39,0,2.4,3.51,3.51,4.66,1.26A22,22,0,0,0,204,34.89c.12-3.22-4.83-3.2-5,0q-.34,6.63-.18,13.26c.08,3.21,5.08,3.23,5,0Z"/><path class="cls-2" d="M203,14.54c-2,.17-4.05-.18-6.07.06a11.79,11.79,0,0,0-3.62,1l-.61.29-.3.15s-.37.14-.12.05-.28.06-.35.1c-.22.11.22,0,.26,0-.52,0,.62.2.67.22l.33,1.21c.55.62.58,1.11.08,1.44-.05,0-.31.35-.47.32a2.53,2.53,0,0,0,.64-.17,9.87,9.87,0,0,0,1.57-.58,11.48,11.48,0,0,0,2.35-1.54c.61-.48,1.19-1,1.79-1.49l.21-.18c.22-.19-.14.12-.14.11s.39-.29.44-.32c.33-.23.67-.4,1-.6s-.16.08-.19.07.29-.1.34-.12c.23-.07.46-.12.69-.17a5.17,5.17,0,0,0,1.79-.67,8,8,0,0,0,2.42-2.77l-4.57-.6c-.08-.52,0,.23,0,.28a5.83,5.83,0,0,1,0,.59,11.3,11.3,0,0,1,0,1.3c0,.47,0-.12,0,.16s-.07.38-.12.58a11.1,11.1,0,0,1-.4,1.36h4.82a4.1,4.1,0,0,1-.19-.66c.08.53,0-.18,0-.25,0,.36,0,.06.05-.14s.23-.7.13-.47.14-.27.17-.32c.11-.21.22-.4.35-.6.24-.39.5-.77.77-1.15a2.51,2.51,0,0,0-.9-3.42,2.56,2.56,0,0,0-3.42.89c-1.5,2.15-2.81,4.79-1.83,7.44a2.5,2.5,0,0,0,4.82,0A14,14,0,0,0,205.94,9a2.48,2.48,0,0,0-2.08-1.79,2.51,2.51,0,0,0-2.49,1.2c-.11.2-.23.39-.35.59l-.17.24c-.1.15-.28.23,0,0-.18.16-.4.34,0,.13l-.33.19c.23-.12.23-.08,0,0a8.8,8.8,0,0,0-2.93,1.09,19.79,19.79,0,0,0-2.48,1.89c-.31.26-.61.53-.92.78a2.6,2.6,0,0,1-.29.24s.38-.28.14-.12-.39.29-.6.42-.36.22-.55.32l-.24.12c-.24.14.17-.09.19-.07a4.3,4.3,0,0,0-.63.19,7.88,7.88,0,0,0-.83.24,3.61,3.61,0,0,0-2.52,4.24c.47,1.86,2.44,2.55,4.16,2.25a7,7,0,0,0,1.59-.56l.72-.33.3-.15c.17-.08.46-.19.12-.06a7.4,7.4,0,0,1,.91-.29l.35-.08c.1,0,.61-.06.16,0,.6,0,1.2-.06,1.81-.05,1.34,0,2.68.13,4,0a2.5,2.5,0,0,0,0-5Z"/><path class="cls-2" d="M106.18,116.43a3.34,3.34,0,0,0,1.61.4,3.22,3.22,0,0,0,1.54-.43,3.27,3.27,0,0,0,1.51-2.21c.2-.86.39-1.72.58-2.58a2.61,2.61,0,0,0-.13-1.63,2.38,2.38,0,0,0-1-1.19,2.93,2.93,0,0,0-1.26-.34,1.89,1.89,0,0,0-1,.21,1.92,1.92,0,0,0-.8.52l-.1.08.5-.39a2.5,2.5,0,0,1-.5.29l.6-.25a3.25,3.25,0,0,1-.74.2l.66-.09a4.74,4.74,0,0,1-1.19,0l.66.09a10.87,10.87,0,0,1-1.87-.46,2.5,2.5,0,0,0-3.08,1.75,2.52,2.52,0,0,0,.25,1.92,2.62,2.62,0,0,0,1.5,1.15,11.23,11.23,0,0,0,3,.6,4,4,0,0,0,.6,0,7.69,7.69,0,0,0,1.17-.18,5.56,5.56,0,0,0,2-1.14l-4.18-2.43-.35,1.55a8,8,0,0,1-.35,1.46l.25-.59a.75.75,0,0,1-.07.12l.39-.5-.12.12.5-.39-.15.08.6-.25-.18,0,.67-.09a1.08,1.08,0,0,1-.18,0l.67.08a.27.27,0,0,1-.12,0l.6.26-.05,0a2,2,0,0,0-.93-.3,1.89,1.89,0,0,0-1,0,2.53,2.53,0,0,0-1.49,1.15,2.49,2.49,0,0,0-.25,1.92,2.41,2.41,0,0,0,1.14,1.5Z"/><path class="cls-2" d="M95.77,108.06v-.33a1.86,1.86,0,0,0-.22-1A1.93,1.93,0,0,0,95,106a2.05,2.05,0,0,0-.81-.52,2,2,0,0,0-1-.21l-.66.09a2.48,2.48,0,0,0-1.11.64l-.39.51a2.53,2.53,0,0,0-.34,1.26v.33a1.88,1.88,0,0,0,.22,1,2.16,2.16,0,0,0,1.32,1.32,1.88,1.88,0,0,0,1,.22l.66-.09a2.48,2.48,0,0,0,1.11-.64l.39-.51a2.43,2.43,0,0,0,.34-1.26Z"/><path class="cls-2" d="M92.45,109.57c3.22,0,3.22-5,0-5s-3.22,5,0,5Z"/><path class="cls-2" d="M90,107.07v.17a1.88,1.88,0,0,0,.22,1,1.83,1.83,0,0,0,.51.8,2.83,2.83,0,0,0,1.77.74l.66-.09a2.5,2.5,0,0,0,1.11-.65l.39-.5a2.53,2.53,0,0,0,.34-1.26v-.17a1.88,1.88,0,0,0-.22-1,1.83,1.83,0,0,0-.51-.8,2.83,2.83,0,0,0-1.77-.74l-.66.09a2.5,2.5,0,0,0-1.11.65l-.39.5a2.43,2.43,0,0,0-.34,1.26Z"/><path class="cls-2" d="M105.91,196.38c3.21,0,3.22-5,0-5s-3.23,5,0,5Z"/><path class="cls-2" d="M106.4,196.38c3.22,0,3.22-5,0-5s-3.22,5,0,5Z"/><path class="cls-2" d="M64.84,164v9.68a2.5,2.5,0,0,0,5,0V164a2.5,2.5,0,0,0-5,0Z"/><path class="cls-2" d="M73.26,152.29a10.59,10.59,0,0,0-6.85,3,10.94,10.94,0,0,0-2.92,6.3,12.35,12.35,0,0,0,.57,5.75,23.85,23.85,0,0,1,1.26,3.86l-.27-2c.4,3-.38,6.07-.23,9.12a28.69,28.69,0,0,0,2,9.38c2.64,6.45,7.53,13.49,14.82,15l-4.48-11a3.53,3.53,0,0,1-.43.69c.1,0,1.3-1.51.29-.41a10.4,10.4,0,0,1-1.35,1.22H86.25a28.73,28.73,0,0,0-5.46-5c-.84-.64-1.69-1.26-2.54-1.89-.32-.24-.63-.49-1-.72,2,1.42.4.29,0-.07a20.67,20.67,0,0,1-2-2c-.45-.49-1.26-2-.12,0-.27-.46-.64-.88-.93-1.33a33.37,33.37,0,0,1-2.84-5.43l.76,1.8a44.22,44.22,0,0,1-3.06-10.68l.27,2a30.84,30.84,0,0,1,.11-7.68l-.27,2c.33-2.33.82-4.63,1.34-6.92a37.31,37.31,0,0,1,1.73-6L71.5,153a16.39,16.39,0,0,1,.76-1.51c.34-.57,1.24-1.34-.23.17.59-.61,1.16-1.22,1.8-1.79.44-.37.2-.18-.74.56l.65-.45c.33-.22.67-.42,1-.62a23,23,0,0,1,2.57-1.31l-1.79.76a14.49,14.49,0,0,1,3.16-.92l-2,.27a13.28,13.28,0,0,1,3.15,0l-2-.27a13.48,13.48,0,0,1,3,.85L79.11,148a11.77,11.77,0,0,1,1.57.83c.23.14,1,.73,0,0-.49-.4-.59-.47-.29-.22.47.41.25.12-.66-.9l-1-3.78-.05.42,1-3.79c-.31.53-.67,1-1,1.51-.86,1.21,1.08-1.33-.1.12-.34.42-.69.83-1,1.24L77,144q-.81.78.72-.54l1.79-.76a11.83,11.83,0,0,1-1.66.41,12.31,12.31,0,0,0-3,1.24,13.62,13.62,0,0,0-4.59,4.5c-2.17,3.27-.75,8.44,2.69,10.26a7.68,7.68,0,0,0,10.26-2.69c-.78.94-1,1.19-.6.76a3.78,3.78,0,0,1,.4-.4c.1.15-1.8,1.13-.26.35L81,157.9a15.63,15.63,0,0,1,2.21-.58,10.27,10.27,0,0,0,4.46-2.7,46.19,46.19,0,0,0,4.3-5.37c2.44-3.37,2.49-8.18-.73-11.14a19.72,19.72,0,0,0-6.68-4,18.34,18.34,0,0,0-12.4,0c-3.8,1.43-7.74,3.53-10.45,6.65a25.35,25.35,0,0,0-5.34,11.38,77.08,77.08,0,0,0-2.13,12.7c-.47,7.76,2.14,16,5.81,22.81a30.43,30.43,0,0,0,7.58,9.22c1.72,1.39,3.51,2.76,5.32,4-1.87-1.31-.69-.53-.28-.19s.79.68,1.17,1a16.86,16.86,0,0,1,1.84,2,7.38,7.38,0,0,0,5.3,2.19,8.8,8.8,0,0,0,5.31-2.19,15.92,15.92,0,0,0,3.83-4.54c2.34-4,.29-10-4.48-11a9.22,9.22,0,0,1-1.47-.44l1.79.76a9.81,9.81,0,0,1-1.36-.72,7.23,7.23,0,0,1-.64-.44c1,.79,1.19.93.61.43a27.57,27.57,0,0,1-1.91-2c-.48-.61-.34-.42.43.57l-.46-.66c-.22-.33-.44-.66-.65-1a24.6,24.6,0,0,1-1.45-2.85l.76,1.79a23.72,23.72,0,0,1-1.55-5.79l.26,2c-.34-2.91.17-5.71.22-8.61a17.48,17.48,0,0,0-.83-5.83,22.1,22.1,0,0,1-1.28-3.94l.27,2a6,6,0,0,1,0-.95l-.27,2a6,6,0,0,1,.24-.93l-.76,1.79c.32-.75.77-.93-.54.45.79-.83-1.66,1-.56.51l-1.79.76.28-.08-2,.27.3,0a8.24,8.24,0,0,0,5.31-2.2,7.52,7.52,0,0,0,0-10.61c-1.37-1.25-3.38-2.42-5.31-2.19Z"/><path class="cls-2" d="M133.44,153.08A12.8,12.8,0,0,0,144.82,150a18.8,18.8,0,0,0,4.47-6.25,28,28,0,0,1,1.41-2.72c.13-.21.26-.42.41-.62-.82,1-1,1.22-.48.64,1.39-1.32-1.06.73-.13,0a10,10,0,0,0,3.11-3.21,8,8,0,0,0-7-11.93,7.52,7.52,0,0,0-6.48,3.71,7.71,7.71,0,0,0,0,7.57c2.14,4.16,6,6.78,9.67,9.49l-.77-.6.58.48c.34.28.67.57,1,.87s.67.66,1,1c.18.19,1.3,1.58.44.47s.2.33.35.55c.26.39.5.79.73,1.2a27.35,27.35,0,0,1,1.33,2.72l-.76-1.79a33.77,33.77,0,0,1,2.13,8.27l-.27-2a69.89,69.89,0,0,1,.42,9.38,69.21,69.21,0,0,1-.44,8.51l.27-2a20.84,20.84,0,0,1-1.24,4.79l.76-1.79c-.22.5-.45,1-.72,1.48-.16.27-.59,1.26-.89,1.36.08,0,1.15-1.37.41-.58-.18.2-.35.4-.54.59-.37.39-.77.76-1.17,1.12l-.62.52c-.78.67.45-.26.56-.42a6.1,6.1,0,0,1-1.33,1c-1,.68-2,1.33-3,2l-13.56,8.79c-3.29,2.13-5,6.75-2.69,10.26,2.11,3.29,6.73,5,10.26,2.69,5.3-3.43,10.65-6.79,15.89-10.31a32.51,32.51,0,0,0,7.33-6.19A22.4,22.4,0,0,0,170,179.2a55.24,55.24,0,0,0,.91-9.77,89.31,89.31,0,0,0-.16-9.4c-.54-6.54-2-13.35-5.88-18.79a34.63,34.63,0,0,0-8.11-8L155.12,132c2.08,1.52.08,0-.36-.36s-.93-1-1.42-1.44c1.32,1.26.83,1.16.51.66s-.52-.83-.74-1.27l-6.48,11.29h.23l-5.31-2.19-.88-1.13-1-3.79v.25l1-3.78,2-2-1.06.81a12.41,12.41,0,0,0-1.31,1.09,18.43,18.43,0,0,0-2,2.51,22,22,0,0,0-1.77,3.14,29.82,29.82,0,0,1-1.62,3.06c-.72,1.14.89-.94.32-.44-.08.07-.66.73-.7.69s1.57-1,.61-.48a9.11,9.11,0,0,1-1,.51l1.79-.76a6.09,6.09,0,0,1-1,.26l2-.26a5.56,5.56,0,0,1-1.08,0l2,.27-.36-.08c-3.83-.8-8.29,1.12-9.23,5.24-.85,3.76,1.13,8.37,5.24,9.23Z"/><path class="cls-2" d="M143.85,154c.21.12.42.26.63.4-1-.81-1.23-1-.65-.47.31.31.61.62.91.94s.18.18-.6-.79a7.49,7.49,0,0,1,.41.63,11.1,11.1,0,0,1,.68,1.33l-.76-1.79c.14.35.26.7.37,1.06l9.22-9.23-.28-.1,1.8.76c-.37-.16-.68-.4-1-.57q1.67,1.32.81.6-.22-.19-.45-.42c-.59-.57-1.13-1.2-1.73-1.77a12.84,12.84,0,0,0-8.53-3.87l2,14.73a3.66,3.66,0,0,1,.79-.2l-2,.27a5.53,5.53,0,0,1,1.22,0l-2-.26a3,3,0,0,1,.78.22l-1.79-.76.37.17a7.7,7.7,0,0,0,6.67.38,7.47,7.47,0,0,0,4.34-4.86,10.72,10.72,0,0,0-1.34-9.21,8.56,8.56,0,0,0-3.59-3.07,7.2,7.2,0,0,0-4.88-.38,7.85,7.85,0,0,0-5.51,7.23,23.83,23.83,0,0,0,1.83,10.1,39.6,39.6,0,0,1,2.64,8.47l-.27-2a17,17,0,0,1,0,3.7l.27-2a37.89,37.89,0,0,1-2.66,9.26l.76-1.8a45.27,45.27,0,0,1-3.28,6.34c-.3.47-.6.94-.92,1.39-.15.23-.31.45-.47.66.77-1,.91-1.16.42-.56-.36.4-.71.81-1.1,1.18-.19.19-.39.37-.59.54,1-.74,1.18-.89.55-.44a29.51,29.51,0,0,0-6.26,5l-5.36,5.71c-2.68,2.86-3,7.81,0,10.61s7.74,3.05,10.61,0l4.35-4.64c.67-.72,1.33-1.45,2-2.15.28-.29.58-.54.86-.82.54-.54-.71.65-.72.56s.61-.39.68-.44a22.59,22.59,0,0,0,5.29-4.18,37.72,37.72,0,0,0,4.05-5.59c4.65-7.77,8.22-17.81,5.74-26.85-1-3.81-3-7.32-3.61-11.27l.26,2a14,14,0,0,1-.06-2.75l-14,3.79a4.18,4.18,0,0,1,.56.93l-.75-1.79a4.29,4.29,0,0,1,.2.7l-.27-2a5,5,0,0,1,0,1.09l.27-2a2.88,2.88,0,0,1-.18.7l11-4.48a12,12,0,0,0-8.93-1,7.52,7.52,0,0,0,2,14.74h.29l-2-.27a4.57,4.57,0,0,1,1.08.3l-1.8-.76c.77.38,1.23,1.14-.32-.41.21.21.45.4.67.6.48.47.92,1,1.4,1.45a15.81,15.81,0,0,0,6.11,3.92c5.4,1.95,10.8-4,9.22-9.23a18.25,18.25,0,0,0-7.88-10.28,7.58,7.58,0,0,0-10.26,2.69A7.67,7.67,0,0,0,143.85,154Z"/><path class="cls-2" d="M115.59,210.21l-6.12-.05a46.37,46.37,0,0,1-5.27-.14l2,.26A7.64,7.64,0,0,1,105,210l1.8.76c-.34-.15-1.08-.68,0,.14a2.47,2.47,0,0,1,.93.94c.44.64.53.72.27.27l-8.47,11,3.09.67-5.24-5.24.09.22v-4l0,.2,1.93-3.3,1.11-.86,1.79-.76a1.78,1.78,0,0,1-.6.16l2-.27a41.7,41.7,0,0,1-4.44-.54l-4.62-.59c-2.26-.29-4.6,1.28-5.89,3a7.1,7.1,0,0,0-1.35,6.54,52.35,52.35,0,0,1,2.86,11.37l-.26-2a53.66,53.66,0,0,1,0,13.52l.26-2c-.32,2.36-1.15,4.89-1,7.27a8.78,8.78,0,0,0,4.23,7.22,15.34,15.34,0,0,0,4.19,1.52,35.14,35.14,0,0,0,15.77.23,12.16,12.16,0,0,0,7.86-5.33c1.8-2.95,1.85-6.28,1.2-9.56-.61-3.11-2.08-6.43-5-7.89s-6.32-1.14-9.51-1.19L115,241,117.58,229c.83-3.85-1.1-8.25-5.23-9.23l-3.77-.89-2,14.73.82.11-2-.27a16.65,16.65,0,0,1,3.61.86l-1.79-.76c.38.17.73.36,1.1.55,1.06.53-1.06-1-.49-.42s.08.49-.32-.57c.12.32.39.63.54.94l-.76-1.79a7.07,7.07,0,0,1,.31,1l-.27-2a5.48,5.48,0,0,1,0,1.07c-.21,3.72,3,6.89,6.5,7.36,3.84.52,7-1.8,8.23-5.37l5.38-15.23c1.31-3.7-1.48-8.37-5.24-9.22a7.68,7.68,0,0,0-9.22,5.24l-5.38,15.22,14.73,2c.25-4.43-2.38-8.35-5.87-10.8-3-2.06-6.47-2.51-9.93-2.94a7.44,7.44,0,0,0-5.31,2.2,7.78,7.78,0,0,0-2.06,4.31,7.46,7.46,0,0,0,5.37,8.22l3.77.9-5.24-9.23L100.57,237c-1,4.78,2.15,9.42,7.23,9.49,1.78,0,3.56,0,5.33.1l-2-.27.39.06-1.79-.75q-2.62-3.45-1.8-1.75l-.75-1.79a16,16,0,0,1,.83,3.2l-.27-2a8.53,8.53,0,0,1,0,1.43l.27-2a7,7,0,0,1-.25,1l.75-1.79a3,3,0,0,1-.32.61,3.22,3.22,0,0,1,1.2-1.33c1.11-.84-.16,0-.48.12l1.79-.76a15.1,15.1,0,0,1-3.13.7l2-.27a28.7,28.7,0,0,1-7.35,0l2,.27a26.47,26.47,0,0,1-4.81-1.13l1.79.76,2,2.08.76,1.79-.1-.29.27,2a2.22,2.22,0,0,1,0-.63l-.27,2c.42-3,1-5.88,1.31-8.88a50.82,50.82,0,0,0,.08-7.9,59.08,59.08,0,0,0-3.46-16.74l-7.23,9.49,5.35.69c2.07.26,4.09.69,6.15.07,4.21-1.26,7.14-5.64,5.75-10a7.76,7.76,0,0,0-5.68-5.33c-.88-.21-1.76-.38-2.65-.57a7.54,7.54,0,0,0-8.47,11c2.1,4,6.6,5.4,10.82,5.48,3.27.06,6.53.05,9.79.08,3.93,0,7.68-3.47,7.5-7.5a7.63,7.63,0,0,0-7.5-7.5Z"/><path class="cls-2" d="M129.88,200.64a13.62,13.62,0,0,0-2.82,3.83,18.38,18.38,0,0,0-1.07,2.69c-.17.56-.3,1.13-.52,1.67l.5-1.19a4,4,0,0,1-.38.67l.78-1a3.89,3.89,0,0,1-.44.47l1-.79a5.91,5.91,0,0,1-1.17.67l1.19-.51-.15.06,1.33-.18-.16,0,1.33.18-.11,0,1.19.5-.1-.06,1,.78-.08-.09.78,1-.06-.11.5,1.2a1.78,1.78,0,0,1-.1-.38l.18,1.33a16.52,16.52,0,0,1,.17-4.27l-.18,1.33c.18-1.36.41-2.73.49-4.11a15.48,15.48,0,0,0-.37-4.07,5,5,0,0,0-9.14-1.2,5.49,5.49,0,0,0-.5,3.86c0,.24.09.48.13.72L123,202.3a16.82,16.82,0,0,1-.18,4.25l.18-1.33a34.17,34.17,0,0,0-.5,4.95,10.9,10.9,0,0,0,.34,2.85,5.47,5.47,0,0,0,5.35,4,8.07,8.07,0,0,0,6.33-4.06,44.15,44.15,0,0,0,1.55-4.25l-.5,1.19a10.5,10.5,0,0,1,1.29-2.19l-.78,1a12.51,12.51,0,0,1,.92-1,5,5,0,0,0-3.54-8.53,5.23,5.23,0,0,0-3.53,1.46Z"/><path class="cls-2" d="M80.28,200.6a10.36,10.36,0,0,0-.24,2.23,14.32,14.32,0,0,0,.26,2.06,12.65,12.65,0,0,0,.63,2,17.45,17.45,0,0,1,1.14,4l-.18-1.33c0,.31.07.63.09.94A5.28,5.28,0,0,0,83.45,214a5,5,0,0,0,7.07,0A5.12,5.12,0,0,0,92,210.44a6.76,6.76,0,0,0-.28-1.95,7.17,7.17,0,0,0-.8-1.76,9,9,0,0,0-2.69-2.65c-1-.64-2.09-.94-3-1.64l1,.78a6.14,6.14,0,0,1-1.1-1.12l.78,1a6.68,6.68,0,0,1-.72-1.24l.5,1.19-.14-.36a5.3,5.3,0,0,0-2.3-3,5,5,0,0,0-6.84,1.79,4.92,4.92,0,0,0-.5,3.85,11,11,0,0,0,3.19,4.89,11.92,11.92,0,0,0,2.53,1.67,9.37,9.37,0,0,1,1.82,1l-1-.78a3.71,3.71,0,0,1,.56.56l-.78-1a2.73,2.73,0,0,1,.32.55L82,211a2,2,0,0,1,.13.48L82,210.18a2.26,2.26,0,0,1,0,.26H92a18.74,18.74,0,0,0-.91-4.93,20.7,20.7,0,0,1-1.17-3.57l.18,1.33a4.74,4.74,0,0,1,0-1.19l-.18,1.33,0-.15a5.62,5.62,0,0,0-.5-3.85,5,5,0,0,0-6.85-1.8,4.87,4.87,0,0,0-2.29,3Z"/><path class="cls-2" d="M91.47,147.86a52.62,52.62,0,0,1,7.1.18l-1.33-.18.1,0-1.19-.5.09.05-1-.78.06.06L94,144.52l0,.07-.18-1.33v.08L94,142a.37.37,0,0,1,0,.17l.51-1.2,0,.09.78-1a.67.67,0,0,1-.14.15l1-.78a.52.52,0,0,1-.18.1l1.2-.5a2.32,2.32,0,0,1-.45.13L98,139a6.33,6.33,0,0,1-1.44-.07,12.51,12.51,0,0,0-1.73-.06,18.87,18.87,0,0,0-4.54.67,5.14,5.14,0,0,0-3,2.29,3.72,3.72,0,0,0-.6,1.86,3.78,3.78,0,0,0,.09,2,5.07,5.07,0,0,0,2.3,3,5.22,5.22,0,0,0,3.85.5,15.62,15.62,0,0,1,1.9-.39l-1.33.18a13.79,13.79,0,0,1,1.93-.11c.62,0,1.23.11,1.84.15a6.7,6.7,0,0,0,3.86-.93,5.71,5.71,0,0,0,2.52-3.3,5.36,5.36,0,0,0-1.3-5.11,5.56,5.56,0,0,0-1.16-.9,5.8,5.8,0,0,0-2.74-.72l-1-.07c-.66-.05-1.33-.08-2-.1-1.34,0-2.67,0-4,0a5.26,5.26,0,0,0-3.54,1.47,5,5,0,0,0,3.54,8.53Z"/><path class="cls-2" d="M108,140.85l-3.7,0c-2.41,0-3.48,3.49-1.26,4.66a55.65,55.65,0,0,0,7.31,3.17c2.57.9,6.51,2.65,8.44-.23a3.21,3.21,0,0,0-1.45-4.72,20.89,20.89,0,0,0-3.86-.93c-.59-.13-1.18-.24-1.77-.38-.24,0-.48-.11-.71-.18l-.3-.09c-.59-.18.21.15-.08,0s-.62-.41-.26-.1a3.7,3.7,0,0,1-.28-.28c.06.07.15.3.07.06a9,9,0,0,0-.79-1.54,4.18,4.18,0,0,0-4.51-2,3.35,3.35,0,0,0-1.46.84,4.89,4.89,0,0,0-.46.56c-.45.62.45-.48.9-.56,1.54-.25,1.58,2,.21,2.47l-1.92-.25c1.67,1.23,4,.48,5.29-.87a8.59,8.59,0,0,0,2.46-4l-4.91-.67a11,11,0,0,0,.81,5.63,5.78,5.78,0,0,0,4,3.18,2.57,2.57,0,0,0,3.07-1.75c.28-1.19-.36-2.86-1.74-3.07l-.4-.08c-.27-.09-.26-.08,0,0-.21-.13-.43-.37-.16-.09l-.29-.29c.17.23.18.24,0,0l-.21-.36c.1.25.11.29,0,.12s-.17-.56-.23-.85c.08.4,0-.4,0-.5,0-.66,0-1.31,0-2,.15-2.79-4.33-3.43-4.91-.66,0,.15-.08.29-.11.44.09-.38,0-.09,0,0s-.53.76-.27.44q-.3.38-.6.72l-.33.33c.19-.18.11,0-.06,0a1.33,1.33,0,0,1,.46-.16c.43,0,.95.34.53.06a2.55,2.55,0,0,0-2.09-.2,3.53,3.53,0,0,0-2.19,2.08,3.78,3.78,0,0,0,2.1,4.83,3.93,3.93,0,0,0,2.64.22,3.75,3.75,0,0,0,1.35-.76,4,4,0,0,0,.53-.63q.41-.48-.33.18a1.07,1.07,0,0,1-1.26.34c-.09,0-.46-.38-.27-.17s-.15-.37,0,0a3.23,3.23,0,0,0,.22.41,8,8,0,0,0,1.22,2,7.18,7.18,0,0,0,3.64,1.91c1.37.33,2.77.59,4.16.88a5.06,5.06,0,0,0,1,.22l.18.05-.95-2.57.26-.26a1,1,0,0,1,.88-.44s.58.14-.05,0l-.49-.13-1.13-.32a43.88,43.88,0,0,1-8.48-3.43l-1.27,4.66,3.7,0a2.52,2.52,0,0,0,2.5-2.5,2.55,2.55,0,0,0-2.5-2.5Z"/><path class="cls-3" d="M95.75,186.65c3.22,0,3.22-5,0-5s-3.22,5,0,5Z"/><path class="cls-3" d="M111.18,187.19c3.21,0,3.22-5,0-5s-3.23,5,0,5Z"/><path class="cls-3" d="M116.86,188.54c3.22,0,3.22-5,0-5s-3.22,5,0,5Z"/><path class="cls-3" d="M92.77,188.54a12.3,12.3,0,0,1,2.78.05l-.66-.09a13.26,13.26,0,0,1,3.32.89l-.6-.25a14.27,14.27,0,0,1,1.65.85,2.5,2.5,0,0,0,2.52-4.32,15.07,15.07,0,0,0-9-2.13,2.73,2.73,0,0,0-1.77.73,2.5,2.5,0,0,0,1.77,4.27Z"/><path class="cls-4" d="M93.34,186.41a5.29,5.29,0,0,0,1.83.77,7.36,7.36,0,0,0,1.25.15c.25,0,.49,0,.74,0l-.66-.09.11,0L96,187l.07,0-.5-.39a.57.57,0,0,1,.11.11l-.39-.51a.91.91,0,0,1,.07.14l-.25-.6a8.22,8.22,0,0,0,.47,1.31,3.48,3.48,0,0,0,2,1.56,12.92,12.92,0,0,0,2.78.18l-.67-.09a4.66,4.66,0,0,1,1,.27l-.6-.26.34.16a2.65,2.65,0,0,0,1.93.26,2.5,2.5,0,0,0,.59-4.57,7.15,7.15,0,0,0-2.62-.78c-.56-.06-1.11.06-1.67,0l.66.09a2.62,2.62,0,0,1-.38-.09l.6.25a2.07,2.07,0,0,1-.25-.15l.5.39a.86.86,0,0,1-.13-.14l.39.51a.65.65,0,0,1-.09-.16l.25.59c-.07-.19-.11-.39-.17-.59a3.17,3.17,0,0,0-1.11-1.62,2.88,2.88,0,0,0-2-.6,3.62,3.62,0,0,1-.87,0l.66.09a4.39,4.39,0,0,1-.79-.21l.6.25a3.69,3.69,0,0,1-.62-.33,2.52,2.52,0,0,0-3.42.89,2.56,2.56,0,0,0,.9,3.42Z"/><path class="cls-4" d="M92.86,178.37a3,3,0,0,0-.3,2.29A2.56,2.56,0,0,0,95,182.5l1.42,0a5,5,0,0,0,1.85-.22,3.54,3.54,0,0,0,1.06-.54,11.55,11.55,0,0,0,.94-.76l1.07-.95a2.51,2.51,0,0,0-1.77-4.27,2.76,2.76,0,0,0-1.77.74c-.49.44-1,.9-1.5,1.32l.51-.39a2.18,2.18,0,0,1-.46.28l.6-.25a1.78,1.78,0,0,1-.38.1l.66-.09a6.49,6.49,0,0,1-1.08,0H95l2.41,1.83,0-.06.09.67a.56.56,0,0,1,0-.13l-.09.66a.56.56,0,0,1,0-.12l-.26.6,0-.06a2.5,2.5,0,1,0-4.31-2.52Z"/><path class="cls-4" d="M98.92,183.61c.82.07,1.66.19,2.49.2l.41,0c-1.09-.76-1.46-.89-1.1-.4,0,0,.16.22.17.26a7,7,0,0,1-.57,2l-.34,1.16c0,.13-.4,1-.2.64l.9-.9a6.46,6.46,0,0,1-1.69.26c-.8.08-1.61.07-2.41.13a4.26,4.26,0,0,0-1.64.44c-.2.11-.92.69-.93.69a1.06,1.06,0,0,1,.76,0c.28.2.23,1,.3.23l-.34,1.26,0,0-1.11.64a10.48,10.48,0,0,1,2.31-.06h3a14.61,14.61,0,0,0,3.17-.12,3.87,3.87,0,0,0,2.49-2.33,4.22,4.22,0,0,0,.65-3.15,3.53,3.53,0,0,0-2.4-2.3,13.48,13.48,0,0,0-2.9-.31,22.15,22.15,0,0,1-2.92-.45,2.55,2.55,0,0,0-3.16,2.42c0-.08-.06-.08,0-.13-.32.24-.15.08-.47,0-1-.32-1.91-.68-2.85-1-.48-.17-1-.35-1.41-.56a4.19,4.19,0,0,0-.69-.36c.19-.12.54,1.1.36.23a8.72,8.72,0,0,0-1.52-2.87,17.94,17.94,0,0,1-2.71-5.09,15.15,15.15,0,0,1-.54-6,2.52,2.52,0,0,0-2.5-2.5,2.55,2.55,0,0,0-2.5,2.5,18.89,18.89,0,0,0,1.21,8.74,19.94,19.94,0,0,0,2,3.86,13.07,13.07,0,0,1,1.88,3.17c.6,1.74,1.9,2.4,3.5,3.07,1.38.58,2.81,1.13,4.24,1.59a5.25,5.25,0,0,0,7-4.6l-3.17,2.41c1.12.23,2.26.41,3.4.54.49.05,1,.09,1.49.12l.76,0q.18.1-.33-.15l-.64-1.1,0-.15.35-1.26a5.94,5.94,0,0,1-.69,1.38l1.11-.64a9,9,0,0,1-2.6.06h-3c-2.1,0-4.62-.06-5.31,2.46a4.36,4.36,0,0,0,2.21,4.79,4.57,4.57,0,0,0,3.27.33A4.73,4.73,0,0,0,97.1,192q.23-.17.45-.36c-.73.29-.78.39-.18.32a11.49,11.49,0,0,0,3.09-.29,7.05,7.05,0,0,0,2.61-.68c1.65-1,1.92-3.44,2.41-5.13a5.75,5.75,0,0,0-1.14-5.88c-1.34-1.45-3.61-1.23-5.42-1.37a2.52,2.52,0,0,0-2.5,2.5,2.55,2.55,0,0,0,2.5,2.5Z"/><path class="cls-4" d="M83.69,167c0-1.55-.08-3,1-4.26.51-.58,1.18-1,1.71-1.56a4,4,0,0,0,.72-.92c.17-.37.54-.5-.18-.21l-3.17-2.41a9.51,9.51,0,0,1-.4,3,18.34,18.34,0,0,1-1.3,2.43,15,15,0,0,0-1.69,6.07,40.74,40.74,0,0,0-.06,6.25,4.29,4.29,0,0,0,1.36,3,15.44,15.44,0,0,1,2,1.94c.54.72.88,1.56,1.47,2.25a9,9,0,0,0,2.44,1.7,16.72,16.72,0,0,0,2.23,1.5,3.92,3.92,0,0,0,3.56-.06c2.53-1.48.75-4.48-.43-6.19a11.14,11.14,0,0,0-1.84-2.21,5.45,5.45,0,0,0-1.45-.86,16.09,16.09,0,0,1-1.62-.5c-1.43-.8-1.18-3.39-1-4.74l.71-7.91L84,165.44a8,8,0,0,0,1.27.64c-.49-.82-.66-1-.53-.49a4.85,4.85,0,0,0,.16.63,11.83,11.83,0,0,0,.89,2.22,13.75,13.75,0,0,0,3,3.69c1.07,1,2.24,1.82,3.35,2.73s2.16,1.69,2.37,3.11l2.41-3.17c-1.41.12-3.06.39-4.19-.64-.58-.51-1.06-1.12-1.64-1.63-.36-.31-.75-.56-1.11-.86s-.47-.61-.43-.22A2.57,2.57,0,0,0,87,169a2.52,2.52,0,0,0-2.5,2.5,5.17,5.17,0,0,0,2,3.8c1,.79,1.79,1.61,2.69,2.45,2.19,2,4.87,2.33,7.73,2.1a2.55,2.55,0,0,0,2.41-3.16c-.55-3.63-4.2-5.59-6.71-7.79a8.89,8.89,0,0,1-2.74-3.54,12.6,12.6,0,0,0-.73-2.33,5.76,5.76,0,0,0-2.6-1.86,2.53,2.53,0,0,0-3.76,2.16L82.1,170c-.2,2.3-.38,4.3.5,6.5a6.6,6.6,0,0,0,4.12,4.26c.8.26,1.11.21,1.65.88a9,9,0,0,1,1.42,2.26v-1.32l-.07.3,1.74-1.75c.11,0,.39.18.27,0,0,0-.44-.32-.51-.38a11.31,11.31,0,0,0-1.58-1.08,2.34,2.34,0,0,1-.74-.44,14.34,14.34,0,0,1-.91-1.46c-.63-.89-1.63-2.38-2.66-2.84-.3-.14,0,.14,0,.1,0-.3,0-.64,0-.94v-2c0-2.34,0-4.63,1.19-6.72a24.36,24.36,0,0,0,1.64-3.27,14.9,14.9,0,0,0,.64-4.46c.06-1.48-1.67-3-3.16-2.41A6.07,6.07,0,0,0,83,157.51c-.61.76-1.45,1.28-2.08,2A10.52,10.52,0,0,0,78.69,167c.11,3.21,5.11,3.22,5,0Z"/><path class="cls-5" d="M70.18,93.85,71.51,95a1.83,1.83,0,0,0,.8.51,2.23,2.23,0,0,0,1.93,0A1.83,1.83,0,0,0,75,95l.39-.51a2.43,2.43,0,0,0,.34-1.26l-.09-.67a2.41,2.41,0,0,0-.64-1.1l-1.32-1.16a2,2,0,0,0-.81-.52,2.32,2.32,0,0,0-1.93,0,1.92,1.92,0,0,0-.8.52l-.39.5a2.47,2.47,0,0,0-.34,1.27l.09.66a2.5,2.5,0,0,0,.64,1.1Z"/><path class="cls-5" d="M70.54,93.65a11.93,11.93,0,0,0,6.8,8.52c1.8.81,3,2.46,4.29,3.89l4.85,5.25,2.43-4.18c-.66-.09-1-.63-1.4-1.1-.62-.69-1.24-1.39-1.87-2.08-1.11-1.23-2.25-2.45-3.31-3.73a27.46,27.46,0,0,1-2.78-4.43,30,30,0,0,0-3-4.35c-2.12-2.63-4.44-5.06-6.44-7.79-1-1.42-2-2.87-3-4.33-.73-1.07-2.24-2.6-2.29-3.94-.08-2.41-3.4-3.48-4.66-1.26a20.33,20.33,0,0,1-5.62,6.44,2.58,2.58,0,0,0-.9,3.42,2.54,2.54,0,0,0,3.42.9c.55-.33,1.5.88,1.81,1.2A23.39,23.39,0,0,0,62.07,89a26.76,26.76,0,0,1,6.09,5.44,2.54,2.54,0,0,0,4.32,0c1.86-3-1-5.89-2.87-8.06A77.42,77.42,0,0,0,63.4,79.9c-2.35-2.19-5.9,1.34-3.53,3.54,1.62,1.51,3.19,3.09,4.69,4.74.72.79,1.42,1.6,2.11,2.43.34.41.7.81,1,1.25a3.65,3.65,0,0,1,.34.5c.14.29.19.14.13-.45h4.32a25.31,25.31,0,0,0-4-4.32c-1.4-1.2-3-2.12-4.42-3.31s-2.41-2.73-4-3.65a5.52,5.52,0,0,0-5.58-.07L57,84.88a26.33,26.33,0,0,0,7.42-8.23L59.8,75.38A10,10,0,0,0,62,80.7c1.12,1.65,2.24,3.3,3.41,4.91,2.28,3.17,4.87,6,7.35,9s3.84,6.52,6.33,9.45c1.28,1.51,2.64,3,4,4.44s2.55,3.15,4.54,3.42a2.6,2.6,0,0,0,2.82-1.15,2.56,2.56,0,0,0-.39-3l-4.34-4.7a28.65,28.65,0,0,0-4.49-4.52c-1.28-.87-2.74-1.22-3.85-2.34a7.25,7.25,0,0,1-2-3.89,2.51,2.51,0,0,0-3.07-1.75,2.56,2.56,0,0,0-1.75,3.08Z"/><path class="cls-5" d="M149.38,75.18c0,1.73-1.08,3.44-1.94,5.16a12.2,12.2,0,0,0-1.69,6.55c.14,1.45,1.51,3,3.17,2.41a6.32,6.32,0,0,1,2.85-.46l-1.26-4.66a23.87,23.87,0,0,1-3.81,2.31l2.52,4.32c1.94-1.48,3.87-3,5.84-4.4a20.48,20.48,0,0,1,2.88-1.81,22.53,22.53,0,0,1,3.1-1,19.19,19.19,0,0,0,6.11-3.27c.9-.7,1.76-1.44,2.61-2.21a5.58,5.58,0,0,0,2.09-2.91,2.56,2.56,0,0,0-1.74-3.08A2.53,2.53,0,0,0,167,73.85l.08-.11a4.12,4.12,0,0,1-.48.45l-1.22,1.09a23.25,23.25,0,0,1-2.06,1.65,18.81,18.81,0,0,1-5.42,2.35c-4.26,1.36-7.74,4.53-11.23,7.21a2.58,2.58,0,0,0-.9,3.42,2.56,2.56,0,0,0,3.42.9A24.72,24.72,0,0,0,153,88.5a2.53,2.53,0,0,0-1.27-4.66,9.94,9.94,0,0,0-4.18.64l3.16,2.41c-.18-1.86.67-3.38,1.57-5.14a15.07,15.07,0,0,0,2.06-6.57c.08-3.22-4.92-3.22-5,0Z"/><path class="cls-5" d="M167.87,72.35c-4.6-1.75-9.6,1-11.34,5.38l4.57-.6a1.38,1.38,0,0,1-.16,1.15l-4.17-2.43a9.9,9.9,0,0,1-4,4.54,13.81,13.81,0,0,0-2.88,1.84,9.36,9.36,0,0,0-1.19,1.6,4.66,4.66,0,0,0-.47.68l-.07,0c-.34.08,0,.1.92,0l.51,3.93a32.3,32.3,0,0,1,8.63-6.88,19.58,19.58,0,0,1,2.25-1.11c.77-.31.87-.35,1.48,0a3.35,3.35,0,0,0,2.9.41,5.17,5.17,0,0,0,2.47-2.48c1.12-1.72,3-3.72,1.79-5.87a7.49,7.49,0,0,0-4.52-3c-2.21-.53-3.93.45-5.27,2.12-.35.44-.42.59-1,.58a8.1,8.1,0,0,1-2.26-.54A2.5,2.5,0,0,0,153,73.46l-.43,2.61,4.57-.59c-.41-.63-.8-1.26-1.16-1.91-.14-.27-.28-.53-.41-.8l-.29-.6c-.11-.27-.12-.28,0,0L155,73.4l.17-.22-.89.89c-.84.41.35,0,.62,0a5.08,5.08,0,0,0,.93-.31,6.85,6.85,0,0,0,1.94-1.16,12,12,0,0,0,2.49-3c.88-1.46,2-4.47,3.94-4.37L161.74,62a2.25,2.25,0,0,1-.72,1.29c-.45.51-.94,1-1.39,1.49a6.07,6.07,0,0,0-1.84,4.59,2.67,2.67,0,0,0,1.83,2.41c-.84-.35-.23,0-.23-.17l1.83-2.41a11.35,11.35,0,0,1-3.39.15L159.09,74a24.37,24.37,0,0,0,8-5.72l-4.18-1.1c.22.77,0,1.71.2,2.52a5.64,5.64,0,0,0,1.31,2.5A14.36,14.36,0,0,0,166,73.65c.14.13.6.72.78.75s-.23.56.16-.17l4.66,1.26c.05-1.38,0-3,.9-4.2A7.29,7.29,0,0,1,176,69.22a82.56,82.56,0,0,0,10.55-4,10.89,10.89,0,0,0,4.15-3.46c1.24-1.83,1.16-4.58-1.28-5.34-1.82-.56-4,.34-5.75.79a14,14,0,0,0-5.08,2.34A45.28,45.28,0,0,1,167.67,66l3.07,3.07a54.36,54.36,0,0,1,1.55-5.86,2.53,2.53,0,0,0-3.08-3.08s-.28-.19-.35-.41c-.32-.93.55-2.29,1-3.07a59.4,59.4,0,0,1,4.32-6.37c1.45-2,2.86-3.94,4.35-5.86,1.17-1.51,2.46-3,4.4-3.35A2.52,2.52,0,0,0,184.65,38a2.55,2.55,0,0,0-3.07-1.75c-3.18.63-5.39,3-7.27,5.49-2.08,2.72-4.13,5.49-6.13,8.28s-4.33,5.88-4.33,9.27S166.94,66,170.54,65l-3.07-3.07a54.36,54.36,0,0,0-1.55,5.86c-.34,1.69,1.16,3.81,3.08,3.08a41.57,41.57,0,0,0,10.28-5.61,16.3,16.3,0,0,1,4.31-2.87,25.44,25.44,0,0,1,2.46-.66l1.34-.33.9-.22a.93.93,0,0,1-.61-.08l-.9-.9.12.23-.35-1.27c0-.43,0-.17-.17,0s-.31.33-.48.48a7.07,7.07,0,0,1-1.2.82A27.43,27.43,0,0,1,181.6,62c-2.33,1-4.74,1.66-7.11,2.51A12.52,12.52,0,0,0,168.74,68c-1.74,2.15-2.05,4.78-2.14,7.46a2.52,2.52,0,0,0,4.66,1.26c1.22-2.27.36-4.73-1.45-6.4-.51-.47-1.66-1-1.86-1.73a3.73,3.73,0,0,1,0-.94,7.9,7.9,0,0,0-.25-1.81,2.52,2.52,0,0,0-4.18-1.1,21,21,0,0,1-7,4.94,2.51,2.51,0,0,0-1.14,2.82,2.6,2.6,0,0,0,2.41,1.84,16.29,16.29,0,0,0,4.72-.32,2.53,2.53,0,0,0,1.84-2.42A5.14,5.14,0,0,0,161,67l1.84,2.41a2.27,2.27,0,0,1,0-.52c0,.24,0,.22.05-.08-.16.37.24-.31.24-.31s.79-.86,1.11-1.2a8.64,8.64,0,0,0,2.4-3.93,2.54,2.54,0,0,0-2.41-3.17,7,7,0,0,0-5.62,2.73c-1.33,1.59-2.05,3.55-3.33,5.16a3.32,3.32,0,0,1-1.36,1.09c-1.15.4-2.23.28-3,1.49-1.49,2.26.79,5.43,2.05,7.35,1.07,1.61,4.2,1.68,4.57-.6l.43-2.61-3.08,1.75c2.2.73,4.78,1.19,6.85-.15.25-.16,2.25-2,2.1-2.19s-.42.21-.44.18.62.22.66.24a4.47,4.47,0,0,0,.69.41c.36.1.11.39,0-.24V73.46a7.4,7.4,0,0,1-1.06,1.66,8.55,8.55,0,0,1-1.12,1.63l1.11-.64-.31.11h1.33a7.09,7.09,0,0,1-1-.56,4.29,4.29,0,0,0-1.35-.36,6.45,6.45,0,0,0-2.92.35,26.14,26.14,0,0,0-4.86,2.4A36.84,36.84,0,0,0,146.08,85a2.53,2.53,0,0,0,.51,3.93,4.41,4.41,0,0,0,5.29-1c.6-.61.9-1.41,1.44-2a6,6,0,0,1,1.68-1,15.42,15.42,0,0,0,6.59-7.72,2.5,2.5,0,0,0-1.15-2.82,2.56,2.56,0,0,0-3,.39,3.87,3.87,0,0,0-.63,4.9,2.54,2.54,0,0,0,4.57-.59c.82-2.06,3.42-2.56,5.19-1.89a2.53,2.53,0,0,0,3.08-1.75,2.55,2.55,0,0,0-1.75-3.07Z"/><path class="cls-5" d="M183.49,36.54c.16.37,0,.51.26.49a7.82,7.82,0,0,0,.56-.65c.44-.47.88-.93,1.3-1.43a35.64,35.64,0,0,1,2.72-3.16,15.4,15.4,0,0,1,2.82-2.05c.68-.42,2.32-1.62,2.92-1.56l-1.26-.34.27.15-.89-.9c.37.5.36,2.05.45,2.81.14,1.06.24,2.13.31,3.2a21.9,21.9,0,0,1-.34,6.1c-1,4.26-3.74,7.77-4.52,12.12-.31,1.75-.42,3.89-1.62,5.32-1,1.19-1.83,1-3,.09a13.63,13.63,0,0,0-5.26-2.94,11.08,11.08,0,0,0-6.35.34c-2.16.79-2.59,4.21,0,4.82a21.42,21.42,0,0,0,7.7,0c2.16-.26,4.56-.65,6.54.48,2.43,1.38,5.13-1.93,3-3.93l-2-1.9c-.37-.36-1.17-.92-1.23-1.3v1.33c-.19.25-.1.18.26-.21l.7-.66,1-1,2.43-2.34L186.18,47a19.73,19.73,0,0,1-2,5.63l4.57,1.93c1.4-8.14,7.84-15.42,5-24a2.52,2.52,0,0,0-4.82,0l.28-.48,1.77-.73h-.24l1.77.73-.18-.15.73,1.77v-.21c.15-2.76-4.48-3.47-4.91-.66-.3,1.95-1.59,3.22-3,4.49-1.77,1.58-3.59,3.07-5.24,4.77A54.73,54.73,0,0,0,171.1,52a2.53,2.53,0,0,0,2.16,3.77c4.29-.06,7.9-2.56,10.47-5.85,2.8-3.57,4.92-7.7,7.23-11.59l-4.57-1.92c-.53,3.35-2.84,5.9-4.71,8.61a42.49,42.49,0,0,0-5,10l4.82,1.33a79.34,79.34,0,0,1,3.27-12.23c1.42-3.68,4.17-6.86,4.9-10.79a2.57,2.57,0,0,0-1.75-3.08A2.52,2.52,0,0,0,184.81,32c-.17.81-1.4,1.07-1.91,1.77-.85,1.18-.77,2.69-.83,4.09-.12,3-.11,6.08.05,9.12a105.23,105.23,0,0,0,2.51,18l4.18-2.44c-1.6-2-3.46-3.85-6.07-4.36a12.75,12.75,0,0,0-8.16,1.26c-2.27,1.23-3.89,3.46-5.3,5.56a36.29,36.29,0,0,0-3.7,7.3,2.53,2.53,0,0,0,1.75,3.08,2.57,2.57,0,0,0,3.07-1.75,30.47,30.47,0,0,1,2.61-5.2,15.53,15.53,0,0,1,3.4-4.24,7.28,7.28,0,0,1,5-1.19c1.73.24,2.85,1.82,3.87,3.08,1.67,2.08,4.68-.21,4.17-2.43A96.8,96.8,0,0,1,187.12,47c-.15-2.8-.17-5.6-.08-8.4a7.94,7.94,0,0,0,.1-2.16c.06-.4,0-.33-.26.19s-.41.53-.13.35c.14,0,.45-.24.57-.31a5.19,5.19,0,0,0,2.31-3.32L184.81,32a16.19,16.19,0,0,1-2.16,5.06,43.62,43.62,0,0,0-2.74,5.73A78.22,78.22,0,0,0,176.64,55a2.5,2.5,0,0,0,4.82,1.33,38.06,38.06,0,0,1,5-9.5c2-2.82,4.19-5.64,4.74-9.15a2.5,2.5,0,0,0-4.57-1.92c-2,3.34-3.85,6.82-6.07,10-1.7,2.47-4.13,4.89-7.31,4.94l2.15,3.76a50,50,0,0,1,8.9-11.79c3.16-3.1,7.91-5.81,8.65-10.57l-4.91-.67a2.78,2.78,0,0,0,2.79,2.86,3.06,3.06,0,0,0,2.89-2.46h-4.82c1.19,3.59.13,7.25-1.21,10.64s-3.13,7-3.78,10.75a2.54,2.54,0,0,0,1.45,3,2.5,2.5,0,0,0,3.12-1A24.19,24.19,0,0,0,191,48.35a2.52,2.52,0,0,0-4.18-2.43l-3.13,3c-1.05,1-2.27,1.92-2.59,3.41-.61,2.86,2.74,5,4.52,6.74l3-3.93a12.89,12.89,0,0,0-7.87-1.29c-2.48.25-5.1.86-7.56.28V59a6.29,6.29,0,0,1,6,.73c2.17,1.57,4,3.28,6.88,2.75,2.73-.51,4.74-2.79,5.72-5.27s1-5.21,1.89-7.71,2.52-4.94,3.35-7.61a24.13,24.13,0,0,0,.88-8.28c-.06-1.38-.21-2.75-.38-4.12a14.91,14.91,0,0,0-.77-4.32c-1.62-3.41-5.15-1.45-7.48-.12a23.8,23.8,0,0,0-6.85,5.9c-2,2.51-4.86,4.61-3.32,8.17a2.51,2.51,0,0,0,3.42.89,2.56,2.56,0,0,0,.9-3.42Z"/><path class="cls-5" d="M182.89,45.47a9.82,9.82,0,0,1-.55,1.77l.25-.6a9.06,9.06,0,0,1-1.15,2l.39-.51a9.09,9.09,0,0,1-1.6,1.62l.5-.39-.42.31a2.67,2.67,0,0,0-1.15,1.49,2.55,2.55,0,0,0,.25,1.93,2.58,2.58,0,0,0,1.5,1.15,2.48,2.48,0,0,0,1.92-.25,11.63,11.63,0,0,0,4.88-7.16,2.63,2.63,0,0,0-.26-1.92,2.49,2.49,0,0,0-4.56.59Z"/><path class="cls-5" d="M130.65,93.77c3.22,0,3.22-5,0-5s-3.22,5,0,5Z"/><path class="cls-6" d="M156.52,99.38h-5.3a2.59,2.59,0,0,0-1.77.73,2.57,2.57,0,0,0-.73,1.77,2.53,2.53,0,0,0,2.5,2.5h5.3a2.59,2.59,0,0,0,1.77-.73,2.49,2.49,0,0,0,.73-1.77,2.54,2.54,0,0,0-2.5-2.5Z"/><path class="cls-6" d="M138.45,106.16c5.59.16,11.3.27,16.75-1.2,4.6-1.25,8.88-4,9.53-9.09a2.51,2.51,0,0,0-2.5-2.5l-4.88.58a32.34,32.34,0,0,0-4.51.58,8,8,0,0,0-3.57,2.55l-3.48,3.57,4.17,1.1c-.06-.38-.07-1.12-.08-1.31,0,.26-.87.07,0,.08a9.93,9.93,0,0,0,1.43-.16,16,16,0,0,0,5.85-2.18c3.57-2.11,6.36-5.25,9.81-7.53,2.67-1.76.17-6.09-2.53-4.31-3.95,2.6-7.14,6.59-11.56,8.44-2,.86-4.71.39-6.41,1.94s-1.73,4.14-1.37,6.36c.32,1.9,3,2.35,4.18,1.1l2.79-2.85c.63-.66,1.37-1.81,2.27-2a30.61,30.61,0,0,1,3.7-.44l4.15-.49-2.5-2.5c-.16,1.28-1.46,2.29-2.49,2.9a16.1,16.1,0,0,1-5.19,1.8c-4.46.9-9.08.72-13.6.59-3.22-.09-3.22,4.91,0,5Z"/><path class="cls-6" d="M169.55,95.44c0-1.26-.17.63,0,0s-.45.71,0-.1c.35-.59.73-1.15,1.12-1.72-.68,1,.23-.29.31-.39l.59-.75,1.61-2.07c.93-1.19,1.84-2.42,2.81-3.57.22-.25.43-.49.66-.73s.93-.81.35-.37.3-.23.43-.22l-.52.24c-.74.05-.82.07-.24.05l-3.54-8.53c-1,.93-2.06,1.84-3.13,2.71l-.85.69c-.72.58.27-.19-.19.15L167.43,82a73.65,73.65,0,0,1-7.19,4.54c-4.65,2.58-10.49,4.37-13,9.52a5.14,5.14,0,0,0,0,5,4.93,4.93,0,0,0,4.32,2.48,46.29,46.29,0,0,1,5.65-.11c.94,0,1.87.14,2.81.22l.47.06c-.47-.07-.53-.08-.16,0l.7.11c.54.13.46.08-.25-.14L159,101.85c.3.44.27.33-.1-.33.09.32.17.63.25.94l.39,1.42c.27,1,.56,2,.85,3.05q.88,3.16,1.85,6.31a37.42,37.42,0,0,0,2.23,6.68c1.5,2.81,4.33,3.59,7.3,3.48,4.54-.18,8.49-1.86,12.32-4.17s7.55-4.58,11.32-6.87a5,5,0,0,0-5.05-8.64c-4.26,2.59-8.48,5.29-12.81,7.76-.5.29-1,.56-1.52.82l-.78.37c.53-.22.52-.23,0,0s-1.13.37-1.71.51c-.24,0-2,.26-.86.18-.44,0-.88.06-1.33.07l-.89,0a3.46,3.46,0,0,1,3,2.31A19.54,19.54,0,0,0,172.3,112c-.72-2.33-1.41-4.66-2.08-7q-.54-1.87-1.05-3.75a17.46,17.46,0,0,0-1.35-4.16c-1.83-3.13-5.54-3.23-8.73-3.51a45.08,45.08,0,0,0-7.53,0l4.31,7.52c.13-.26.27-.52.43-.78.48-.77.13.07-.05,0,0,0,1.43-1.36.79-.8s.3-.2.36-.24l.62-.38c.48-.29,1-.55,1.45-.8,2.33-1.19,4.69-2.29,7-3.6A79.55,79.55,0,0,0,180.25,84.3c3.23-3,.68-8.58-3.53-8.54-5,.06-7.77,4-10.56,7.53s-6.47,7.21-6.61,12.15a5,5,0,0,0,5,5,5.1,5.1,0,0,0,5-5Z"/><path class="cls-6" d="M176,117.08c-.29.48-.6.93-.91,1.4-.57.86.53-.53-.24.3s-1.34,1.41-2,2.09c-.38.32-.42.36-.11.12a3.25,3.25,0,0,1,3.42-.29,10.65,10.65,0,0,0-1.42-1l-1-.74c.86.63-.15-.13-.33-.28a37.38,37.38,0,0,1-4.31-4.13,37.63,37.63,0,0,0-3.78-4.2A35,35,0,0,0,160,107c-.35-.2-.7-.4-1-.62s-1.53-1.17-.61-.37a18.89,18.89,0,0,0-2.7-2.21c-1.92-1.13-4.09-1.24-6.18-1.83-.43-.12-.86-.26-1.28-.4-.18-.06-1.9-.73-.9-.3a26.41,26.41,0,0,1-2.81-1.42,5,5,0,0,0-5.05,8.64,34.49,34.49,0,0,0,7,3c1.13.34,2.27.57,3.43.8.37.07,1.7.61.62,0-.92-.48,0,0,.25.22a31.27,31.27,0,0,0,5.67,3.88c.47.26.93.53,1.38.82.24.14,1.48,1.19.61.38a22.8,22.8,0,0,1,2.12,2.28A44.37,44.37,0,0,0,170.56,129a7.07,7.07,0,0,0,5.6,1.26,9.3,9.3,0,0,0,3.91-2.45,25.24,25.24,0,0,0,4.61-5.68,5,5,0,1,0-8.64-5Z"/><path class="cls-6" d="M155,110.2a5,5,0,1,0-5-5,5.05,5.05,0,0,0,5,5Z"/><path class="cls-6" d="M159.67,111.53a5,5,0,1,0-5-5,5,5,0,0,0,5,5Z"/><path class="cls-6" d="M145.28,96.71a8.88,8.88,0,0,1-1.24-.38l1.2.5a10,10,0,0,1-2.21-1.3l1,.78a49,49,0,0,1-5-5.3,15.3,15.3,0,0,0-7.76-4.88,5.27,5.27,0,0,0-3.85.5,5.1,5.1,0,0,0-2.3,3c-.57,2.5.75,5.57,3.49,6.15a8,8,0,0,1,1.44.44l-1.2-.5a9.79,9.79,0,0,1,2,1.2l-1-.78a45.39,45.39,0,0,1,5,5.28,15.48,15.48,0,0,0,7.73,4.94,5.27,5.27,0,0,0,3.85-.51,5.05,5.05,0,0,0,2.3-3c.58-2.54-.76-5.54-3.49-6.15Z"/><path class="cls-6" d="M144.36,95c-.41-5.41-.83-10.82-1.23-16.23A34.67,34.67,0,0,1,143,75c0-.31.05-.64,0-1,0-.76-.15.67,0,0s.27-1.34.44-2c.69-2.76,1.52-5.54,1.4-8.42-.11-2.61-2.22-5.13-5-5-2.61.12-5.12,2.2-5,5a15.28,15.28,0,0,1,0,1.79c0-.49.08-.48,0,0s-.15.74-.24,1.11c-.28,1.18-.63,2.34-.91,3.53a28.27,28.27,0,0,0-.52,8.8c.4,5.41.82,10.82,1.23,16.23.2,2.6,2.16,5.12,5,5,2.54-.12,5.21-2.21,5-5Z"/><path class="cls-6" d="M144.25,54a5,5,0,1,0-5-5,5.05,5.05,0,0,0,5,5Z"/><path class="cls-6" d="M132.27,75.19c-.07-.62-.1-.73-.09-.36s0,.26.07-.37a4,4,0,0,1-.16.57c-.11.34-.07.25.14-.28,0,.32-.47.79-.62,1-.46.78.3-.25-.09.12-1.07,1-2.14,2.09-3.15,3.15a15.86,15.86,0,0,0-3.23,5,10.42,10.42,0,0,0-.37,1c-.3.89.58-.76,0,0l1.12-1.14c.57-.25.68-.31.33-.2a7.07,7.07,0,0,0-1.85.79,6.43,6.43,0,0,0-2.75,7.27,9,9,0,0,0,4.25,5.14c1.22.76,2.54,1.3,3.74,2.1s-.67-.65.27.23c.3.28.6.55.88.85a10.06,10.06,0,0,1,.81.92c-.54-.67,0,0,.18.31l5.64-7.34-8.14-1.51a49.1,49.1,0,0,1-7.78-1.72l-.87-.34c.49.19.23.1-.1,0L118,89.24c-1.19-.49-2.4-.95-3.63-1.36a47.75,47.75,0,0,0-7.76-1.8,5.48,5.48,0,0,0-3.85.51,5.05,5.05,0,0,0-2.3,3c-.54,2.37.73,5.75,3.49,6.15a46.67,46.67,0,0,1,7.55,1.74c.58.18,1.15.38,1.72.59l.85.32s1.2.49.68.27l.47.21.86.38c.9.38,1.8.78,2.72,1.11a47.1,47.1,0,0,0,7.53,1.68l8.38,1.55a5.11,5.11,0,0,0,5.26-1.79,5,5,0,0,0,.39-5.55,20.34,20.34,0,0,0-7.79-7.11,11.69,11.69,0,0,1-2-1.09l.42.33c-.32-.34-.36-.34-.1,0s.23.32,0,0l.29.59c.94,2.62-4.49,5.15-1.81,4.24a9,9,0,0,0,1.79-.83,7.51,7.51,0,0,0,2.43-2.7c.43-.77.57-1.83,1-2.59-.32.53-.23.53.08,0,.1-.16.2-.32.31-.47q-.56.69-.21.27c1-1,2-2,2.95-3,3.14-3.14,4.87-6.87,4.15-11.34-.42-2.59-3.77-4.26-6.15-3.49-2.81.91-3.94,3.38-3.49,6.15Z"/><path class="cls-6" d="M120,86.31c-.23.06-.46.11-.7.15.69-.08.84-.11.45-.08-.16,0-1.17.13-1.24,0l.63.1c-.23,0-.47-.08-.7-.14a9.54,9.54,0,0,0-1-.31c.64.29.72.31.22.08l-.31-.17c-.39-.22-.75-.48-1.13-.71a12.12,12.12,0,0,0-3-1.39c-.7-.2-1.42-.29-2.13-.47-.24,0-.47-.12-.7-.19q.93.43.45.18c-1-.66.54.72-.09,0l-.21-.21c-.35-.4-.27-.3.22.31-.08-.13-.16-.26-.23-.39-.18-.34-.12-.16.18.52a3.18,3.18,0,0,0-.24-.86c.09.83.12,1,.09.43-.73,1.77-.85,2.31-.37,1.61l-1.79,1.8-.8.35-6.33-4.82A8.33,8.33,0,0,0,107,89.56a5,5,0,0,0,4.87-1.29,5.21,5.21,0,0,0,1.28-4.86,18.24,18.24,0,0,0-4-8.22l-1-1.25-.2-.26c-.23-.29-.13-.16.29.38a6.93,6.93,0,0,0-.45-.64c-.14-.22-.28-.44-.41-.66s-.43-1-.15-.22,0-.08-.06-.25c-.34-.87.07,1.14,0,.12-.14-2.61-2.2-5.12-5-5a5,5,0,0,0-3.54,1.47,5.85,5.85,0,0,0-1.46,3.53c-.63,4.91,5.11,9.82,9.69,7a5.54,5.54,0,0,0,2.49-3.49,6.44,6.44,0,0,0-1-4.83c-.77-1.33-1.57-2.65-2.35-4a5,5,0,0,0-8.64,5l1.39,2.35.65,1.08.32.55c.3.55.29.47,0-.22V73.24l.31-.69,1.8-1.8-.21.11,2.52-.68A3,3,0,0,1,106.91,72a1.74,1.74,0,0,1,.18,1,2.23,2.23,0,0,1,0-.63h-10c.19,3.46,1.81,6,3.9,8.6l.5.62.2.26c.27.33.27.33,0,0s-.26-.34,0,0l.18.26c.2.29.4.59.57.89s.28.56.44.83c.29.52-.28-.87,0,0a17.8,17.8,0,0,1,.54,2.18l6.15-6.15a2.33,2.33,0,0,1,1.18.71c-.29-.29-.29-.27,0,.07s.28.36.06,0a2.31,2.31,0,0,1,.38,1.39,5.15,5.15,0,0,0-2-3.93,5.28,5.28,0,0,0-4.36-.89c-2.37.32-4,2.77-4.27,5a8.54,8.54,0,0,0,.46,4.13,10.43,10.43,0,0,0,6.77,6.48c.53.16,1.07.26,1.6.37.24,0,.48.09.71.15.06,0,1.14.38.44.1s.27.18.41.27l.64.41a11.19,11.19,0,0,0,1.6.87,14.44,14.44,0,0,0,9.41.92,5,5,0,0,0,3.49-6.15A5.11,5.11,0,0,0,120,86.31Z"/><path class="cls-6" d="M106.32,68.07a8,8,0,0,0-2.46-4c-.34-.3-.7-.57-1-.87-.15-.13-.52-.37-.57-.56l.46.6a3.14,3.14,0,0,1-.25-.44L103,64a2.88,2.88,0,0,1-.2-.71l.18,1.33a2,2,0,0,1,0-.49L96.66,68.9l.58.12a5.22,5.22,0,0,0,3.85-.51,4.94,4.94,0,0,0,2.3-3,7.81,7.81,0,0,0-1-5.78c-.12-.19-.25-.36-.39-.54l-.78-1c-.23-.3-.2-.26.09.11.54.7.07.08,0-.09a5.67,5.67,0,0,1-.33-.65l.5,1.19a3.76,3.76,0,0,1-.16-.74l.17,1.33a17,17,0,0,0-.91-4.26l-1.24-3.4a5.3,5.3,0,0,0-2.3-3,5.09,5.09,0,0,0-3.85-.51,6.91,6.91,0,0,0-3,1.85c-.16.17-.3.36-.45.54-.36.44-.91.6.24-.09l1.19-.5a1,1,0,0,1-.43.11L92,49.93l-.17,0,1.32.18L93,50l1.19.5L95.63,52l.5,1.19L96.07,53l.18,1.33,0-.16-.18,1.33,0-.15-.51,1.19.1-.13-9.32-2.53a9.48,9.48,0,0,0,1.84,5.34l2.09,3.42a5,5,0,1,0,8.63-5,46.92,46.92,0,0,1-3.08-5.19l.5,1.19a4.44,4.44,0,0,1-.15-.52l.18,1.33a1.88,1.88,0,0,1,0-.53,5,5,0,0,0-3.67-4.82A5.23,5.23,0,0,0,87,51.35c-2.44,3.6.75,8.47,4.82,8.56a6.33,6.33,0,0,0,4.51-1.83,8.17,8.17,0,0,0,.62-.7A3.65,3.65,0,0,1,97.3,57c-.75.5-.9.63-.47.38l-1.19.51.22-.07L89.7,54.35a34.62,34.62,0,0,1,1.9,5.55l-.18-1.33a10.94,10.94,0,0,0,1.2,4.59A16.37,16.37,0,0,0,94,65c.36.44-.65-1-.24-.29.13.24.28.47.39.73l-.5-1.19a2.29,2.29,0,0,1,.15.51l-.18-1.32a1.82,1.82,0,0,1,0,.52l.18-1.33,0,.27,6.15-3.49-.58-.12a5.07,5.07,0,0,0-4.36.89,5.24,5.24,0,0,0-2,3.93c-.28,2.17,1,4.4,2.48,5.87.38.38.82.7,1.22,1.06a4.07,4.07,0,0,0,.52.5c-.51-.71-.63-.86-.35-.45a2.22,2.22,0,0,1,.2.41l-.5-1.19a1.69,1.69,0,0,1,.12.44,5,5,0,0,0,6.15,3.5,5.12,5.12,0,0,0,3.49-6.15Z"/><path d="M211.86,90.47c-4.09-9.54-19.65,4.49-19,11.07-7.39,1.68-11.9,8.37-19.14,10.58-3.5,4.29,2.92,5.28,5.7,3.21,5.26,0,7.56-6.42,12.76-6.85-5.17,6.42-12,11.45-16.62,18.46-1.47,2-2.32,2.05-4.2.34-5.05-4-9.86-8.13-14.82-12.23-4.16-2.39-8.06-6.15-12.71-7.37-3.66,0-6.26-2.78-8.9-4.93-4-2.2-9.77-1.7-13.88-4.18-5.66-2.77-12.28-2.14-18-5.08-.51-14-7.69-27.93-16.41-38.75,4.53-2.43,11.55-3.08,12.12-9.34-.08-6.28-5-16.12-12.27-14.83-13,4.93-14.77,14.86-5.15,24.62a2.11,2.11,0,0,1,2,.67c8.4,6.49,14.06,26,14.19,36.26.07.64.15,1.28.23,1.93-2.8,2.32-2.44,2.7-5.51,2.6C83.11,76,70.88,54.62,51.48,42c-4.94-2.1-6.33-2.16-10,1.43C33.27,50.56,25.15,58,20,67.75,15.07,76.51,8.27,84.29,5.78,94.2c-1.69,5.62-3,11.37-5,16.88-2.13,4,.08,10.59,5.07,9.87C21,113.52,34.54,102.88,46.8,91.55c6,3,10.46,6.07,13.83,11.82,5.26,5.26,11,10.07,16.53,15,10.14,5.8,3.92,4.69,7.61,12.61-4.41.58-8.13-.3-12.45.59-15.08,6-22.59,24.55-21.47,40.12,4,28.95,49.75,39.59,36.57,77.49,6,9.14,4.82-7,5.63-10.69.67-7.79-1.5-15.36-5.17-22.22-5.21-9.11-13.1-15.76-20.76-22.64-15-14.35-17.72-40.68-.55-54.52,2.14-2.67,4.79-3.47,8.08-3.67,1.18-.95,2.44-.57,3.74-.36,2.78.22,5.55-.83,7.51,2,2.94,4.66,8.32,3.4,13.1,3.26,4-.38,6.49-3.27,9.09-6.08.42,6.21,1.51,6,4.48,10.85-36.4-.11-30.44,20.5-7.56,38-.4,2.16-.76,4.15-1.19,6.5-4,0-7.77,3.32-11-.17-2.28-2.5-6.74-3-7.58-6.5-1.31-2.6-3.48-5.2-3.12-8.37-1.3-4.55-3.7-10.13,1.75-13.37,1.9-.37,3.47-5.29.42-5.07-6.7,1.3-7.25,8.93-8.12,14.42-.14,2.42,1.27,4.38,1.21,6.76.9,7.62,5.73,12.8,12.4,16.11-3.15.94-1.23,17.4.57,19.57,4,3.82.18-4.9,14.33-.76.34-.88.62-1.61,1-2.6.75,2,1.46,3.76,3.43,4.15,20-4.42,14.94.56,15.07-20.3,8-9.62,21.2-18.8,21.43-32.16-1.23-2.87-.08-7.52-3.51-8.67-4.44-1.87-11.59-.66-13.82-6,6.89-6,13.7-11.68,17.48-20.22,5.79,4.61,12.87,9.31,16.39,15.82,0,4.2,2.62,7.06,4.53,10.49,4.65,12.95,2.68,28.7-9.27,37-9.5,6.13-17.46,14.32-27,20.3-3.2,2.23-3.85,6.08-5.49,9.21-2.91,8.64-9.57,24.61-3.71,32.53,4.32.62,2.83-18.18,4.75-22.06,11.3-32.63,67.26-36,42-83.09,4.89,2.14,9.22-3.07,11.56-6.75,1.52-2.2-1.26-4.61-1.91-6.76,6.51-7.68,12.84-15.6,20.71-21.16,4.83.69,12.41,3.58,14-2.66C214.92,102.94,215.1,96.45,211.86,90.47ZM101,205.67H94.29c-.4-3.46-.78-6.9-1.2-10.54,2.65.41,5.31,1.94,7.88-1.07Zm23.31-99.95,9.76,3.85-1.38,2.73L121.72,108Zm-17.92-6c-1,1.33-2.72,2.51-1.26,4.49-5.41-.18-9-.63-9.5-4.1C99.18,97.8,100.33,97.76,106.36,99.69Zm-10.64,9c-3.25,1.34-3.44,1.25-5.23-2.57ZM42.8,87.27c-3.68,4.79-8.73,8-13.73,11.23-7.16,5.55-14.42,11.59-22.76,15.06,3-11.53,5.89-23.21,12.83-33.18,8-13,16.32-27,30.38-34.18,18.84,13,27.22,34.26,39.66,52.47-.08,1.35-.16,2.63-.25,4.14C80.33,92.31,74,79.79,63,71.73c.82-2.65,2.42-5.2.45-7.56-1.11-1.71-3.35-1.64-4,.27C55.63,73.17,49.1,80.23,42.8,87.27ZM83.38,117c-5.24-4.46-10.28-9-15.93-13-1-.83-2.45-1.46-2.21-3.24C60.47,96.4,55.75,92.37,51,87.54c.23-.35.48-.73.71-1.06,12.35,7.42,22.42,18.65,32.53,29.1C84.11,115.84,83.83,116.28,83.38,117ZM81.9,105.89c-6.77-6-19.29-21.3-27.89-22.23,2.39-1.93,7.73-13.06,9.77-9.78C59.46,77.77,72,86.44,74.1,90.69c2.72,3.41,5.12,7.08,7.7,10.59,2.94,2.64,6.1,4.68,8.17,8.31l-2.79,2C85.4,109.66,83.71,107.71,81.9,105.89Zm22.77,29.39c-13.12,10.39-26.14-9.21-15.12-19.48C100.22,102.73,115.23,126.26,104.67,135.28Zm3.23-19.79-4.17-6.19,6.37,2C109.54,112.41,108.87,113.67,107.9,115.49Zm2.84-8.94c-1.41-.36-2.75-1-4.38-1.56,6.09-4.49,5.92-4.54,12.67-1.38-.49,1.38-.92,2.61-1.46,4.17C115.56,107.36,112.82,107.07,110.74,106.55ZM106,194.39c.22-.72.36-1.19.59-1.91l2.25,1.91ZM119.15,206l-9.09,1.35c.32-4,.62-7.59.93-11.41,3.16.75,2.28,1.39,8.16-.33Zm16-48.81a5.11,5.11,0,0,1,.4-.94c13.59,1.33.23,18-4.6,22.8-3.37,3.56-5.81,8.66-10.75,10.19-4.26,2.5-11.18,2.16-11.73-3.8-.26-1.1.16-2,1.37-1.91C122.87,182.53,131.37,168.42,135.17,157.22Zm-4.35-1.28c1,4.79-7.38,12.63-9.93,16.83-4.13,2.25-9,6.32-14,3.88a65.59,65.59,0,0,1-17-19c7.8-10.48,22-7.16,33.42-6.62C124.62,158,126.25,152.62,130.82,155.94Zm5.72-22c-26.66,28.91-30.91-16.27-19-20.77l-.59-1.25c8.84,1,15.29,6.8,23.37,9.89l-.09.4C142.83,125.83,138.92,131,136.54,133.93Zm-1-19.54c3.46-3.9,8.08-4.33,11.63.26-1.92,1.19-2.92,2.56-2.51,4.9Zm35.78,28.94c-7.53-9.27-17.2-16.12-26.46-23.64,2.27.51,3.95-.8,5.79-2.21l7.95,6.38-2.71,3.22c4.2,5.07,5.37-5,13.93,4.92-5.78,4.05-2.2,7.43,2.75,3.16C175.67,137.65,175.34,140.88,171.29,143.33Zm21.07-35c.4-1,1.14-1.38,2.86-.86Z"/><path d="M103.32,130.71c1.52-3.58,1-10.59-2.9-12.08-4.61-.11-12,.92-10.89,7.21,1.58,4.69,6.6,8.68,11.54,7.06a.3.3,0,0,1,0,.08A5.34,5.34,0,0,0,103.32,130.71Z"/><path d="M213.77,6.68c-2-2.54-4.17-7.86-8.09-6.44C197.54,3.57,191,9.68,184.56,15.51c-15.27,13.51-22.79,33-34.5,49.26-1,4.93-2.82,1.37-1.42-1.67,3.32-5.41,9.81-10.74,5.65-17.44-7.71-14.11-21.52-4.74-20.24,8.76C140,60.22,119.77,95.64,115.33,81a91.86,91.86,0,0,1-11.68-23.17c-1.4-2.77-.41-9.41-5.2-7.58.91,12.09,11.85,22,13.18,34.53.28,1.78.88,2.05,2.87,2.38,9.74,6.86,14-7.1,18.7-13.5a23,23,0,0,0,3.8-11c.08-.8-.51-2.55.82-2.88.65-.17.57,1.27,1.12,1.6,1.39.3,3.72,1.29,3.44,3,2.07.73.27,4.17-.18,5.76-2,8.24-1.18,16.76.76,24.9,2.56,6.61,8.7-.62,12.39-2.08,6.76-3.35,12.72-8.11,18.39-13.22l3,1.53c-2.89,4.61-7.34,7.35-8.54,12.89-.86,5.12-3.76,17.81,3,19.18,3.73-4.08-.14-11.44,2.87-16.51-.51-6,6.1-7.76,7.82-12.92,16.44,5.87,10.49-11.56,9.78-20.45,2.46-6.8,3.64-13.95,5.17-21,1.76-4.83,7.21-20,3.12-23.6-12.52-1-24.2,20.91-32.57,29.31-3,2.79-2.91,11.14-7.2,11.17,9.48-20.84,26.75-43.51,48.33-53.85,1.15,20.38-7.81,39.88-14.34,58.92C196.54,88.31,219.36,10.49,213.77,6.68ZM144,51c-2.65.83-2.32-3.48.12-2.55A1.59,1.59,0,0,1,144,51Zm20.44,8.7c2.79-8.86,9.68-15,15.44-21.78,1.74-6.36,8.35-13.45,15.16-13.81,6.34,4.35-2.75,21.91-3.11,28.9-1.57,2.79-.64,10-4.2,10.36-2.44.84-4-2-6.2-1.73-7.22.76-14.6,6.56-10.75,14.42-3.68.47-5.56,3.59-8.37,5.29-4.71,3.3-9.35,5.69-14.32,8.61C145.19,77.41,156,67.42,164.42,59.65Z"/><path class="cls-2" d="M49.52,46.2c18.84,13,27.22,34.26,39.66,52.47-.08,1.35-.16,2.63-.25,4.14C80.33,92.31,74,79.79,63,71.73c.82-2.65,2.42-5.19.45-7.56-1.11-1.71-3.35-1.64-4,.27C57.77,69.76,53.68,73.5,50.76,78,39.3,93.11,22.83,104.74,6.31,113.56c3-11.53,5.89-23.21,12.83-33.18C27.16,67.34,35.46,53.39,49.52,46.2Z"/><path class="cls-7" d="M123.33,151c1.29,7,2.92,1.59,7.49,4.91,1,4.79-7.38,12.63-9.93,16.83-4.13,2.25-9,6.32-14,3.88a65.59,65.59,0,0,1-17-19C97.71,147.17,112,150.49,123.33,151Z"/><path class="cls-1" d="M115.77,119.1c.39-4.1,7.53-4,9.52-1.33a1.93,1.93,0,0,1,2.57-1.86c-3.39-1.83-6.66-4-11-4l.59,1.25c-4.67,1.45-5.68,7.4-6,11.38.09-2.12,1.33-6.54,4.15-4.28A4.44,4.44,0,0,1,115.77,119.1Z"/><path class="cls-4" d="M135.57,156.28c13.59,1.33.23,18-4.6,22.8-3.37,3.56-5.81,8.66-10.75,10.19-4.26,2.5-11.18,2.16-11.73-3.8-.26-1.1.16-2,1.37-1.91C123.34,182.46,131.6,167.76,135.57,156.28Z"/><path class="cls-8" d="M144.63,119.66c2.38.64,4.09-.73,6-2.18l7.95,6.38-2.71,3.22c4.2,5.07,5.37-5,13.93,4.92-5.78,4.05-2.2,7.43,2.75,3.16,3.13,2.49,2.8,5.72-1.25,8.17-7.56-9.31-17.3-16.18-26.59-23.74Z"/><path class="cls-2" d="M51,87.54c.23-.35.48-.73.71-1.06,12.35,7.42,22.42,18.65,32.53,29.1-.15.26-.43.7-.88,1.42-5.24-4.46-10.28-9-15.93-13-1-.83-2.45-1.46-2.21-3.24C60.47,96.4,55.75,92.37,51,87.54Z"/><path class="cls-1" d="M111,196c3.16.75,2.28,1.39,8.16-.33V206l-9.09,1.35C110.38,203.41,110.68,199.79,111,196Z"/><path class="cls-1" d="M93.09,195.13c2.65.41,5.31,1.94,7.88-1.07v11.61H94.29C93.89,202.21,93.51,198.77,93.09,195.13Z"/><path class="cls-8" d="M144.7,119.59l-9.19-5.2c3.46-3.9,8.08-4.33,11.63.26C145.22,115.73,144.06,117.68,144.7,119.59Z"/><path class="cls-8" d="M106.36,105c6.09-4.49,5.92-4.54,12.67-1.38-.49,1.38-.92,2.61-1.46,4.17C113.79,107.14,110,106.67,106.36,105Z"/><path class="cls-8" d="M95.6,100.08c3.58-2.28,4.73-2.32,10.76-.39-1,1.33-2.72,2.51-1.26,4.49C99.69,104,96.07,103.55,95.6,100.08Z"/><path class="cls-8" d="M134,109.57l-1.38,2.73L121.72,108l2.56-2.31Z"/><path class="cls-1" d="M106,194.39c.22-.72.36-1.19.59-1.91l2.25,1.91Z"/><path class="cls-1" d="M192.31,108.45c.4-1.12,1.14-1.5,2.91-1C194,108,192.74,108.07,192.31,108.45Z"/><path class="cls-1" d="M144,51c-2.65.83-2.32-3.48.12-2.55A1.59,1.59,0,0,1,144,51Z"/><path d="M126.36,119.62a2,2,0,0,1-1.07-1.85c-2.45-3.13-10.15-2.49-9.66,2.49a2.1,2.1,0,0,1,.37,2.23C119.66,131.65,127.91,128.31,126.36,119.62Z"/><path class="cls-5" d="M171,60.94H171l-.66.09a2.25,2.25,0,0,1,.58,0l-.66-.09a2.48,2.48,0,0,1,.59.17l-.59-.26a2.58,2.58,0,0,1,.53.32l-.5-.4a2.71,2.71,0,0,1,.41.42l-.39-.51a2.45,2.45,0,0,1,.24.38,2.38,2.38,0,0,0,2.49,1.19A1.85,1.85,0,0,0,174,62l.5-.39a2.44,2.44,0,0,0,.64-1.11l.09-.66a2.43,2.43,0,0,0-.34-1.26,1.9,1.9,0,0,0-.2-.34,6.53,6.53,0,0,0-.62-.77,5.9,5.9,0,0,0-.78-.62,2.14,2.14,0,0,0-.32-.2,8.18,8.18,0,0,0-.92-.39,2.22,2.22,0,0,0-.37-.09,6.66,6.66,0,0,0-1-.12,6.14,6.14,0,0,0-1.05.12,2.42,2.42,0,0,0-1.79,2.08,1.86,1.86,0,0,0,0,1l.25.6a2.43,2.43,0,0,0,.9.9l.59.25a2.5,2.5,0,0,0,1.33,0Z"/></g></g></svg>